<svg width="308" height="315" viewBox="0 0 308 315" fill="none" xmlns="http://www.w3.org/2000/svg">
<path d="M307.284 153.651C307.284 154.021 307.284 154.381 307.274 154.751V155.641C306.205 239.584 237.894 307.312 153.784 307.312C144.356 307.312 135.138 306.453 126.18 304.833C112.198 302.304 98.8853 297.855 86.5115 291.807C61.6838 279.671 40.6212 261.027 25.5208 238.094C14.2255 220.94 6.26596 201.386 2.59074 180.353C1.19257 172.315 0.393558 164.058 0.293688 155.641V154.751C0.283701 154.381 0.283691 154.021 0.283691 153.651C0.283691 68.7981 68.9941 0 153.774 0C170.432 0 186.461 2.65916 201.492 7.5676C221.645 14.1655 239.972 24.8221 255.491 38.5777C276.194 56.9219 291.914 80.7743 300.353 107.846C304.437 120.932 306.804 134.777 307.214 149.103C307.264 150.612 307.284 152.132 307.284 153.651Z" fill="#787878"/>
<path d="M307.274 161.349C307.274 246.212 238.553 315 153.774 315C68.9941 315 0.283691 246.212 0.283691 161.349C0.283691 76.4857 69.0041 7.69751 153.774 7.69751C238.543 7.69751 307.274 76.4957 307.274 161.349Z" fill="#474747"/>
<path d="M307.284 156.73C307.284 241.583 238.563 310.371 153.784 310.371C143.337 310.371 133.131 309.322 123.273 307.332C109.511 304.553 96.4086 299.935 84.2544 293.737C59.7164 281.231 38.9633 262.317 24.2525 239.194C13.1669 221.78 5.47704 201.976 2.15138 180.723C0.912989 172.905 0.283691 164.888 0.283691 156.73C0.283691 156.36 0.283701 156 0.293688 155.631V154.741C1.3623 70.7875 69.6633 3.06903 153.774 3.06903C169.483 3.06903 184.634 5.42828 198.895 9.81689C219.318 16.0949 237.914 26.5216 253.724 40.1073C274.666 58.1115 290.715 81.6741 299.564 108.506C303.818 121.401 306.415 135.047 307.104 149.193C307.184 151.032 307.254 152.881 307.274 154.741V155.631C307.284 156 307.284 156.36 307.284 156.73Z" fill="url(#paint0_linear_1_1588)"/>
<path d="M295.699 157.04C295.699 235.545 232.112 299.205 153.674 299.205C75.2362 299.205 11.649 235.555 11.649 157.04C11.649 78.5251 75.2362 14.8653 153.674 14.8653C232.112 14.8653 295.699 78.5151 295.699 157.04Z" fill="url(#paint1_linear_1_1588)"/>
<path d="M292.902 156.93C292.902 233.746 230.703 295.986 153.983 295.986C77.2633 295.986 15.0645 233.736 15.0645 156.93C15.0645 80.1245 77.2633 17.8843 153.983 17.8843C230.703 17.8843 292.902 80.1345 292.902 156.93Z" fill="url(#paint2_linear_1_1588)"/>
<path d="M159.197 29.4507C159.197 31.7 157.379 33.5194 155.132 33.5194C152.885 33.5194 151.067 31.7 151.067 29.4507C151.067 27.2014 152.885 25.382 155.132 25.382C157.379 25.382 159.197 27.2014 159.197 29.4507Z" fill="#474747"/>
<path d="M159.606 28.411C159.606 30.6603 157.789 32.4797 155.541 32.4797C153.294 32.4797 151.477 30.6603 151.477 28.411C151.477 26.1617 153.294 24.3423 155.541 24.3423C157.789 24.3423 159.606 26.1617 159.606 28.411Z" fill="#E6E7E8"/>
<path d="M159.407 28.9308C159.407 31.1801 157.589 32.9996 155.342 32.9996C153.095 32.9996 151.277 31.1801 151.277 28.9308C151.277 26.6816 153.095 24.8621 155.342 24.8621C157.589 24.8621 159.407 26.6816 159.407 28.9308Z" fill="#898989"/>
<path d="M139.113 30.1805C139.463 32.3998 137.955 34.4891 135.738 34.839C133.52 35.1889 131.433 33.6794 131.083 31.4601C130.734 29.2408 132.242 27.1514 134.459 26.8015C136.676 26.4517 138.763 27.9612 139.113 30.1805Z" fill="#474747"/>
<path d="M139.363 29.0908C139.712 31.3101 138.204 33.3994 135.987 33.7493C133.77 34.0992 131.683 32.5897 131.333 30.3704C130.983 28.1511 132.492 26.0618 134.709 25.7119C136.926 25.362 139.013 26.8715 139.363 29.0908Z" fill="#E6E7E8"/>
<path d="M139.243 29.6306C139.592 31.8499 138.084 33.9393 135.867 34.2892C133.65 34.6391 131.563 33.1295 131.213 30.9102C130.864 28.6909 132.372 26.6016 134.589 26.2517C136.806 25.9018 138.893 27.4113 139.243 29.6306Z" fill="#898989"/>
<path d="M119.399 34.0492C120.098 36.1885 118.919 38.4878 116.792 39.1776C114.655 39.8774 112.358 38.6977 111.669 36.5684C110.97 34.4291 112.148 32.1298 114.275 31.44C116.412 30.7403 118.7 31.9199 119.399 34.0492Z" fill="#474747"/>
<path d="M119.479 32.9195C120.168 35.0589 118.999 37.3581 116.872 38.0479C114.735 38.7377 112.438 37.5681 111.749 35.4387C111.05 33.2994 112.228 31.0002 114.355 30.3104C116.492 29.6206 118.79 30.7902 119.479 32.9195Z" fill="#E6E7E8"/>
<path d="M119.439 33.4894C120.138 35.6287 118.959 37.928 116.832 38.6178C114.695 39.3076 112.408 38.1379 111.709 36.0086C111.02 33.8693 112.178 31.58 114.315 30.8802C116.452 30.1904 118.75 31.3601 119.439 33.4894Z" fill="#898989"/>
<path d="M100.533 40.947C101.552 42.9464 100.753 45.4056 98.7555 46.4253C96.7581 47.4449 94.3013 46.6452 93.2927 44.6458C92.274 42.6465 93.0727 40.1972 95.0701 39.1676C97.0675 38.1479 99.5243 38.9476 100.543 40.947H100.533Z" fill="#474747"/>
<path d="M100.433 39.8274C101.452 41.8267 100.653 44.286 98.6557 45.3056C96.6583 46.3253 94.2015 45.5256 93.1829 43.5262C92.1642 41.5268 92.9632 39.0776 94.9606 38.0479C96.958 37.0283 99.4148 37.828 100.433 39.8274Z" fill="#E6E7E8"/>
<path d="M100.483 40.3872C101.502 42.3865 100.703 44.8458 98.7056 45.8655C96.7082 46.8851 94.2515 46.0854 93.2328 44.086C92.2141 42.0867 93.0131 39.6374 95.0105 38.6077C97.0079 37.5881 99.4647 38.3878 100.483 40.3872Z" fill="#898989"/>
<path d="M82.966 50.7239C84.2843 52.5433 83.8847 55.0925 82.067 56.4121C80.2494 57.7317 77.7028 57.3318 76.3845 55.5124C75.0662 53.693 75.4658 51.1538 77.2835 49.8242C79.1011 48.5046 81.6377 48.9045 82.966 50.7239Z" fill="#474747"/>
<path d="M82.6963 49.6342C84.0146 51.4537 83.6152 53.9929 81.7976 55.3224C79.98 56.642 77.4331 56.2422 76.1148 54.4227C74.7965 52.6033 75.1962 50.0541 77.0138 48.7345C78.8314 47.415 81.3781 47.8148 82.6963 49.6342Z" fill="#E6E7E8"/>
<path d="M82.8361 50.1741C84.1544 51.9935 83.755 54.5427 81.9373 55.8623C80.1197 57.1819 77.5731 56.782 76.2548 54.9626C74.9365 53.1432 75.3359 50.604 77.1535 49.2744C78.9712 47.9548 81.5078 48.3547 82.8361 50.1741Z" fill="#898989"/>
<path d="M67.1567 63.1199C68.7447 64.7094 68.7447 67.2886 67.1567 68.8781C65.5688 70.4676 62.9921 70.4676 61.4042 68.8781C59.8163 67.2886 59.8163 64.7094 61.4042 63.1199C62.9921 61.5304 65.5688 61.5304 67.1567 63.1199Z" fill="#474747"/>
<path d="M66.7174 62.0903C68.3053 63.6797 68.3053 66.2589 66.7174 67.8484C65.1295 69.4379 62.5528 69.4379 60.9649 67.8484C59.3769 66.2589 59.3769 63.6797 60.9649 62.0903C62.5528 60.5008 65.1295 60.5008 66.7174 62.0903Z" fill="#E6E7E8"/>
<path d="M66.9371 62.6101C68.525 64.1996 68.525 66.7787 66.9371 68.3682C65.3492 69.9577 62.7725 69.9577 61.1846 68.3682C59.5967 66.7787 59.5967 64.1996 61.1846 62.6101C62.7725 61.0206 65.3492 61.0206 66.9371 62.6101Z" fill="#898989"/>
<path d="M53.4746 77.8453C55.2922 79.1649 55.6916 81.714 54.3733 83.5335C53.055 85.3529 50.5084 85.7528 48.6908 84.4332C46.8731 83.1136 46.4738 80.5644 47.792 78.745C49.1103 76.9256 51.6569 76.5257 53.4746 77.8453Z" fill="#474747"/>
<path d="M52.8751 76.8956C54.6928 78.2152 55.0924 80.7644 53.7741 82.5838C52.4558 84.4032 49.9092 84.8031 48.0916 83.4835C46.2739 82.1639 45.8743 79.6147 47.1926 77.7953C48.5109 75.9759 51.0575 75.576 52.8751 76.8956Z" fill="#E6E7E8"/>
<path d="M53.1749 77.3755C54.9925 78.695 55.3921 81.2442 54.0739 83.0637C52.7556 84.8831 50.2087 85.283 48.3911 83.9634C46.5734 82.6438 46.1741 80.0946 47.4924 78.2752C48.8106 76.4558 51.3573 76.0559 53.1749 77.3755Z" fill="#898989"/>
<path d="M42.2591 94.53C44.2565 95.5497 45.0555 97.9989 44.0368 100.008C43.0182 102.008 40.5714 102.807 38.564 101.788C36.5666 100.768 35.7676 98.3188 36.7863 96.3094C37.8049 94.3101 40.2517 93.5103 42.2591 94.53Z" fill="#474747"/>
<path d="M41.5201 93.6903C43.5175 94.7099 44.3165 97.1591 43.2978 99.1685C42.2791 101.168 39.8323 101.968 37.825 100.948C35.8276 99.9283 35.0286 97.479 36.0472 95.4697C37.0659 93.4703 39.5127 92.6706 41.5201 93.6903Z" fill="#E6E7E8"/>
<path d="M41.8895 94.1101C43.8869 95.1298 44.6859 97.5791 43.6672 99.5884C42.6485 101.588 40.2017 102.388 38.1943 101.368C36.1969 100.348 35.398 97.8989 36.4166 95.8896C37.4353 93.8902 39.8821 93.0904 41.8895 94.1101Z" fill="#898989"/>
<path d="M33.7902 112.774C35.9274 113.464 37.0957 115.763 36.3966 117.903C35.6975 120.042 33.4106 121.212 31.2734 120.512C29.1362 119.822 27.9676 117.523 28.6667 115.383C29.3558 113.244 31.6529 112.074 33.7902 112.774Z" fill="#474747"/>
<path d="M32.9312 112.054C35.0684 112.744 36.237 115.043 35.5379 117.183C34.8388 119.322 32.5516 120.492 30.4144 119.792C28.2772 119.092 27.1089 116.803 27.808 114.664C28.507 112.524 30.794 111.355 32.9312 112.054Z" fill="#E6E7E8"/>
<path d="M33.3608 112.414C35.498 113.104 36.6664 115.403 35.9673 117.543C35.2682 119.682 32.9813 120.852 30.8441 120.152C28.7068 119.452 27.5382 117.163 28.2273 115.023C28.9164 112.884 31.2136 111.715 33.3508 112.414H33.3608Z" fill="#898989"/>
<path d="M28.2774 132.108C30.4945 132.458 32.0124 134.547 31.6529 136.767C31.3033 138.986 29.2161 140.495 26.999 140.145C24.7819 139.796 23.264 137.706 23.6235 135.487C23.9731 133.268 26.0603 131.748 28.2774 132.108Z" fill="#474747"/>
<path d="M27.3186 131.538C29.5357 131.888 31.0536 133.978 30.6941 136.197C30.3446 138.416 28.2574 139.936 26.0403 139.586C23.8231 139.236 22.305 137.146 22.6645 134.927C23.0141 132.708 25.1015 131.188 27.3186 131.548V131.538Z" fill="#E6E7E8"/>
<path d="M27.798 131.818C30.0151 132.168 31.533 134.257 31.1735 136.477C30.824 138.696 28.7368 140.215 26.5197 139.856C24.3025 139.506 22.7846 137.416 23.1342 135.197C23.4837 132.978 25.5709 131.458 27.788 131.818H27.798Z" fill="#898989"/>
<path d="M25.8605 152.072C28.1076 152.072 29.9251 153.891 29.9251 156.14C29.9251 158.39 28.1076 160.209 25.8605 160.209C23.6135 160.209 21.7958 158.39 21.7958 156.14C21.7958 153.891 23.6135 152.072 25.8605 152.072Z" fill="#474747"/>
<path d="M24.8118 151.662C27.0589 151.662 28.8766 153.481 28.8766 155.731C28.8766 157.98 27.0589 159.799 24.8118 159.799C22.5648 159.799 20.7471 157.98 20.7471 155.731C20.7471 153.481 22.5648 151.662 24.8118 151.662Z" fill="#E6E7E8"/>
<path d="M25.3311 151.862C27.5782 151.862 29.3957 153.681 29.3957 155.931C29.3957 158.18 27.5782 159.999 25.3311 159.999C23.0841 159.999 21.2664 158.18 21.2664 155.931C21.2664 153.681 23.0841 151.862 25.3311 151.862Z" fill="#898989"/>
<path d="M26.5796 172.165C28.7967 171.815 30.8839 173.325 31.2335 175.554C31.583 177.774 30.0751 179.863 27.858 180.213C25.6409 180.563 23.5534 179.053 23.2039 176.834C22.8543 174.615 24.3625 172.525 26.5796 172.175V172.165Z" fill="#474747"/>
<path d="M25.491 171.925C27.7081 171.576 29.7953 173.085 30.1449 175.304C30.4944 177.524 28.9865 179.613 26.7694 179.963C24.5523 180.313 22.4651 178.803 22.1155 176.584C21.766 174.365 23.2739 172.275 25.491 171.925Z" fill="#E6E7E8"/>
<path d="M26.0403 172.045C28.2574 171.695 30.3446 173.205 30.6942 175.424C31.0437 177.644 29.5358 179.733 27.3187 180.083C25.1016 180.433 23.0141 178.923 22.6646 176.704C22.315 174.485 23.8232 172.395 26.0403 172.045Z" fill="#898989"/>
<path d="M30.4444 191.909C32.5816 191.219 34.8688 192.389 35.5678 194.518C36.2569 196.658 35.0884 198.947 32.9611 199.647C30.8239 200.336 28.527 199.167 27.8379 197.037C27.1388 194.898 28.3172 192.609 30.4444 191.909Z" fill="#474747"/>
<path d="M29.3258 191.829C31.463 191.129 33.7599 192.299 34.449 194.438C35.1381 196.578 33.9698 198.877 31.8326 199.567C29.6953 200.266 27.4082 199.097 26.7091 196.957C26.02 194.818 27.1886 192.519 29.3158 191.829H29.3258Z" fill="#E6E7E8"/>
<path d="M29.8849 191.869C32.0222 191.179 34.3193 192.339 35.0084 194.478C35.7075 196.618 34.5389 198.917 32.4017 199.607C30.2645 200.296 27.9676 199.127 27.2785 196.997C26.5894 194.858 27.7577 192.559 29.8849 191.869Z" fill="#898989"/>
<path d="M37.3357 210.793C39.3331 209.773 41.7799 210.573 42.8086 212.572C43.8272 214.572 43.0283 217.021 41.0309 218.051C39.0335 219.07 36.5867 218.271 35.568 216.271C34.5493 214.272 35.3483 211.823 37.3457 210.793H37.3357Z" fill="#474747"/>
<path d="M36.2171 210.903C38.2144 209.883 40.6612 210.673 41.6899 212.682C42.7086 214.682 41.9096 217.141 39.9122 218.161C37.9148 219.18 35.468 218.381 34.4393 216.381C33.4207 214.382 34.2197 211.923 36.2171 210.903Z" fill="#E6E7E8"/>
<path d="M36.7764 210.843C38.7738 209.823 41.2306 210.613 42.2492 212.622C43.2679 214.622 42.4789 217.071 40.4715 218.091C38.4741 219.11 36.0173 218.311 34.9987 216.311C33.98 214.312 34.779 211.853 36.7764 210.843Z" fill="#898989"/>
<path d="M47.1028 228.367C48.9204 227.048 51.4571 227.448 52.7853 229.267C54.1036 231.087 53.704 233.626 51.8864 234.955C50.0687 236.275 47.5221 235.875 46.2038 234.056C44.8855 232.236 45.2852 229.697 47.1028 228.367Z" fill="#474747"/>
<path d="M46.0142 228.647C47.8318 227.328 50.3784 227.728 51.6967 229.547C53.015 231.367 52.6156 233.916 50.798 235.235C48.9803 236.555 46.4435 236.155 45.1152 234.336C43.7969 232.516 44.1965 229.967 46.0142 228.647Z" fill="#E6E7E8"/>
<path d="M46.5535 228.507C48.3711 227.188 50.9177 227.588 52.236 229.407C53.5543 231.227 53.1549 233.766 51.3373 235.085C49.5196 236.405 46.9728 236.005 45.6545 234.186C44.3362 232.366 44.7358 229.827 46.5535 228.497V228.507Z" fill="#898989"/>
<path d="M59.4867 244.202C61.0747 242.613 63.6513 242.613 65.2392 244.202C66.8272 245.792 66.8272 248.371 65.2392 249.961C63.6513 251.55 61.0747 251.55 59.4867 249.961C57.8988 248.371 57.8988 245.792 59.4867 244.202Z" fill="#474747"/>
<path d="M58.458 244.652C60.046 243.063 62.6226 243.063 64.2106 244.652C65.7985 246.242 65.7985 248.821 64.2106 250.411C62.6226 252 60.046 252 58.458 250.411C56.8701 248.821 56.8701 246.242 58.458 244.652Z" fill="#E6E7E8"/>
<path d="M58.9773 244.422C60.5653 242.833 63.1419 242.833 64.7298 244.422C66.3178 246.012 66.3178 248.581 64.7298 250.171C63.1419 251.76 60.5653 251.76 58.9773 250.171C57.3894 248.581 57.3894 246.002 58.9773 244.412V244.422Z" fill="#898989"/>
<path d="M74.1976 257.898C75.5158 256.079 78.0625 255.679 79.8801 256.998C81.6977 258.318 82.0973 260.867 80.7791 262.687C79.4608 264.506 76.9139 264.906 75.0963 263.586C73.2787 262.267 72.8793 259.718 74.1976 257.898Z" fill="#474747"/>
<path d="M73.2488 258.498C74.5671 256.679 77.1137 256.279 78.9314 257.598C80.749 258.918 81.1484 261.467 79.8301 263.286C78.5118 265.106 75.9652 265.506 74.1476 264.186C72.3299 262.867 71.9305 260.317 73.2488 258.498Z" fill="#E6E7E8"/>
<path d="M73.7282 258.198C75.0465 256.379 77.5931 255.979 79.4107 257.298C81.2284 258.618 81.628 261.167 80.3097 262.976C78.9914 264.796 76.4446 265.196 74.6269 263.876C72.8093 262.557 72.4099 260.007 73.7282 258.188V258.198Z" fill="#898989"/>
<path d="M90.8757 269.125C91.8944 267.125 94.3412 266.325 96.3486 267.345C98.346 268.365 99.145 270.814 98.1263 272.823C97.1076 274.823 94.6608 275.622 92.6535 274.603C90.6561 273.583 89.8571 271.134 90.8757 269.135V269.125Z" fill="#474747"/>
<path d="M90.0268 269.864C91.0455 267.865 93.4923 267.065 95.4996 268.085C97.497 269.105 98.296 271.554 97.2774 273.563C96.2587 275.563 93.8116 276.362 91.8043 275.343C89.8069 274.323 89.0081 271.874 90.0268 269.864Z" fill="#E6E7E8"/>
<path d="M90.4464 269.494C91.4651 267.495 93.9119 266.695 95.9193 267.715C97.9167 268.735 98.7157 271.184 97.697 273.193C96.6783 275.193 94.2315 275.992 92.2241 274.973C90.2267 273.953 89.4277 271.504 90.4464 269.504V269.494Z" fill="#898989"/>
<path d="M109.092 277.602C109.791 275.463 112.078 274.293 114.215 274.993C116.353 275.682 117.521 277.982 116.822 280.121C116.133 282.26 113.836 283.43 111.699 282.73C109.561 282.04 108.393 279.741 109.092 277.602Z" fill="#474747"/>
<path d="M108.373 278.462C109.062 276.322 111.359 275.153 113.496 275.852C115.634 276.552 116.802 278.841 116.103 280.981C115.404 283.12 113.117 284.29 110.98 283.59C108.842 282.89 107.674 280.591 108.373 278.462Z" fill="#E6E7E8"/>
<path d="M108.733 278.032C109.422 275.892 111.719 274.723 113.856 275.423C115.993 276.122 117.162 278.412 116.462 280.551C115.763 282.69 113.476 283.86 111.339 283.16C109.202 282.47 108.033 280.171 108.733 278.032Z" fill="#898989"/>
<path d="M128.407 283.12C128.757 280.901 130.844 279.391 133.061 279.741C135.278 280.091 136.796 282.18 136.437 284.4C136.087 286.619 134 288.129 131.782 287.779C129.565 287.429 128.047 285.339 128.407 283.12Z" fill="#474747"/>
<path d="M127.838 284.08C128.187 281.861 130.275 280.341 132.492 280.691C134.709 281.041 136.227 283.13 135.867 285.349C135.518 287.569 133.43 289.088 131.213 288.728C128.996 288.378 127.478 286.289 127.838 284.07V284.08Z" fill="#E6E7E8"/>
<path d="M128.127 283.6C128.477 281.381 130.564 279.861 132.781 280.221C134.998 280.571 136.506 282.66 136.157 284.88C135.807 287.099 133.72 288.618 131.503 288.258C129.286 287.909 127.778 285.819 128.127 283.6Z" fill="#898989"/>
<path d="M148.351 285.539C148.351 283.29 150.179 281.471 152.416 281.471C154.663 281.471 156.48 283.29 156.48 285.539C156.48 287.789 154.663 289.608 152.416 289.608C150.169 289.608 148.351 287.789 148.351 285.539Z" fill="#474747"/>
<path d="M147.942 286.589C147.942 284.34 149.759 282.52 152.006 282.52C154.253 282.52 156.071 284.34 156.071 286.589C156.071 288.838 154.243 290.658 152.006 290.658C149.759 290.658 147.942 288.828 147.942 286.589Z" fill="#E6E7E8"/>
<path d="M148.151 286.059C148.151 283.81 149.969 281.99 152.216 281.99C154.463 281.99 156.281 283.81 156.281 286.059C156.281 288.308 154.463 290.128 152.216 290.128C149.969 290.128 148.151 288.308 148.151 286.059Z" fill="#898989"/>
<path d="M168.435 284.81C168.085 282.59 169.603 280.511 171.82 280.151C174.037 279.801 176.125 281.311 176.474 283.54C176.824 285.759 175.316 287.849 173.099 288.198C170.882 288.548 168.794 287.039 168.445 284.82L168.435 284.81Z" fill="#474747"/>
<path d="M168.185 285.909C167.836 283.69 169.344 281.601 171.561 281.251C173.778 280.901 175.865 282.41 176.215 284.64C176.564 286.859 175.046 288.948 172.839 289.298C170.622 289.648 168.535 288.128 168.185 285.919V285.909Z" fill="#E6E7E8"/>
<path d="M168.305 285.359C167.955 283.14 169.464 281.051 171.681 280.701C173.898 280.351 175.985 281.861 176.335 284.08C176.684 286.299 175.176 288.388 172.959 288.738C170.742 289.088 168.655 287.579 168.305 285.349V285.359Z" fill="#898989"/>
<path d="M188.149 280.951C187.46 278.812 188.628 276.522 190.766 275.822C192.903 275.133 195.2 276.302 195.889 278.432C196.588 280.571 195.42 282.86 193.272 283.56C191.135 284.25 188.838 283.08 188.149 280.951Z" fill="#474747"/>
<path d="M188.079 282.08C187.38 279.941 188.558 277.642 190.686 276.952C192.823 276.252 195.12 277.422 195.809 279.561C196.498 281.701 195.33 284 193.192 284.69C191.055 285.389 188.758 284.21 188.069 282.08H188.079Z" fill="#E6E7E8"/>
<path d="M188.109 281.511C187.42 279.371 188.578 277.072 190.716 276.382C192.853 275.693 195.14 276.852 195.839 278.991C196.528 281.131 195.36 283.43 193.232 284.12C191.095 284.82 188.808 283.64 188.109 281.511Z" fill="#898989"/>
<path d="M207.015 274.053C205.996 272.054 206.795 269.594 208.792 268.575C210.79 267.555 213.246 268.355 214.265 270.354C215.284 272.364 214.485 274.813 212.487 275.832C210.49 276.852 208.043 276.052 207.015 274.053Z" fill="#474747"/>
<path d="M207.124 275.173C206.106 273.173 206.895 270.714 208.902 269.694C210.899 268.675 213.356 269.464 214.375 271.474C215.394 273.473 214.595 275.922 212.597 276.952C210.6 277.972 208.143 277.172 207.124 275.173Z" fill="#E6E7E8"/>
<path d="M207.074 274.613C206.056 272.613 206.855 270.154 208.852 269.145C210.85 268.125 213.296 268.915 214.315 270.924C215.334 272.923 214.535 275.383 212.537 276.402C210.54 277.422 208.093 276.622 207.064 274.623L207.074 274.613Z" fill="#898989"/>
<path d="M224.582 264.276C223.263 262.457 223.673 259.908 225.48 258.588C227.298 257.268 229.835 257.668 231.163 259.488C232.481 261.307 232.082 263.846 230.264 265.176C228.446 266.495 225.91 266.096 224.582 264.276Z" fill="#474747"/>
<path d="M224.851 265.366C223.533 263.546 223.932 260.997 225.75 259.678C227.568 258.358 230.114 258.758 231.433 260.577C232.751 262.397 232.352 264.946 230.534 266.265C228.716 267.585 226.17 267.175 224.851 265.366Z" fill="#E6E7E8"/>
<path d="M224.721 264.816C223.403 262.997 223.803 260.457 225.62 259.128C227.438 257.808 229.975 258.208 231.293 260.027C232.611 261.847 232.211 264.396 230.394 265.716C228.576 267.035 226.03 266.635 224.711 264.816H224.721Z" fill="#898989"/>
<path d="M240.391 251.87C238.803 250.281 238.803 247.701 240.391 246.112C241.979 244.522 244.556 244.522 246.144 246.112C247.731 247.701 247.731 250.281 246.144 251.87C244.556 253.46 241.979 253.46 240.391 251.87Z" fill="#474747"/>
<path d="M240.841 252.91C239.253 251.32 239.253 248.741 240.841 247.152C242.429 245.562 245.005 245.562 246.593 247.152C248.181 248.741 248.181 251.32 246.593 252.91C245.005 254.499 242.429 254.499 240.841 252.91Z" fill="#E6E7E8"/>
<path d="M240.621 252.39C239.033 250.8 239.033 248.221 240.621 246.632C242.209 245.042 244.785 245.042 246.373 246.632C247.961 248.221 247.961 250.8 246.373 252.39C244.785 253.979 242.209 253.979 240.621 252.39Z" fill="#898989"/>
<path d="M254.073 237.145C252.256 235.825 251.856 233.276 253.174 231.457C254.493 229.637 257.039 229.237 258.857 230.557C260.674 231.876 261.074 234.426 259.756 236.245C258.437 238.064 255.891 238.464 254.073 237.145Z" fill="#474747"/>
<path d="M254.682 238.104C252.865 236.785 252.465 234.236 253.784 232.416C255.102 230.597 257.649 230.197 259.466 231.516C261.284 232.836 261.683 235.385 260.365 237.205C259.047 239.024 256.5 239.424 254.682 238.104Z" fill="#E6E7E8"/>
<path d="M254.373 237.625C252.555 236.305 252.156 233.756 253.474 231.936C254.792 230.117 257.329 229.717 259.147 231.037C260.964 232.356 261.364 234.905 260.046 236.725C258.727 238.544 256.18 238.944 254.363 237.625H254.373Z" fill="#898989"/>
<path d="M265.289 220.46C263.291 219.44 262.492 216.991 263.511 214.992C264.53 212.992 266.976 212.193 268.984 213.212C270.981 214.232 271.78 216.681 270.762 218.691C269.743 220.69 267.296 221.49 265.299 220.47L265.289 220.46Z" fill="#474747"/>
<path d="M266.028 221.31C264.02 220.29 263.231 217.841 264.25 215.831C265.269 213.832 267.715 213.032 269.723 214.052C271.72 215.072 272.519 217.521 271.5 219.53C270.482 221.53 268.035 222.329 266.028 221.31Z" fill="#E6E7E8"/>
<path d="M265.658 220.89C263.661 219.87 262.862 217.421 263.88 215.412C264.899 213.412 267.346 212.612 269.343 213.632C271.341 214.652 272.14 217.111 271.121 219.11C270.102 221.11 267.655 221.91 265.648 220.89H265.658Z" fill="#898989"/>
<path d="M273.758 202.226C271.62 201.536 270.452 199.237 271.151 197.097C271.85 194.958 274.137 193.788 276.274 194.488C278.412 195.178 279.58 197.477 278.881 199.617C278.192 201.756 275.895 202.926 273.758 202.226Z" fill="#474747"/>
<path d="M274.626 202.946C272.489 202.246 271.321 199.956 272.02 197.817C272.709 195.678 275.006 194.508 277.143 195.208C279.28 195.908 280.449 198.197 279.75 200.336C279.051 202.476 276.764 203.645 274.626 202.956V202.946Z" fill="#E6E7E8"/>
<path d="M274.187 202.586C272.06 201.886 270.881 199.597 271.58 197.457C272.269 195.318 274.566 194.148 276.704 194.848C278.841 195.548 280.009 197.837 279.31 199.977C278.621 202.116 276.324 203.285 274.187 202.586Z" fill="#898989"/>
<path d="M279.271 182.892C277.053 182.542 275.545 180.453 275.895 178.233C276.244 176.014 278.332 174.505 280.549 174.854C282.766 175.204 284.274 177.294 283.924 179.513C283.575 181.732 281.488 183.242 279.271 182.892Z" fill="#474747"/>
<path d="M280.239 183.462C278.022 183.112 276.504 181.023 276.864 178.803C277.213 176.584 279.3 175.064 281.518 175.424C283.735 175.774 285.253 177.864 284.903 180.083C284.554 182.302 282.466 183.822 280.249 183.472L280.239 183.462Z" fill="#E6E7E8"/>
<path d="M279.75 183.172C277.533 182.822 276.015 180.733 276.374 178.513C276.724 176.294 278.801 174.784 281.028 175.134C283.245 175.484 284.763 177.574 284.404 179.793C284.054 182.012 281.967 183.532 279.75 183.172Z" fill="#898989"/>
<path d="M281.687 162.928C279.44 162.928 277.622 161.099 277.622 158.86C277.622 156.61 279.44 154.791 281.687 154.791C283.934 154.791 285.752 156.61 285.752 158.86C285.752 161.099 283.934 162.928 281.687 162.928Z" fill="#474747"/>
<path d="M282.736 163.338C280.489 163.338 278.671 161.509 278.671 159.269C278.671 157.02 280.489 155.201 282.736 155.201C284.983 155.201 286.8 157.02 286.8 159.269C286.8 161.519 284.973 163.338 282.736 163.338Z" fill="#E6E7E8"/>
<path d="M282.217 163.128C279.969 163.128 278.152 161.309 278.152 159.06C278.152 156.81 279.969 154.991 282.217 154.991C284.464 154.991 286.281 156.82 286.281 159.06C286.281 161.309 284.464 163.128 282.217 163.128Z" fill="#898989"/>
<path d="M280.968 142.825C278.751 143.175 276.674 141.655 276.314 139.436C275.965 137.216 277.473 135.127 279.69 134.777C281.907 134.427 283.994 135.937 284.344 138.166C284.693 140.385 283.185 142.465 280.968 142.825Z" fill="#474747"/>
<path d="M282.067 143.075C279.849 143.425 277.762 141.905 277.413 139.686C277.063 137.466 278.571 135.377 280.788 135.027C283.006 134.677 285.093 136.187 285.442 138.406C285.792 140.625 284.274 142.715 282.067 143.065V143.075Z" fill="#E6E7E8"/>
<path d="M281.518 142.955C279.3 143.304 277.213 141.795 276.863 139.566C276.514 137.346 278.022 135.267 280.239 134.907C282.456 134.557 284.543 136.067 284.893 138.286C285.243 140.505 283.735 142.595 281.518 142.945V142.955Z" fill="#898989"/>
<path d="M277.103 123.091C274.966 123.791 272.679 122.611 271.98 120.482C271.281 118.342 272.459 116.053 274.586 115.353C276.724 114.664 279.011 115.833 279.71 117.973C280.399 120.112 279.23 122.401 277.093 123.101L277.103 123.091Z" fill="#474747"/>
<path d="M278.232 123.161C276.094 123.861 273.797 122.681 273.108 120.542C272.409 118.402 273.578 116.113 275.715 115.413C277.852 114.724 280.149 115.893 280.838 118.023C281.537 120.162 280.359 122.461 278.232 123.151V123.161Z" fill="#E6E7E8"/>
<path d="M277.672 123.131C275.535 123.821 273.248 122.651 272.549 120.512C271.85 118.372 273.018 116.083 275.156 115.383C277.293 114.694 279.59 115.863 280.279 117.993C280.978 120.132 279.8 122.431 277.672 123.121V123.131Z" fill="#898989"/>
<path d="M270.212 104.207C268.215 105.227 265.768 104.427 264.739 102.427C263.721 100.428 264.52 97.9689 266.517 96.9492C268.515 95.9295 270.961 96.7292 271.99 98.7286C273.009 100.728 272.21 103.177 270.212 104.207Z" fill="#474747"/>
<path d="M271.331 104.097C269.323 105.117 266.876 104.317 265.858 102.318C264.839 100.318 265.628 97.8689 267.635 96.8393C269.633 95.8196 272.09 96.6193 273.108 98.6187C274.127 100.618 273.328 103.077 271.331 104.097Z" fill="#E6E7E8"/>
<path d="M270.771 104.147C268.774 105.167 266.327 104.367 265.299 102.367C264.28 100.368 265.079 97.9189 267.076 96.8993C269.073 95.8796 271.53 96.6793 272.549 98.6787C273.568 100.678 272.769 103.137 270.771 104.157V104.147Z" fill="#898989"/>
<path d="M260.445 86.6225C258.627 87.9421 256.081 87.5322 254.762 85.7228C253.444 83.9033 253.843 81.3542 255.661 80.0346C257.479 78.715 260.015 79.1149 261.344 80.9343C262.662 82.7537 262.263 85.2929 260.445 86.6225Z" fill="#474747"/>
<path d="M261.543 86.3526C259.726 87.6722 257.179 87.2723 255.861 85.4529C254.542 83.6335 254.942 81.0943 256.76 79.7647C258.577 78.4451 261.124 78.845 262.442 80.6644C263.76 82.4838 263.361 85.033 261.543 86.3526Z" fill="#E6E7E8"/>
<path d="M260.994 86.4825C259.177 87.8021 256.64 87.4023 255.312 85.5828C253.993 83.7634 254.393 81.2242 256.21 79.9047C258.028 78.5851 260.575 78.9849 261.893 80.8043C263.211 82.6238 262.812 85.163 260.994 86.4925V86.4825Z" fill="#898989"/>
<path d="M248.061 70.7975C246.473 72.387 243.897 72.387 242.309 70.7975C240.721 69.208 240.721 66.6288 242.309 65.0394C243.897 63.4499 246.473 63.4499 248.061 65.0394C249.649 66.6288 249.649 69.208 248.061 70.7975Z" fill="#474747"/>
<path d="M249.09 70.3476C247.502 71.9371 244.925 71.9371 243.337 70.3476C241.749 68.7581 241.749 66.179 243.337 64.5895C244.925 63 247.502 63 249.09 64.5895C250.678 66.179 250.678 68.7581 249.09 70.3476Z" fill="#E6E7E8"/>
<path d="M248.57 70.5676C246.982 72.157 244.406 72.157 242.818 70.5676C241.23 68.9781 241.23 66.4089 242.818 64.8094C244.406 63.2199 246.982 63.2199 248.57 64.8094C250.158 66.3989 250.158 68.9781 248.57 70.5676Z" fill="#898989"/>
<path d="M233.35 57.1019C232.032 58.9213 229.485 59.3212 227.668 58.0016C225.85 56.682 225.451 54.1328 226.769 52.3134C228.087 50.494 230.624 50.0941 232.451 51.4137C234.269 52.7333 234.669 55.2825 233.35 57.1019Z" fill="#474747"/>
<path d="M234.299 56.5021C232.981 58.3215 230.434 58.7214 228.616 57.4018C226.799 56.0822 226.399 53.533 227.717 51.7136C229.036 49.8942 231.582 49.4943 233.4 50.8139C235.218 52.1335 235.617 54.6826 234.299 56.5021Z" fill="#E6E7E8"/>
<path d="M233.82 56.802C232.501 58.6214 229.955 59.0213 228.137 57.7017C226.319 56.3821 225.92 53.8429 227.238 52.0135C228.556 50.1941 231.103 49.7942 232.921 51.1138C234.738 52.4334 235.138 54.9826 233.82 56.802Z" fill="#898989"/>
<path d="M216.682 45.8755C215.663 47.8748 213.216 48.6746 211.209 47.6549C209.212 46.6352 208.413 44.186 209.431 42.1767C210.45 40.1773 212.897 39.3776 214.904 40.3972C216.902 41.4169 217.701 43.8661 216.682 45.8755Z" fill="#474747"/>
<path d="M217.521 45.1357C216.502 47.1451 214.045 47.9348 212.048 46.9151C210.051 45.8955 209.252 43.4462 210.27 41.4369C211.289 39.4375 213.736 38.6378 215.743 39.6574C217.741 40.6771 218.54 43.1363 217.521 45.1357Z" fill="#E6E7E8"/>
<path d="M217.101 45.5056C216.083 47.5049 213.636 48.3047 211.639 47.285C209.641 46.2653 208.842 43.8161 209.861 41.8167C210.88 39.8174 213.326 39.0176 215.334 40.0373C217.331 41.057 218.13 43.5062 217.111 45.5156L217.101 45.5056Z" fill="#898989"/>
<path d="M198.456 37.3981C197.766 39.5375 195.47 40.7071 193.332 40.0073C191.195 39.3175 190.027 37.0182 190.716 34.8789C191.415 32.7396 193.702 31.57 195.839 32.2698C197.966 32.9595 199.145 35.2588 198.446 37.3981H198.456Z" fill="#474747"/>
<path d="M199.174 36.5284C198.475 38.6678 196.178 39.8374 194.051 39.1376C191.914 38.4478 190.745 36.1485 191.445 34.0092C192.134 31.8699 194.431 30.7003 196.568 31.4001C198.705 32.0898 199.874 34.3991 199.184 36.5284H199.174Z" fill="#E6E7E8"/>
<path d="M198.815 36.9683C198.116 39.1076 195.829 40.2773 193.692 39.5775C191.554 38.8877 190.386 36.5884 191.085 34.4491C191.784 32.3098 194.071 31.1402 196.208 31.8399C198.346 32.5297 199.514 34.829 198.815 36.9683Z" fill="#898989"/>
<path d="M179.141 31.8798C178.791 34.0991 176.704 35.6087 174.487 35.2588C172.27 34.9089 170.752 32.8195 171.111 30.6002C171.461 28.3809 173.538 26.8715 175.765 27.2213C177.982 27.5712 179.49 29.6605 179.141 31.8798Z" fill="#474747"/>
<path d="M179.71 30.9102C179.36 33.1295 177.273 34.649 175.056 34.2891C172.839 33.9392 171.321 31.8499 171.681 29.6306C172.03 27.4113 174.117 25.9018 176.335 26.2517C178.552 26.6016 180.07 28.6909 179.72 30.9102H179.71Z" fill="#E6E7E8"/>
<path d="M179.431 31.4C179.081 33.6193 176.994 35.1288 174.777 34.7789C172.559 34.4291 171.051 32.3497 171.401 30.1204C171.751 27.9011 173.838 26.3816 176.055 26.7415C178.272 27.0914 179.79 29.1807 179.431 31.4Z" fill="#898989"/>
<path d="M192.873 125.54C192.653 125.94 192.803 126.44 193.202 126.66C200.523 130.648 206.305 135.007 210.699 138.976C211.119 139.356 210.999 140.065 210.47 140.265C210.47 140.265 210.47 140.265 210.46 140.265C208.462 141.005 206.475 140.775 204.488 140.265C200.503 139.236 196.898 137.316 193.282 135.437C187.27 132.308 181.358 128.979 174.926 126.75C173.368 126.21 171.78 125.72 170.192 125.29C169.873 125.2 169.313 125.36 169.084 125.61C162.163 133.468 153.164 137.166 143.058 138.596C134.359 139.836 125.71 139.316 117.121 137.586C117.022 137.566 116.932 137.516 116.622 137.406C117.131 137.216 117.481 137.086 117.83 136.956C123.223 135.007 128.127 132.268 132.212 128.169C135.298 125.07 137.495 121.451 138.484 117.153C138.574 116.763 138.624 116.363 138.723 115.803C136.456 115.763 134.279 115.693 132.112 115.683C121.855 115.653 111.708 116.633 101.821 119.502C90.9355 122.671 81.1883 127.799 73.5083 136.347C66.6373 144.004 62.4627 152.911 61.7336 163.278C61.6138 165.018 61.7735 166.787 61.9333 168.526C62.2329 171.625 63.9508 173.845 66.7571 175.004C69.893 176.304 73.1287 177.374 76.3645 178.433C80.6489 179.843 84.8234 181.412 88.3189 184.381C92.4135 187.84 94.7506 193.309 94.9304 198.667C92.913 195.008 89.4674 193.958 85.8421 193.449C82.077 192.919 78.2621 192.709 74.477 192.319C73.3685 192.209 72.2699 192.049 71.1813 191.829C69.5234 191.479 67.9354 190.929 66.6072 189.61C66.5372 190.52 66.5573 191.349 66.3975 192.149C66.0479 193.948 65.0892 195.468 63.9607 196.867C62.7922 198.307 61.5837 199.707 60.4053 201.136C56.5004 205.855 54.6329 209.893 56.0311 216.541C55.0723 215.242 54.0835 213.972 53.1747 212.632C48.6706 206.045 47.9416 198.977 50.5282 191.499C51.5369 188.57 52.5656 185.641 53.5143 182.682C55.1822 177.484 55.0722 172.295 53.1147 167.207C48.8203 156.03 48.3509 144.584 51.1073 133.078C56.76 109.415 70.5222 91.7409 91.4449 79.5747C97.507 76.0558 104.048 73.5866 110.86 71.9071C111.189 71.8272 111.519 71.7472 111.838 71.6472C111.898 71.6372 111.948 71.5773 112.148 71.4473C107.414 63.4998 100.413 58.3215 92.2939 54.2527C94.561 54.1528 96.8178 53.9728 99.0849 53.9529C107.484 53.8829 115.673 55.1925 123.583 58.0715C130.754 60.6907 137.205 64.5195 142.828 69.7379C143.277 70.1577 143.956 70.4776 144.576 70.5576C155.441 72.1471 165.738 75.3561 175.036 81.3342C188.159 89.7715 196.868 101.618 201.591 116.413C202.6 119.572 204.068 122.351 206.066 124.94C207.853 127.26 209.581 129.629 211.219 132.048C211.958 133.138 212.507 134.347 212.877 135.607V135.637C213.226 136.797 211.848 137.676 210.939 136.887C206.585 133.078 200.992 128.969 193.981 125.15C193.582 124.93 193.073 125.08 192.863 125.49L192.873 125.54Z" fill="#292929"/>
<path d="M192.234 124.181C192.014 124.58 192.164 125.08 192.563 125.3C199.884 129.289 205.666 133.648 210.061 137.616C210.48 137.996 210.36 138.706 209.831 138.906C209.831 138.906 209.831 138.906 209.821 138.906C207.824 139.646 205.836 139.416 203.849 138.906C199.864 137.876 196.259 135.957 192.643 134.077C186.631 130.948 180.719 127.62 174.287 125.39C172.729 124.85 171.141 124.361 169.553 123.931C169.234 123.841 168.675 124.001 168.445 124.251C161.524 132.108 152.526 135.807 142.419 137.236C133.72 138.476 125.071 137.956 116.483 136.227C116.383 136.207 116.293 136.157 115.983 136.047C116.493 135.857 116.842 135.727 117.192 135.597C122.585 133.648 127.488 130.908 131.573 126.81C134.659 123.711 136.856 120.092 137.845 115.793C137.935 115.403 137.984 115.004 138.084 114.444C135.817 114.404 133.64 114.334 131.473 114.324C121.216 114.294 111.07 115.273 101.182 118.143C90.2966 121.312 80.5492 126.44 72.8692 134.987C65.9982 142.645 61.8236 151.552 61.0945 161.919C60.9747 163.658 61.1346 165.427 61.2944 167.167C61.594 170.266 63.3116 172.485 66.118 173.645C69.2539 174.944 72.4898 176.014 75.7256 177.074C80.01 178.483 84.1845 180.053 87.68 183.022C91.7747 186.481 94.1117 191.949 94.2915 197.307C92.2741 193.649 88.8285 192.599 85.2032 192.089C81.4381 191.559 77.623 191.349 73.8379 190.959C72.7294 190.849 71.631 190.689 70.5424 190.47C68.8846 190.12 67.2965 189.57 65.9683 188.25C65.8984 189.16 65.9184 189.99 65.7586 190.789C65.409 192.589 64.4504 194.108 63.3218 195.508C62.1533 196.947 60.9449 198.347 59.7664 199.777C55.8615 204.495 53.9938 208.534 55.392 215.182C54.4332 213.882 53.4446 212.613 52.5358 211.273C48.0317 204.685 47.3025 197.617 49.8891 190.14C50.8978 187.211 51.9265 184.281 52.8752 181.322C54.5431 176.124 54.4333 170.936 52.4758 165.847C48.1814 154.671 47.712 143.225 50.4685 131.718C56.1211 108.056 69.8831 90.3813 90.8058 78.2152C96.8679 74.6963 103.41 72.2271 110.221 70.5476C110.55 70.4676 110.88 70.3877 111.199 70.2877C111.259 70.2777 111.309 70.2177 111.509 70.0877C106.775 62.1403 99.7742 56.9619 91.6548 52.8932C93.9218 52.7933 96.1789 52.6133 98.446 52.5933C106.845 52.5233 115.034 53.8329 122.944 56.712C130.115 59.3312 136.566 63.16 142.189 68.3783C142.638 68.7982 143.318 69.1181 143.937 69.198C154.803 70.7875 165.099 73.9965 174.397 79.9746C187.52 88.4119 196.229 100.258 200.952 115.053C201.961 118.212 203.429 120.992 205.426 123.581C207.214 125.9 208.942 128.269 210.58 130.689C211.319 131.778 211.868 132.988 212.238 134.247V134.277C212.587 135.437 211.209 136.317 210.3 135.527C205.946 131.718 200.353 127.609 193.342 123.791C192.943 123.571 192.433 123.721 192.224 124.131L192.234 124.181Z" fill="url(#paint3_radial_1_1588)"/>
<g opacity="0.69">
<path d="M192.234 124.181C192.014 124.58 192.164 125.08 192.563 125.3C199.884 129.289 205.666 133.648 210.061 137.616C210.48 137.996 210.36 138.706 209.831 138.906C209.831 138.906 209.831 138.906 209.821 138.906C207.824 139.646 205.836 139.416 203.849 138.906C199.864 137.876 196.259 135.957 192.643 134.077C186.631 130.948 180.719 127.62 174.287 125.39C172.729 124.85 171.141 124.361 169.553 123.931C169.234 123.841 168.675 124.001 168.445 124.251C161.524 132.108 152.526 135.807 142.419 137.236C133.72 138.476 125.071 137.956 116.483 136.227C116.383 136.207 116.293 136.157 115.983 136.047C116.493 135.857 116.842 135.727 117.192 135.597C122.585 133.648 127.488 130.908 131.573 126.81C134.659 123.711 136.856 120.092 137.845 115.793C137.935 115.403 137.984 115.004 138.084 114.444C135.817 114.404 133.64 114.334 131.473 114.324C121.216 114.294 111.07 115.273 101.182 118.143C90.2966 121.312 80.5492 126.44 72.8692 134.987C65.9982 142.645 61.8236 151.552 61.0945 161.919C60.9747 163.658 61.1346 165.427 61.2944 167.167C61.594 170.266 63.3116 172.485 66.118 173.645C69.2539 174.944 72.4898 176.014 75.7256 177.074C80.01 178.483 84.1845 180.053 87.68 183.022C91.7747 186.481 94.1117 191.949 94.2915 197.307C92.2741 193.649 88.8285 192.599 85.2032 192.089C81.4381 191.559 77.623 191.349 73.8379 190.959C72.7294 190.849 71.631 190.689 70.5424 190.47C68.8846 190.12 67.2965 189.57 65.9683 188.25C65.8984 189.16 65.9184 189.99 65.7586 190.789C65.409 192.589 64.4504 194.108 63.3218 195.508C62.1533 196.947 60.9449 198.347 59.7664 199.777C55.8615 204.495 53.9938 208.534 55.392 215.182C54.4332 213.882 53.4446 212.613 52.5358 211.273C48.0317 204.685 47.3025 197.617 49.8891 190.14C50.8978 187.211 51.9265 184.281 52.8752 181.322C54.5431 176.124 54.4333 170.936 52.4758 165.847C48.1814 154.671 47.712 143.225 50.4685 131.718C56.1211 108.056 69.8831 90.3813 90.8058 78.2152C96.8679 74.6963 103.41 72.2271 110.221 70.5476C110.55 70.4676 110.88 70.3877 111.199 70.2877C111.259 70.2777 111.309 70.2177 111.509 70.0877C106.775 62.1403 99.7742 56.9619 91.6548 52.8932C93.9218 52.7933 96.1789 52.6133 98.446 52.5933C106.845 52.5233 115.034 53.8329 122.944 56.712C130.115 59.3312 136.566 63.16 142.189 68.3783C142.638 68.7982 143.318 69.1181 143.937 69.198C154.803 70.7875 165.099 73.9965 174.397 79.9746C187.52 88.4119 196.229 100.258 200.952 115.053C201.961 118.212 203.429 120.992 205.426 123.581C207.214 125.9 208.942 128.269 210.58 130.689C211.319 131.778 211.868 132.988 212.238 134.247V134.277C212.587 135.437 211.209 136.317 210.3 135.527C205.946 131.718 200.353 127.609 193.342 123.791C192.943 123.571 192.433 123.721 192.224 124.131L192.234 124.181Z" fill="#4A4A4A"/>
</g>
<path d="M119.608 197.697C119.768 197.267 119.548 196.798 119.119 196.638C111.309 193.738 104.967 190.23 100.044 186.931C99.5744 186.611 99.5944 185.891 100.084 185.621C100.084 185.621 100.084 185.621 100.094 185.621C101.961 184.611 103.969 184.541 106.006 184.771C110.101 185.221 113.946 186.611 117.791 187.96C124.182 190.2 130.514 192.659 137.196 193.948C138.813 194.258 140.451 194.518 142.089 194.728C142.419 194.768 142.948 194.538 143.138 194.258C148.88 185.501 157.259 180.563 167.067 177.704C175.506 175.244 184.134 174.535 192.883 175.024C192.983 175.024 193.073 175.064 193.402 175.134C192.923 175.394 192.593 175.574 192.264 175.744C187.2 178.433 182.736 181.852 179.271 186.481C176.654 189.99 174.996 193.888 174.617 198.277C174.577 198.677 174.587 199.077 174.567 199.647C176.814 199.367 178.981 199.127 181.128 198.827C191.285 197.407 201.192 194.988 210.57 190.739C220.897 186.061 229.825 179.593 236.206 170.046C241.919 161.489 244.795 152.072 244.046 141.715C243.917 139.976 243.517 138.246 243.098 136.547C242.359 133.518 240.341 131.568 237.405 130.818C234.109 129.979 230.764 129.379 227.418 128.789C222.974 128.009 218.629 127.04 214.734 124.6C210.19 121.751 207.104 116.673 206.166 111.405C208.682 114.744 212.248 115.293 215.903 115.283C219.708 115.273 223.513 114.943 227.318 114.784C228.427 114.734 229.545 114.734 230.654 114.804C232.341 114.914 233.999 115.233 235.497 116.353C235.438 115.443 235.298 114.624 235.348 113.814C235.438 111.984 236.177 110.345 237.095 108.795C238.044 107.206 239.043 105.646 240.012 104.057C243.207 98.8286 244.486 94.56 242.159 88.182C243.287 89.3316 244.456 90.4513 245.544 91.6409C250.937 97.5191 252.655 104.407 251.157 112.184C250.568 115.233 249.969 118.272 249.449 121.341C248.54 126.72 249.379 131.848 252.036 136.607C257.868 147.053 259.956 158.32 258.867 170.106C256.63 194.328 245.514 213.782 226.519 228.797C221.016 233.146 214.894 236.505 208.393 239.144C208.083 239.274 207.764 239.394 207.454 239.534C207.394 239.554 207.354 239.614 207.184 239.774C212.997 246.972 220.657 251.1 229.276 253.969C227.048 254.389 224.831 254.889 222.594 255.229C214.285 256.489 205.996 256.359 197.767 254.629C190.296 253.05 183.365 250.181 177.064 245.812C176.554 245.462 175.835 245.242 175.216 245.242C164.23 245.212 153.584 243.493 143.537 238.894C129.356 232.406 119.049 221.91 112.278 207.944C110.84 204.955 108.982 202.416 106.635 200.136C104.538 198.097 102.491 195.998 100.523 193.828C99.6345 192.859 98.9153 191.739 98.376 190.54V190.51C97.8567 189.41 99.1051 188.34 100.114 189C104.967 192.149 111.079 195.428 118.56 198.207C118.989 198.367 119.469 198.147 119.628 197.717L119.608 197.697Z" fill="#292929"/>
<path d="M118.969 196.338C119.129 195.908 118.909 195.438 118.48 195.278C110.67 192.379 104.328 188.87 99.4047 185.571C98.9353 185.251 98.9554 184.531 99.4447 184.261C99.4447 184.261 99.4447 184.261 99.4547 184.261C101.322 183.252 103.33 183.182 105.367 183.412C109.462 183.862 113.307 185.251 117.152 186.601C123.543 188.84 129.875 191.299 136.556 192.589C138.174 192.899 139.812 193.159 141.45 193.369C141.78 193.409 142.309 193.179 142.499 192.899C148.241 184.142 156.62 179.203 166.428 176.344C174.867 173.885 183.495 173.175 192.244 173.665C192.344 173.665 192.434 173.705 192.763 173.775C192.284 174.035 191.954 174.215 191.625 174.385C186.561 177.074 182.097 180.493 178.632 185.121C176.015 188.63 174.357 192.529 173.978 196.917C173.938 197.317 173.948 197.717 173.928 198.287C176.175 198.007 178.342 197.767 180.489 197.467C190.646 196.048 200.553 193.629 209.931 189.38C220.257 184.701 229.186 178.233 235.567 168.686C241.28 160.129 244.156 150.712 243.407 140.355C243.277 138.616 242.878 136.887 242.458 135.187C241.719 132.158 239.702 130.209 236.766 129.459C233.47 128.619 230.124 128.019 226.779 127.43C222.335 126.65 217.99 125.68 214.095 123.241C209.551 120.392 206.465 115.313 205.527 110.045C208.043 113.384 211.609 113.934 215.264 113.924C219.069 113.914 222.874 113.584 226.679 113.424C227.787 113.374 228.906 113.374 230.015 113.444C231.702 113.554 233.36 113.874 234.858 114.993C234.799 114.084 234.659 113.264 234.708 112.454C234.798 110.625 235.537 108.985 236.456 107.436C237.405 105.846 238.404 104.287 239.372 102.697C242.568 97.4691 243.847 93.2004 241.52 86.8224C242.648 87.9721 243.817 89.0917 244.905 90.2813C250.298 96.1594 252.016 103.047 250.518 110.825C249.929 113.874 249.33 116.913 248.81 119.982C247.901 125.36 248.74 130.489 251.397 135.247C257.229 145.694 259.316 156.96 258.228 168.746C255.991 192.969 244.875 212.423 225.88 227.438C220.377 231.786 214.255 235.145 207.754 237.785C207.444 237.914 207.124 238.034 206.815 238.174C206.755 238.194 206.715 238.254 206.545 238.414C212.358 245.612 220.018 249.741 228.636 252.61C226.409 253.03 224.192 253.529 221.955 253.869C213.646 255.129 205.357 254.999 197.128 253.27C189.657 251.69 182.726 248.821 176.425 244.452C175.915 244.103 175.196 243.883 174.577 243.883C163.591 243.853 152.945 242.133 142.898 237.535C128.717 231.047 118.41 220.55 111.639 206.584C110.201 203.595 108.343 201.056 105.996 198.777C103.899 196.738 101.852 194.638 99.8841 192.469C98.9952 191.499 98.2763 190.38 97.737 189.18V189.15C97.2177 188.05 98.466 186.981 99.4747 187.64C104.328 190.789 110.44 194.068 117.921 196.848C118.35 197.007 118.83 196.788 118.989 196.358L118.969 196.338Z" fill="url(#paint4_radial_1_1588)"/>
<g opacity="0.69">
<path d="M118.969 196.338C119.129 195.908 118.909 195.438 118.48 195.278C110.67 192.379 104.328 188.87 99.4047 185.571C98.9353 185.251 98.9554 184.531 99.4447 184.261C99.4447 184.261 99.4447 184.261 99.4547 184.261C101.322 183.252 103.33 183.182 105.367 183.412C109.462 183.862 113.307 185.251 117.152 186.601C123.543 188.84 129.875 191.299 136.556 192.589C138.174 192.899 139.812 193.159 141.45 193.369C141.78 193.409 142.309 193.179 142.499 192.899C148.241 184.142 156.62 179.203 166.428 176.344C174.867 173.885 183.495 173.175 192.244 173.665C192.344 173.665 192.434 173.705 192.763 173.775C192.284 174.035 191.954 174.215 191.625 174.385C186.561 177.074 182.097 180.493 178.632 185.121C176.015 188.63 174.357 192.529 173.978 196.917C173.938 197.317 173.948 197.717 173.928 198.287C176.175 198.007 178.342 197.767 180.489 197.467C190.646 196.048 200.553 193.629 209.931 189.38C220.257 184.701 229.186 178.233 235.567 168.686C241.28 160.129 244.156 150.712 243.407 140.355C243.277 138.616 242.878 136.887 242.458 135.187C241.719 132.158 239.702 130.209 236.766 129.459C233.47 128.619 230.124 128.019 226.779 127.43C222.335 126.65 217.99 125.68 214.095 123.241C209.551 120.392 206.465 115.313 205.527 110.045C208.043 113.384 211.609 113.934 215.264 113.924C219.069 113.914 222.874 113.584 226.679 113.424C227.787 113.374 228.906 113.374 230.015 113.444C231.702 113.554 233.36 113.874 234.858 114.993C234.799 114.084 234.659 113.264 234.708 112.454C234.798 110.625 235.537 108.985 236.456 107.436C237.405 105.846 238.404 104.287 239.372 102.697C242.568 97.4691 243.847 93.2004 241.52 86.8224C242.648 87.9721 243.817 89.0917 244.905 90.2813C250.298 96.1594 252.016 103.047 250.518 110.825C249.929 113.874 249.33 116.913 248.81 119.982C247.901 125.36 248.74 130.489 251.397 135.247C257.229 145.694 259.316 156.96 258.228 168.746C255.991 192.969 244.875 212.423 225.88 227.438C220.377 231.786 214.255 235.145 207.754 237.785C207.444 237.914 207.124 238.034 206.815 238.174C206.755 238.194 206.715 238.254 206.545 238.414C212.358 245.612 220.018 249.741 228.636 252.61C226.409 253.03 224.192 253.529 221.955 253.869C213.646 255.129 205.357 254.999 197.128 253.27C189.657 251.69 182.726 248.821 176.425 244.452C175.915 244.103 175.196 243.883 174.577 243.883C163.591 243.853 152.945 242.133 142.898 237.535C128.717 231.047 118.41 220.55 111.639 206.584C110.201 203.595 108.343 201.056 105.996 198.777C103.899 196.738 101.852 194.638 99.8841 192.469C98.9952 191.499 98.2763 190.38 97.737 189.18V189.15C97.2177 188.05 98.466 186.981 99.4747 187.64C104.328 190.789 110.44 194.068 117.921 196.848C118.35 197.007 118.83 196.788 118.989 196.358L118.969 196.338Z" fill="#4A4A4A"/>
</g>
<path d="M166.337 155.021L159.966 148.533L154.043 142.495H154.033C153.604 142.945 142.259 154.761 142.249 154.761C140.052 157.05 139.053 160.649 140.241 163.618C140.401 164.038 140.611 164.438 140.861 164.818C141.09 165.168 141.35 165.497 141.63 165.797C141.64 165.807 141.65 165.817 141.67 165.837C143.457 167.777 146.264 168.816 148.87 168.646C151.497 168.477 154.623 166.847 155.382 164.138C155.761 162.788 155.432 161.369 154.842 160.139C154.842 160.139 154.503 159.189 153.544 158.42C152.585 157.64 150.997 157.06 148.481 157.83L147.282 158.24L144.066 159.329C143.537 159.489 143.038 159.149 142.898 158.7C142.808 158.46 142.828 158.2 142.988 157.95C143.207 157.59 144.556 156.68 145.215 156.23C145.215 156.23 145.904 155.401 146.503 154.501C147.442 153.081 148.85 152.002 150.528 151.632C151.786 151.362 153.394 151.382 155.312 152.102C156.41 152.512 157.609 153.141 158.917 154.081C159.157 154.251 159.436 154.371 159.726 154.391C160.155 154.421 160.865 154.551 161.524 155.041C162.243 155.571 162.902 156.52 163.072 158.25C163.072 158.25 161.803 156.79 159.766 156.91C159.726 156.91 159.696 156.91 159.656 156.91C159.656 156.91 159.736 156.95 159.876 157.04C160.355 157.38 161.484 158.46 161.224 160.969C161.224 160.969 161.074 163.538 158.628 165.927C158.098 166.457 158.048 167.207 158.358 167.767C158.578 168.177 158.977 168.477 159.506 168.547H159.536C162.832 168.966 165.838 166.947 167.396 164.138C169.084 161.089 168.844 157.58 166.337 155.031V155.021ZM154.073 145.354L156.241 147.753L154.123 150.232L153.514 149.582L151.866 147.833L154.033 145.394L154.073 145.354Z" fill="#292929"/>
<path d="M160.215 173.295C160.215 173.615 159.966 173.875 159.646 173.875L151.307 173.965C150.987 173.965 150.728 173.715 150.728 173.395C150.728 173.205 150.828 173.015 150.987 172.905C151.267 172.725 151.666 172.805 151.976 172.695C152.266 172.595 152.525 172.435 152.755 172.235C153.234 171.825 153.574 171.266 153.874 170.726C154.014 170.476 154.133 170.226 154.273 169.986C154.723 169.136 155.142 168.257 155.491 167.357C155.971 168.796 156.63 170.126 157.429 171.416C157.739 171.925 158.198 172.345 158.757 172.555C159.037 172.665 159.337 172.715 159.636 172.735C159.936 172.755 160.196 172.975 160.196 173.295H160.215Z" fill="#292929"/>
<path d="M165.708 154.401L159.956 148.543L154.033 142.505L153.414 141.875C153.414 141.875 141.63 154.141 141.62 154.141C139.223 156.64 138.244 160.699 139.992 163.808C140.062 163.938 140.142 164.068 140.232 164.198C140.621 164.788 141.09 165.328 141.64 165.797C141.65 165.807 141.66 165.817 141.68 165.837C143.467 167.367 145.944 168.177 148.251 168.017C150.877 167.847 154.003 166.217 154.762 163.508C155.142 162.158 154.812 160.739 154.223 159.509C154.223 159.509 154.033 158.99 153.564 158.41C152.845 157.53 151.447 156.52 149 156.92C148.65 156.98 148.271 157.07 147.871 157.19L143.457 158.69C143.268 158.75 143.078 158.74 142.918 158.69C142.369 158.52 142.019 157.87 142.369 157.32C142.588 156.97 143.947 156.05 144.596 155.601C144.596 155.601 145.285 154.771 145.884 153.871C146.823 152.452 148.241 151.372 149.909 151.002C151.367 150.692 153.284 150.762 155.621 151.862C156.46 152.242 157.349 152.762 158.298 153.441C158.538 153.621 158.817 153.731 159.107 153.751C159.686 153.791 160.755 154.011 161.534 155.021C161.973 155.591 162.333 156.42 162.443 157.6C162.443 157.6 161.134 156.09 159.037 156.26C159.037 156.26 159.396 156.42 159.776 156.88C159.816 156.92 159.846 156.97 159.886 157.02C160.345 157.63 160.775 158.66 160.605 160.329C160.605 160.329 160.455 162.898 158.008 165.288C157.229 166.047 157.489 167.297 158.368 167.747C158.518 167.827 158.687 167.877 158.877 167.907H158.907C162.213 168.327 165.209 166.307 166.767 163.498C168.455 160.449 168.215 156.94 165.708 154.391V154.401ZM153.494 149.602L151.237 147.203L153.444 144.724L154.043 145.384L155.621 147.113L153.524 149.563L153.504 149.582L153.494 149.602Z" fill="url(#paint5_radial_1_1588)"/>
<path d="M159.576 172.675C159.576 172.995 159.327 173.255 159.007 173.255L150.668 173.345C150.348 173.345 150.089 173.095 150.089 172.775C150.089 172.585 150.189 172.395 150.348 172.285C150.628 172.105 151.027 172.185 151.337 172.075C151.627 171.975 151.886 171.815 152.116 171.616C152.595 171.206 152.935 170.646 153.234 170.106C153.374 169.856 153.494 169.606 153.634 169.366C154.083 168.517 154.503 167.637 154.852 166.737C155.332 168.177 155.991 169.506 156.79 170.796C157.099 171.306 157.559 171.726 158.118 171.935C158.398 172.045 158.697 172.095 158.997 172.115C159.297 172.135 159.556 172.355 159.556 172.675H159.576Z" fill="url(#paint6_radial_1_1588)"/>
<g opacity="0.69">
<path d="M165.708 154.401L159.956 148.543L154.033 142.505L153.414 141.875C153.414 141.875 141.63 154.141 141.62 154.141C139.223 156.64 138.244 160.699 139.992 163.808C140.062 163.938 140.142 164.068 140.232 164.198C140.621 164.788 141.09 165.328 141.64 165.797C141.65 165.807 141.66 165.817 141.68 165.837C143.467 167.367 145.944 168.177 148.251 168.017C150.877 167.847 154.003 166.217 154.762 163.508C155.142 162.158 154.812 160.739 154.223 159.509C154.223 159.509 154.033 158.99 153.564 158.41C152.845 157.53 151.447 156.52 149 156.92C148.65 156.98 148.271 157.07 147.871 157.19L143.457 158.69C143.268 158.75 143.078 158.74 142.918 158.69C142.369 158.52 142.019 157.87 142.369 157.32C142.588 156.97 143.947 156.05 144.596 155.601C144.596 155.601 145.285 154.771 145.884 153.871C146.823 152.452 148.241 151.372 149.909 151.002C151.367 150.692 153.284 150.762 155.621 151.862C156.46 152.242 157.349 152.762 158.298 153.441C158.538 153.621 158.817 153.731 159.107 153.751C159.686 153.791 160.755 154.011 161.534 155.021C161.973 155.591 162.333 156.42 162.443 157.6C162.443 157.6 161.134 156.09 159.037 156.26C159.037 156.26 159.396 156.42 159.776 156.88C159.816 156.92 159.846 156.97 159.886 157.02C160.345 157.63 160.775 158.66 160.605 160.329C160.605 160.329 160.455 162.898 158.008 165.288C157.229 166.047 157.489 167.297 158.368 167.747C158.518 167.827 158.687 167.877 158.877 167.907H158.907C162.213 168.327 165.209 166.307 166.767 163.498C168.455 160.449 168.215 156.94 165.708 154.391V154.401ZM153.494 149.602L151.237 147.203L153.444 144.724L154.043 145.384L155.621 147.113L153.524 149.563L153.504 149.582L153.494 149.602Z" fill="#4A4A4A"/>
<path d="M159.576 172.675C159.576 172.995 159.327 173.255 159.007 173.255L150.668 173.345C150.348 173.345 150.089 173.095 150.089 172.775C150.089 172.585 150.189 172.395 150.348 172.285C150.628 172.105 151.027 172.185 151.337 172.075C151.627 171.975 151.886 171.815 152.116 171.616C152.595 171.206 152.935 170.646 153.234 170.106C153.374 169.856 153.494 169.606 153.634 169.366C154.083 168.517 154.503 167.637 154.852 166.737C155.332 168.177 155.991 169.506 156.79 170.796C157.099 171.306 157.559 171.726 158.118 171.935C158.398 172.045 158.697 172.095 158.997 172.115C159.297 172.135 159.556 172.355 159.556 172.675H159.576Z" fill="#4A4A4A"/>
</g>
<path d="M255.481 38.5678L253.724 40.0973L250.797 42.6365L248.58 44.5659L137.585 140.855L135.398 142.755L90.1766 181.982L88.0992 183.792L31.1834 233.176L28.4469 235.555L25.5308 238.084L24.2525 239.194C13.1669 221.78 5.47704 201.976 2.15137 180.723L2.59074 180.343L5.91624 177.464L9.12227 174.655L110.61 86.5026L111.259 85.9427L129.106 70.4177H129.126L133.42 66.6689H133.43L149.499 52.7033L150.258 52.0635L161.264 42.4965L161.304 42.4765L193.732 14.3055L196.428 11.9662L198.895 9.82689L201.492 7.56763C221.645 14.1655 239.971 24.8221 255.491 38.5778L255.481 38.5678Z" fill="url(#paint7_linear_1_1588)"/>
<path d="M307.204 149.103L307.094 149.203L300.852 154.561L297.896 157.1L197.756 243.253L195.4 245.282L185.103 254.149L183.275 255.729L182.576 256.319L179.66 258.818L171.461 265.876L168.684 268.265L134.249 297.895L130.764 300.874L126.17 304.833L123.263 307.342C109.501 304.563 96.3986 299.945 84.2444 293.747L86.5015 291.807L90.0866 288.728L93.003 286.209L125.8 257.988L128.017 256.079L138.174 247.352L140.142 245.642L147.861 239.014L151.027 236.305L164.32 224.869L167.316 222.289L224.172 173.375L226.1 171.726H226.12L250.508 150.722L253.005 148.563L292.583 114.524L295 112.454L299.574 108.506L300.353 107.836C304.437 120.922 306.804 134.767 307.214 149.093L307.204 149.103Z" fill="url(#paint8_linear_1_1588)"/>
<path d="M307.284 156.73C307.284 241.583 238.563 310.371 153.784 310.371C143.337 310.371 133.131 309.321 123.273 307.332C109.511 304.553 96.4086 299.934 84.2544 293.736C59.7164 281.23 38.9633 262.316 24.2525 239.193C13.1669 221.779 5.47704 201.975 2.15138 180.722C0.912989 172.905 0.283691 164.887 0.283691 156.73C0.283691 156.36 0.283701 156 0.293688 155.63V154.74C1.3623 70.787 69.6633 3.06848 153.774 3.06848C169.483 3.06848 184.634 5.42773 198.895 9.81634C219.318 16.0943 237.914 26.521 253.724 40.1067C274.666 58.111 290.715 81.6735 299.564 108.505C303.818 121.401 306.415 135.047 307.104 149.192C307.184 151.032 307.254 152.881 307.274 154.74V155.63C307.284 156 307.284 156.36 307.284 156.73Z" fill="url(#paint9_linear_1_1588)" style="mix-blend-mode:difference"/>
<defs>
<linearGradient id="paint0_linear_1_1588" x1="103.789" y1="302.044" x2="203.945" y2="11.4671" gradientUnits="userSpaceOnUse">
<stop stop-color="#A7A7A7"/>
<stop offset="0.51" stop-color="#BABABA"/>
<stop offset="1" stop-color="#D2D2D2"/>
</linearGradient>
<linearGradient id="paint1_linear_1_1588" x1="153.674" y1="14.8653" x2="153.674" y2="299.205" gradientUnits="userSpaceOnUse">
<stop stop-color="#3B3B3B"/>
<stop offset="0.22" stop-color="#4F4F4F"/>
<stop offset="0.58" stop-color="#787878"/>
<stop offset="1" stop-color="#EAEAEA"/>
</linearGradient>
<linearGradient id="paint2_linear_1_1588" x1="108.742" y1="288.448" x2="199.384" y2="25.4768" gradientUnits="userSpaceOnUse">
<stop stop-color="#A7A7A7"/>
<stop offset="0.51" stop-color="#BABABA"/>
<stop offset="1" stop-color="#D2D2D2"/>
</linearGradient>
<radialGradient id="paint3_radial_1_1588" cx="0" cy="0" r="1" gradientUnits="userSpaceOnUse" gradientTransform="translate(125.355 149.262) rotate(19.788) scale(81.5729 81.6349)">
<stop stop-color="white"/>
<stop offset="0.6" stop-color="#DDDDDD"/>
<stop offset="1" stop-color="#CCCCCC"/>
</radialGradient>
<radialGradient id="paint4_radial_1_1588" cx="0" cy="0" r="1" gradientUnits="userSpaceOnUse" gradientTransform="translate(185.953 160.314) rotate(19.788) scale(80.9636 81.0251)">
<stop stop-color="white"/>
<stop offset="0.6" stop-color="#DDDDDD"/>
<stop offset="1" stop-color="#CCCCCC"/>
</radialGradient>
<radialGradient id="paint5_radial_1_1588" cx="0" cy="0" r="1" gradientUnits="userSpaceOnUse" gradientTransform="translate(153.474 154.951) scale(13.7321 13.7456)">
<stop stop-color="white"/>
<stop offset="0.6" stop-color="#DDDDDD"/>
<stop offset="1" stop-color="#CCCCCC"/>
</radialGradient>
<radialGradient id="paint6_radial_1_1588" cx="0" cy="0" r="1" gradientUnits="userSpaceOnUse" gradientTransform="translate(154.842 170.036) scale(4.08468 4.0887)">
<stop stop-color="white"/>
<stop offset="0.6" stop-color="#DDDDDD"/>
<stop offset="1" stop-color="#CCCCCC"/>
</radialGradient>
<linearGradient id="paint7_linear_1_1588" x1="-48.9221" y1="274.043" x2="225.509" y2="20.7229" gradientUnits="userSpaceOnUse">
<stop stop-color="white" stop-opacity="0"/>
<stop offset="1" stop-color="white" stop-opacity="0.3"/>
</linearGradient>
<linearGradient id="paint8_linear_1_1588" x1="42.5587" y1="363.085" x2="316.53" y2="110.194" gradientUnits="userSpaceOnUse">
<stop stop-color="white" stop-opacity="0"/>
<stop offset="1" stop-color="white" stop-opacity="0.3"/>
</linearGradient>
<linearGradient id="paint9_linear_1_1588" x1="103.789" y1="302.044" x2="203.945" y2="11.4665" gradientUnits="userSpaceOnUse">
<stop stop-color="#EDEDED"/>
<stop offset="0.51" stop-color="#E8E8E8"/>
<stop offset="1" stop-color="#F2F2F2"/>
</linearGradient>
</defs>
</svg>
