<svg width="11" height="11" viewBox="0 0 11 11" fill="none" xmlns="http://www.w3.org/2000/svg">
<g clip-path="url(#clip0_0_732)">
<path d="M10.8602 2.00012C10.863 1.97185 10.863 1.94338 10.8602 1.91512C10.8602 1.06512 8.64016 0.370117 5.89516 0.370117C3.15016 0.370117 0.950158 1.07012 0.950158 1.92012C0.947391 1.95673 0.947391 1.9935 0.950158 2.03012C0.943075 2.0204 0.936402 2.01039 0.930158 2.00012V3.27512C0.930158 3.55012 1.23516 3.85012 1.77016 4.12512C1.77016 4.12512 3.08516 4.91512 5.90016 4.94512C7.08908 4.96029 8.27214 4.77607 9.40016 4.40012C10.3102 4.08012 10.8552 3.67012 10.8552 3.30512V2.02512C10.8576 2.01022 10.8576 1.99502 10.8552 1.98012C10.8585 1.98623 10.8603 1.99313 10.8602 2.00012ZM2.18516 1.65512C2.55016 1.15512 4.07516 0.800117 5.90016 0.800117C7.72516 0.800117 9.29016 1.17512 9.63016 1.67012C9.67398 1.72964 9.69842 1.80122 9.70016 1.87512C9.70016 1.87512 9.70016 2.06512 9.70016 2.08012C9.63903 2.02021 9.57203 1.9666 9.50016 1.92012C8.96516 1.54012 7.55016 1.32012 5.91016 1.32012C4.27016 1.32012 2.91016 1.52012 2.36016 1.89012C2.26771 1.93818 2.18472 2.00255 2.11516 2.08012V1.87512C2.11544 1.79635 2.13987 1.71956 2.18516 1.65512ZM9.94516 4.88512V6.16012C9.94516 6.52512 9.40516 6.93512 8.49016 7.26012C7.36248 7.63698 6.17898 7.81958 4.99016 7.80012C2.15516 7.77012 0.840158 7.00012 0.840158 7.00012C0.305158 6.71012 0.000158002 6.41012 0.000158002 6.13512V4.88512C-0.00226848 4.87021 -0.00226848 4.85502 0.000158002 4.84012C-0.00265683 4.81352 -0.00265683 4.78671 0.000158002 4.76012C0.000158002 4.50012 0.285158 4.19012 0.775158 3.95012V4.00012C0.775158 4.29012 1.11016 4.60512 1.70016 4.89012C1.70016 4.89012 2.99016 5.58012 5.75016 5.66512C6.93996 5.69961 8.12607 5.51661 9.25016 5.12512C9.47629 5.04696 9.69681 4.95341 9.91016 4.84512C9.90373 4.89349 9.89025 4.94065 9.87016 4.98512C9.8943 4.94208 9.91439 4.89688 9.93016 4.85012L9.94516 4.88512ZM11.0002 7.70512V8.95512C11.0002 9.23012 10.6952 9.53012 10.1602 9.80512C10.1602 9.80512 8.84516 10.5901 6.02516 10.6201C4.83633 10.6396 3.65284 10.457 2.52516 10.0801C1.59516 9.76012 1.05516 9.35012 1.05516 9.00012V7.66012C1.06803 7.69599 1.08305 7.73106 1.10016 7.76512C1.29935 7.86493 1.50477 7.95178 1.71516 8.02512C2.83983 8.41423 4.0255 8.59716 5.21516 8.56512C7.97516 8.47512 9.26516 7.79012 9.26516 7.79012C9.85016 7.50512 10.1902 7.19012 10.1902 6.90012V6.86012C10.6902 7.10012 10.9602 7.36012 10.9602 7.68512V7.65512C10.9772 7.66847 10.9909 7.68558 11.0002 7.70512Z" fill="#E9B10E"/>
</g>
<defs>
<clipPath id="clip0_0_732">
<rect width="11" height="11" fill="white"/>
</clipPath>
</defs>
</svg>
