<svg width="21" height="17" viewBox="0 0 21 17" fill="none" xmlns="http://www.w3.org/2000/svg">
<path d="M19.4251 6.50001H15.5289C15.9453 7.4247 15.7625 8.53751 14.971 9.2913L10.5 13.5494V15C10.5 15.8285 11.2052 16.5 12.075 16.5H19.4251C20.2949 16.5 21 15.8285 21 15V8.00001C21 7.17157 20.2949 6.50001 19.4251 6.50001ZM15.75 12.2501C15.3153 12.2501 14.9625 11.9141 14.9625 11.5C14.9625 11.0857 15.3153 10.75 15.75 10.75C16.1848 10.75 16.5376 11.0857 16.5376 11.5C16.5376 11.9141 16.1848 12.2501 15.75 12.2501ZM14.2285 6.41563L8.48861 0.949064C7.85992 0.350312 6.84043 0.350312 6.21175 0.949064L0.471517 6.41563C-0.157172 7.01439 -0.157172 7.98532 0.471517 8.58408L6.21141 14.051C6.84011 14.6497 7.85958 14.6497 8.48828 14.051L14.2285 8.58439C14.8572 7.98532 14.8572 7.01439 14.2285 6.41563ZM3.15 8.25001C2.71523 8.25001 2.36251 7.91407 2.36251 7.50001C2.36251 7.08563 2.71523 6.75001 3.15 6.75001C3.58477 6.75001 3.9375 7.08563 3.9375 7.50001C3.9375 7.91407 3.58477 8.25001 3.15 8.25001ZM7.35001 12.2501C6.91524 12.2501 6.56251 11.9141 6.56251 11.5C6.56251 11.0857 6.91524 10.75 7.35001 10.75C7.78477 10.75 8.13751 11.0857 8.13751 11.5C8.13751 11.9141 7.78477 12.2501 7.35001 12.2501ZM7.35001 8.25001C6.91524 8.25001 6.56251 7.91407 6.56251 7.50001C6.56251 7.08563 6.91524 6.75001 7.35001 6.75001C7.78477 6.75001 8.13751 7.08563 8.13751 7.50001C8.13751 7.91407 7.78477 8.25001 7.35001 8.25001ZM7.35001 4.25C6.91524 4.25 6.56251 3.91406 6.56251 3.5C6.56251 3.08563 6.91524 2.75001 7.35001 2.75001C7.78477 2.75001 8.13751 3.08563 8.13751 3.5C8.13751 3.91406 7.78477 4.25 7.35001 4.25ZM11.55 8.25001C11.1152 8.25001 10.7625 7.91407 10.7625 7.50001C10.7625 7.08563 11.1152 6.75001 11.55 6.75001C11.9848 6.75001 12.3376 7.08563 12.3376 7.50001C12.3376 7.91407 11.9848 8.25001 11.55 8.25001Z" fill="white"/>
</svg>
