<svg width="308" height="311" viewBox="0 0 308 311" fill="none" xmlns="http://www.w3.org/2000/svg">
<path d="M282.633 74.347C282.893 74.787 283.164 75.227 283.404 75.667C283.773 76.287 284.133 76.927 284.493 77.557L284.603 77.737C284.873 78.217 285.123 78.6771 285.373 79.1471C324.463 150.597 300.243 240.697 229.654 282.647C218.004 289.577 205.813 294.757 193.363 298.287C180.473 301.937 167.323 303.807 154.233 303.997C128.133 304.357 102.293 297.977 79.3735 285.527C62.5135 276.377 47.2435 263.977 34.6035 248.537C30.5935 243.657 26.8435 238.467 23.3935 232.987L23.2835 232.807C22.9035 232.187 22.5135 231.577 22.1435 230.947C21.8735 230.527 21.6135 230.087 21.3535 229.637C-21.5165 157.497 2.18349 64.237 74.3535 21.347C94.2235 9.53704 115.673 2.78703 137.253 0.717033C156.863 -1.20297 176.573 0.757029 195.233 6.30703C220.283 13.717 243.453 27.577 262.083 47.157C269.763 55.257 276.693 64.327 282.643 74.337L282.633 74.347Z" fill="#A37417"/>
<path d="M286.523 80.8971C329.404 153.047 305.703 246.287 233.523 289.187C219.574 297.477 204.823 303.287 189.803 306.707C177.123 309.627 164.253 310.857 151.503 310.487C125.613 309.717 100.223 302.337 77.9035 289.047C61.2435 279.097 46.3135 265.857 34.1635 249.557C30.9935 245.317 28.0035 240.847 25.2335 236.187C24.8435 235.527 24.4535 234.877 24.0935 234.207C23.8435 233.787 23.6035 233.387 23.3835 232.977L23.2735 232.797C-16.8965 161.127 7.21347 70.1371 78.2535 27.9271C95.9835 17.3971 114.963 10.8771 134.183 8.11708C154.023 5.24708 174.073 6.38708 193.183 11.2171C218.413 17.6071 242.014 30.4171 261.284 49.0171C269.974 57.3671 277.793 66.9071 284.493 77.5471L284.603 77.7271C284.853 78.1271 285.094 78.5271 285.344 78.9371C285.384 78.9671 285.404 79.0071 285.404 79.0371C285.794 79.6371 286.164 80.2571 286.534 80.8771L286.523 80.8971Z" fill="#6D3C1B"/>
<path d="M284.183 76.957C284.573 77.617 284.974 78.287 285.333 78.947C285.374 78.977 285.393 79.017 285.393 79.047C326.613 150.917 302.663 242.767 231.183 285.247C218.603 292.717 205.393 298.167 191.923 301.687C179.123 305.057 166.083 306.657 153.133 306.597C127.113 306.527 101.464 299.757 78.7735 286.947C62.0035 277.507 46.8535 264.757 34.4035 248.977C30.7235 244.317 27.2735 239.407 24.0935 234.217C23.6835 233.587 23.2835 232.917 22.8935 232.257C22.6335 231.827 22.3735 231.387 22.1335 230.947C-19.6965 158.997 4.16351 66.607 75.8935 23.977C94.9235 12.667 115.393 5.98703 136.033 3.61703C155.733 1.34703 175.583 2.97705 194.423 8.22705C219.533 15.247 242.873 28.687 261.753 47.877C269.863 56.097 277.154 65.367 283.393 75.667C283.663 76.087 283.923 76.527 284.183 76.957Z" fill="url(#paint0_linear_1_1363)"/>
<path d="M274.474 83.0871C314.154 149.857 292.203 236.137 225.443 275.817C158.683 315.497 72.4035 293.537 32.7235 226.767C-6.94653 160.017 15.0035 73.727 81.7535 34.057C148.503 -5.61295 234.794 16.3371 274.464 83.0871H274.474Z" fill="url(#paint1_linear_1_1363)" stroke="#281401" stroke-width="0.04" stroke-miterlimit="10"/>
<path d="M272.063 84.3971C310.873 149.697 289.384 234.097 224.094 272.907C158.794 311.717 74.4035 290.247 35.5935 224.947C-3.21652 159.647 18.2535 75.2571 83.5535 36.4471C148.854 -2.36292 233.253 19.0971 272.063 84.3971Z" fill="url(#paint2_linear_1_1363)"/>
<g style="mix-blend-mode:multiply">
<path d="M270.244 113.857C269.654 115.527 268.464 116.697 267.084 117.697C264.304 119.717 261.154 121.017 258.034 122.337C253.644 124.207 249.214 125.947 245.034 128.217L244.984 128.247C244.554 128.507 244.094 128.717 243.654 128.967C235.484 133.437 227.264 137.957 220.204 144.097C204.964 157.367 191.994 178.877 195.154 199.807C196.434 208.287 199.934 215.677 206.204 221.637C207.264 222.637 208.484 223.467 209.684 224.277C211.844 225.727 214.184 225.797 216.404 224.607C218.904 223.287 221.314 221.767 223.694 220.257C226.864 218.247 230.094 216.397 233.854 215.727C238.253 214.927 243.004 216.317 246.524 219.027C243.104 218.397 240.604 220.047 238.374 222.117C236.034 224.257 233.864 226.597 231.624 228.827C230.964 229.477 230.274 230.107 229.554 230.677C228.444 231.557 227.264 232.277 225.714 232.447C226.264 232.967 226.794 233.397 227.224 233.917C228.184 235.107 228.664 236.527 228.964 237.997C229.254 239.507 229.524 241.037 229.814 242.547C230.774 247.547 232.374 250.887 237.394 253.517C236.044 253.437 234.704 253.407 233.374 253.287C226.754 252.697 221.834 249.407 218.394 243.787C217.044 241.577 215.714 239.367 214.324 237.207C211.874 233.387 208.474 230.697 204.154 229.267C202.124 228.587 200.164 227.787 198.314 226.877C198.234 228.937 198.014 231.027 197.644 233.147C196.834 237.617 197.584 241.887 199.764 245.877C200.994 248.137 202.304 250.367 203.594 252.597C206.894 258.297 207.424 264.197 204.784 270.297C204.254 271.527 203.634 272.717 203.064 273.937C203.164 268.267 200.994 265.267 197.054 262.037C195.864 261.057 194.654 260.097 193.464 259.107C192.324 258.137 191.304 257.037 190.714 255.627C190.474 254.997 190.344 254.327 190.154 253.597C189.264 254.877 188.064 255.567 186.764 256.127C185.914 256.487 185.034 256.787 184.144 257.057C181.104 257.967 178.024 258.757 175.024 259.787C172.144 260.767 169.494 262.177 168.414 265.477C167.714 261.087 168.764 256.257 171.564 252.767C173.954 249.787 177.114 247.837 180.394 246.017C182.854 244.647 185.354 243.257 187.704 241.687C189.814 240.307 190.864 238.217 190.624 235.627C190.484 234.187 190.344 232.717 189.964 231.307C187.734 222.957 182.904 216.347 176.074 211.167C159.204 198.387 134.124 199.497 115.164 206.547C106.404 209.817 98.5035 214.877 90.6835 219.907C90.2535 220.177 89.8535 220.477 89.4035 220.747L89.3535 220.777C85.3635 223.367 81.7135 226.437 77.9735 229.387C75.3235 231.497 72.6735 233.637 69.5735 235.117C68.0335 235.847 66.4335 236.337 64.6935 236.057C62.7635 235.737 61.7935 234.597 61.9835 232.667C62.0835 231.657 62.3035 230.587 62.7035 229.657C63.6935 227.367 64.7335 225.097 65.8735 222.867C67.0935 220.437 67.8535 217.937 68.1835 215.187C69.7135 202.367 74.9535 191.297 84.3535 182.317C91.0035 175.957 98.9235 171.707 107.564 168.687C108.054 168.527 108.564 168.147 108.874 167.747C112.624 162.587 117.314 158.447 122.754 155.167C128.764 151.557 135.254 149.187 142.144 147.917C143.994 147.567 145.874 147.347 147.754 147.077C141.754 151.687 136.844 157.027 134.234 164.277C134.404 164.347 134.464 164.377 134.514 164.387C134.784 164.407 135.064 164.427 135.354 164.437C141.194 164.727 146.924 165.697 152.444 167.627C157.754 169.477 162.694 171.767 167.214 174.497C166.954 169.227 167.304 163.797 168.224 158.247C169.174 152.477 171.054 146.977 173.594 141.717C173.714 141.457 173.844 141.207 173.944 140.957C173.964 140.907 173.964 140.837 173.984 140.657C166.374 139.477 159.334 141.237 152.414 144.307C153.544 142.787 154.644 141.237 155.834 139.787C160.244 134.347 165.424 129.777 171.474 126.217C176.944 122.997 182.824 120.867 189.154 120.037C189.654 119.957 190.234 119.687 190.604 119.337C197.383 113.197 204.904 108.267 213.664 105.467C226.044 101.497 238.274 102.187 250.264 106.977C252.834 107.997 255.404 108.527 258.114 108.617C260.614 108.687 263.114 108.857 265.594 109.087C266.604 109.187 267.654 109.497 268.584 109.897C270.374 110.647 270.914 112.057 270.264 113.897L270.244 113.857Z" fill="#3A2415"/>
<path d="M268.344 116.817C267.754 118.487 266.563 119.657 265.183 120.657C262.403 122.677 259.253 123.977 256.133 125.297C251.743 127.167 247.313 128.907 243.133 131.177L243.084 131.207C242.654 131.467 242.193 131.677 241.753 131.927C233.583 136.397 225.363 140.917 218.303 147.057C203.063 160.327 190.093 181.837 193.253 202.767C194.533 211.247 198.033 218.637 204.303 224.597C205.363 225.597 206.584 226.427 207.784 227.237C209.944 228.687 212.283 228.757 214.503 227.567C217.003 226.247 219.413 224.727 221.793 223.217C224.963 221.207 228.194 219.357 231.954 218.687C236.354 217.887 241.103 219.277 244.623 221.987C241.203 221.357 238.704 223.007 236.474 225.077C234.134 227.217 231.964 229.557 229.724 231.787C229.064 232.437 228.374 233.067 227.654 233.637C226.544 234.517 225.363 235.237 223.813 235.407C224.363 235.927 224.894 236.357 225.324 236.877C226.284 238.067 226.763 239.487 227.063 240.957C227.353 242.467 227.624 243.997 227.914 245.507C228.874 250.507 230.473 253.847 235.493 256.477C234.143 256.397 232.804 256.367 231.474 256.247C224.854 255.657 219.933 252.367 216.493 246.747C215.143 244.537 213.813 242.327 212.423 240.167C209.973 236.347 206.574 233.657 202.253 232.227C200.223 231.547 198.264 230.747 196.414 229.837C196.334 231.897 196.113 233.987 195.743 236.107C194.933 240.577 195.683 244.847 197.863 248.837C199.093 251.097 200.404 253.327 201.693 255.557C204.993 261.257 205.523 267.157 202.883 273.257C202.354 274.487 201.734 275.677 201.164 276.897C201.264 271.227 199.094 268.227 195.154 264.997C193.964 264.017 192.753 263.057 191.563 262.067C190.423 261.097 189.403 259.997 188.813 258.587C188.573 257.957 188.443 257.287 188.253 256.557C187.363 257.837 186.163 258.527 184.863 259.087C184.013 259.447 183.133 259.747 182.243 260.017C179.203 260.927 176.123 261.717 173.123 262.747C170.243 263.727 167.594 265.137 166.514 268.437C165.814 264.047 166.863 259.217 169.663 255.727C172.053 252.747 175.213 250.797 178.493 248.977C180.953 247.607 183.453 246.217 185.803 244.647C187.913 243.267 188.964 241.177 188.724 238.587C188.584 237.147 188.443 235.677 188.063 234.267C185.833 225.917 181.004 219.307 174.174 214.127C157.304 201.347 132.224 202.457 113.264 209.507C104.504 212.777 96.6035 217.837 88.7835 222.867C88.3535 223.137 87.9535 223.437 87.5035 223.707L87.4535 223.737C83.4635 226.327 79.8135 229.397 76.0735 232.347C73.4235 234.457 70.7735 236.597 67.6735 238.077C66.1335 238.807 64.5335 239.297 62.7935 239.017C60.8635 238.697 59.8935 237.557 60.0835 235.627C60.1835 234.617 60.4035 233.547 60.8035 232.617C61.7935 230.327 62.8335 228.057 63.9735 225.827C65.1935 223.397 65.9535 220.897 66.2835 218.147C67.8135 205.327 73.0535 194.257 82.4535 185.277C89.1035 178.917 97.0235 174.667 105.663 171.647C106.153 171.487 106.663 171.107 106.973 170.707C110.723 165.547 115.414 161.407 120.854 158.127C126.864 154.517 133.353 152.147 140.243 150.877C142.093 150.527 143.974 150.307 145.854 150.037C139.854 154.647 134.944 159.987 132.334 167.237C132.504 167.307 132.564 167.337 132.614 167.347C132.884 167.367 133.164 167.387 133.454 167.397C139.294 167.687 145.024 168.657 150.544 170.587C155.854 172.437 160.793 174.727 165.313 177.457C165.053 172.187 165.404 166.757 166.324 161.207C167.273 155.437 169.153 149.937 171.693 144.677C171.813 144.417 171.944 144.167 172.044 143.917C172.063 143.867 172.064 143.797 172.084 143.617C164.474 142.437 157.434 144.197 150.514 147.267C151.644 145.747 152.743 144.197 153.933 142.747C158.343 137.307 163.523 132.737 169.574 129.177C175.044 125.957 180.923 123.827 187.253 122.997C187.753 122.917 188.334 122.647 188.704 122.297C195.484 116.157 203.004 111.227 211.764 108.427C224.144 104.457 236.373 105.147 248.363 109.937C250.933 110.957 253.504 111.487 256.214 111.577C258.714 111.647 261.214 111.817 263.693 112.047C264.703 112.147 265.753 112.457 266.683 112.857C268.473 113.607 269.013 115.017 268.363 116.857L268.344 116.817Z" fill="url(#paint3_radial_1_1363)"/>
<path opacity="0.85" d="M268.344 116.817C267.754 118.487 266.563 119.657 265.183 120.657C262.403 122.677 259.253 123.977 256.133 125.297C251.743 127.167 247.313 128.907 243.133 131.177L243.084 131.207C242.654 131.467 242.193 131.677 241.753 131.927C233.583 136.397 225.363 140.917 218.303 147.057C203.063 160.327 190.093 181.837 193.253 202.767C194.533 211.247 198.033 218.637 204.303 224.597C205.363 225.597 206.584 226.427 207.784 227.237C209.944 228.687 212.283 228.757 214.503 227.567C217.003 226.247 219.413 224.727 221.793 223.217C224.963 221.207 228.194 219.357 231.954 218.687C236.354 217.887 241.103 219.277 244.623 221.987C241.203 221.357 238.704 223.007 236.474 225.077C234.134 227.217 231.964 229.557 229.724 231.787C229.064 232.437 228.374 233.067 227.654 233.637C226.544 234.517 225.363 235.237 223.813 235.407C224.363 235.927 224.894 236.357 225.324 236.877C226.284 238.067 226.763 239.487 227.063 240.957C227.353 242.467 227.624 243.997 227.914 245.507C228.874 250.507 230.473 253.847 235.493 256.477C234.143 256.397 232.804 256.367 231.474 256.247C224.854 255.657 219.933 252.367 216.493 246.747C215.143 244.537 213.813 242.327 212.423 240.167C209.973 236.347 206.574 233.657 202.253 232.227C200.223 231.547 198.264 230.747 196.414 229.837C196.334 231.897 196.113 233.987 195.743 236.107C194.933 240.577 195.683 244.847 197.863 248.837C199.093 251.097 200.404 253.327 201.693 255.557C204.993 261.257 205.523 267.157 202.883 273.257C202.354 274.487 201.734 275.677 201.164 276.897C201.264 271.227 199.094 268.227 195.154 264.997C193.964 264.017 192.753 263.057 191.563 262.067C190.423 261.097 189.403 259.997 188.813 258.587C188.573 257.957 188.443 257.287 188.253 256.557C187.363 257.837 186.163 258.527 184.863 259.087C184.013 259.447 183.133 259.747 182.243 260.017C179.203 260.927 176.123 261.717 173.123 262.747C170.243 263.727 167.594 265.137 166.514 268.437C165.814 264.047 166.863 259.217 169.663 255.727C172.053 252.747 175.213 250.797 178.493 248.977C180.953 247.607 183.453 246.217 185.803 244.647C187.913 243.267 188.964 241.177 188.724 238.587C188.584 237.147 188.443 235.677 188.063 234.267C185.833 225.917 181.004 219.307 174.174 214.127C157.304 201.347 132.224 202.457 113.264 209.507C104.504 212.777 96.6035 217.837 88.7835 222.867C88.3535 223.137 87.9535 223.437 87.5035 223.707L87.4535 223.737C83.4635 226.327 79.8135 229.397 76.0735 232.347C73.4235 234.457 70.7735 236.597 67.6735 238.077C66.1335 238.807 64.5335 239.297 62.7935 239.017C60.8635 238.697 59.8935 237.557 60.0835 235.627C60.1835 234.617 60.4035 233.547 60.8035 232.617C61.7935 230.327 62.8335 228.057 63.9735 225.827C65.1935 223.397 65.9535 220.897 66.2835 218.147C67.8135 205.327 73.0535 194.257 82.4535 185.277C89.1035 178.917 97.0235 174.667 105.663 171.647C106.153 171.487 106.663 171.107 106.973 170.707C110.723 165.547 115.414 161.407 120.854 158.127C126.864 154.517 133.353 152.147 140.243 150.877C142.093 150.527 143.974 150.307 145.854 150.037C139.854 154.647 134.944 159.987 132.334 167.237C132.504 167.307 132.564 167.337 132.614 167.347C132.884 167.367 133.164 167.387 133.454 167.397C139.294 167.687 145.024 168.657 150.544 170.587C155.854 172.437 160.793 174.727 165.313 177.457C165.053 172.187 165.404 166.757 166.324 161.207C167.273 155.437 169.153 149.937 171.693 144.677C171.813 144.417 171.944 144.167 172.044 143.917C172.063 143.867 172.064 143.797 172.084 143.617C164.474 142.437 157.434 144.197 150.514 147.267C151.644 145.747 152.743 144.197 153.933 142.747C158.343 137.307 163.523 132.737 169.574 129.177C175.044 125.957 180.923 123.827 187.253 122.997C187.753 122.917 188.334 122.647 188.704 122.297C195.484 116.157 203.004 111.227 211.764 108.427C224.144 104.457 236.373 105.147 248.363 109.937C250.933 110.957 253.504 111.487 256.214 111.577C258.714 111.647 261.214 111.817 263.693 112.047C264.703 112.147 265.753 112.457 266.683 112.857C268.473 113.607 269.013 115.017 268.363 116.857L268.344 116.817Z" fill="#724401"/>
<g style="mix-blend-mode:hard-light">
<path opacity="0.85" d="M268.344 116.817C267.754 118.487 266.563 119.657 265.183 120.657C262.403 122.677 259.253 123.977 256.133 125.297C251.743 127.167 247.313 128.907 243.133 131.177L243.084 131.207C242.654 131.467 242.193 131.677 241.753 131.927C233.583 136.397 225.363 140.917 218.303 147.057C203.063 160.327 190.093 181.837 193.253 202.767C194.533 211.247 198.033 218.637 204.303 224.597C205.363 225.597 206.584 226.427 207.784 227.237C209.944 228.687 212.283 228.757 214.503 227.567C217.003 226.247 219.413 224.727 221.793 223.217C224.963 221.207 228.194 219.357 231.954 218.687C236.354 217.887 241.103 219.277 244.623 221.987C241.203 221.357 238.704 223.007 236.474 225.077C234.134 227.217 231.964 229.557 229.724 231.787C229.064 232.437 228.374 233.067 227.654 233.637C226.544 234.517 225.363 235.237 223.813 235.407C224.363 235.927 224.894 236.357 225.324 236.877C226.284 238.067 226.763 239.487 227.063 240.957C227.353 242.467 227.624 243.997 227.914 245.507C228.874 250.507 230.473 253.847 235.493 256.477C234.143 256.397 232.804 256.367 231.474 256.247C224.854 255.657 219.933 252.367 216.493 246.747C215.143 244.537 213.813 242.327 212.423 240.167C209.973 236.347 206.574 233.657 202.253 232.227C200.223 231.547 198.264 230.747 196.414 229.837C196.334 231.897 196.113 233.987 195.743 236.107C194.933 240.577 195.683 244.847 197.863 248.837C199.093 251.097 200.404 253.327 201.693 255.557C204.993 261.257 205.523 267.157 202.883 273.257C202.354 274.487 201.734 275.677 201.164 276.897C201.264 271.227 199.094 268.227 195.154 264.997C193.964 264.017 192.753 263.057 191.563 262.067C190.423 261.097 189.403 259.997 188.813 258.587C188.573 257.957 188.443 257.287 188.253 256.557C187.363 257.837 186.163 258.527 184.863 259.087C184.013 259.447 183.133 259.747 182.243 260.017C179.203 260.927 176.123 261.717 173.123 262.747C170.243 263.727 167.594 265.137 166.514 268.437C165.814 264.047 166.863 259.217 169.663 255.727C172.053 252.747 175.213 250.797 178.493 248.977C180.953 247.607 183.453 246.217 185.803 244.647C187.913 243.267 188.964 241.177 188.724 238.587C188.584 237.147 188.443 235.677 188.063 234.267C185.833 225.917 181.004 219.307 174.174 214.127C157.304 201.347 132.224 202.457 113.264 209.507C104.504 212.777 96.6035 217.837 88.7835 222.867C88.3535 223.137 87.9535 223.437 87.5035 223.707L87.4535 223.737C83.4635 226.327 79.8135 229.397 76.0735 232.347C73.4235 234.457 70.7735 236.597 67.6735 238.077C66.1335 238.807 64.5335 239.297 62.7935 239.017C60.8635 238.697 59.8935 237.557 60.0835 235.627C60.1835 234.617 60.4035 233.547 60.8035 232.617C61.7935 230.327 62.8335 228.057 63.9735 225.827C65.1935 223.397 65.9535 220.897 66.2835 218.147C67.8135 205.327 73.0535 194.257 82.4535 185.277C89.1035 178.917 97.0235 174.667 105.663 171.647C106.153 171.487 106.663 171.107 106.973 170.707C110.723 165.547 115.414 161.407 120.854 158.127C126.864 154.517 133.353 152.147 140.243 150.877C142.093 150.527 143.974 150.307 145.854 150.037C139.854 154.647 134.944 159.987 132.334 167.237C132.504 167.307 132.564 167.337 132.614 167.347C132.884 167.367 133.164 167.387 133.454 167.397C139.294 167.687 145.024 168.657 150.544 170.587C155.854 172.437 160.793 174.727 165.313 177.457C165.053 172.187 165.404 166.757 166.324 161.207C167.273 155.437 169.153 149.937 171.693 144.677C171.813 144.417 171.944 144.167 172.044 143.917C172.063 143.867 172.064 143.797 172.084 143.617C164.474 142.437 157.434 144.197 150.514 147.267C151.644 145.747 152.743 144.197 153.933 142.747C158.343 137.307 163.523 132.737 169.574 129.177C175.044 125.957 180.923 123.827 187.253 122.997C187.753 122.917 188.334 122.647 188.704 122.297C195.484 116.157 203.004 111.227 211.764 108.427C224.144 104.457 236.373 105.147 248.363 109.937C250.933 110.957 253.504 111.487 256.214 111.577C258.714 111.647 261.214 111.817 263.693 112.047C264.703 112.147 265.753 112.457 266.683 112.857C268.473 113.607 269.013 115.017 268.363 116.857L268.344 116.817Z" fill="#663703"/>
</g>
<path d="M134.893 56.327L111.123 49.787L89.0034 43.697V43.737C88.5934 45.357 78.0234 88.477 78.0134 88.507C75.9734 96.857 78.5234 106.647 85.3434 111.987C86.2834 112.747 87.3135 113.397 88.4235 113.967C89.4335 114.487 90.4834 114.897 91.5634 115.217C91.6034 115.227 91.6534 115.237 91.6934 115.247C98.5334 117.357 106.533 115.977 112.403 112.017C118.323 108.047 123.433 99.967 121.563 92.587C120.623 88.917 117.933 86.027 114.863 83.947C114.863 83.947 112.773 82.167 109.483 81.687C106.173 81.167 101.643 81.967 96.8035 87.187L94.5434 89.777H94.5334L88.4835 96.727C87.4535 97.817 85.8335 97.697 84.8935 96.847C84.3635 96.407 84.0435 95.767 84.0835 94.967C84.1235 93.827 86.0434 89.837 86.9734 87.887C86.9734 87.887 87.4634 84.997 87.6534 82.067C87.9334 77.447 89.7634 72.997 93.1834 69.867C95.7734 67.517 99.5534 65.377 105.043 64.447C108.173 63.907 111.843 63.767 116.193 64.177C116.993 64.247 117.803 64.147 118.513 63.797C119.563 63.287 121.403 62.627 123.613 62.877C126.023 63.127 128.863 64.477 131.603 68.287C131.603 68.287 126.653 66.587 122.023 69.637C121.943 69.687 121.863 69.747 121.783 69.797C121.783 69.797 122.033 69.777 122.463 69.797C124.063 69.947 128.173 70.927 130.963 77.167C130.963 77.167 134.113 83.387 131.633 92.327C131.103 94.287 132.013 96.107 133.493 97.017C134.563 97.667 135.913 97.847 137.233 97.287L137.313 97.257C145.603 93.747 149.913 84.917 149.763 76.217C149.573 66.777 144.243 58.887 134.903 56.327H134.893ZM92.9734 50.357L101.313 53.027L99.7234 61.717L97.4134 61.037L91.1735 59.177L92.9535 50.517L92.9835 50.367L92.9734 50.357Z" fill="#3A2415"/>
<path d="M145.383 107.497C145.823 108.237 145.573 109.187 144.843 109.627L125.413 121.177C124.673 121.617 123.723 121.367 123.283 120.637C123.013 120.187 122.993 119.607 123.233 119.137C123.633 118.337 124.693 117.977 125.283 117.297C125.823 116.677 126.223 115.947 126.493 115.167C127.053 113.547 127.103 111.787 127.073 110.097C127.053 109.337 127.023 108.577 126.993 107.817C126.903 105.207 126.693 102.577 126.273 99.987C129.353 102.717 132.713 104.917 136.333 106.857C137.763 107.627 139.393 107.977 141.003 107.717C141.813 107.587 142.583 107.307 143.313 106.937C144.043 106.567 144.953 106.737 145.393 107.487L145.383 107.497Z" fill="#3A2415"/>
<path d="M132.563 55.7271L111.103 49.817L89.0135 43.737L86.6935 43.097C86.6935 43.097 75.7235 87.8771 75.7035 87.9071C73.4735 97.0271 76.7235 107.877 85.0335 112.787C85.3835 112.997 85.7434 113.197 86.1234 113.387C87.8434 114.247 89.6835 114.857 91.5935 115.217C91.6335 115.227 91.6835 115.237 91.7235 115.247C98.0035 116.407 104.893 114.927 110.103 111.427C116.023 107.457 121.133 99.377 119.263 91.997C118.323 88.327 115.633 85.437 112.563 83.357C112.563 83.357 111.423 82.3971 109.513 81.6971C106.623 80.6171 101.973 80.157 96.7935 84.427H96.7835C96.0335 85.047 95.2735 85.767 94.5035 86.597L86.1935 96.117C85.8235 96.507 85.3735 96.7371 84.9235 96.8371C83.4035 97.1971 81.7035 96.127 81.7735 94.367C81.8235 93.247 83.7435 89.237 84.6635 87.287C84.6635 87.287 85.1535 84.3971 85.3435 81.4671C85.6235 76.8471 87.4634 72.3971 90.8734 69.2671C93.8734 66.5371 98.4635 64.1171 105.453 63.507C107.933 63.257 110.733 63.2771 113.873 63.5771C114.683 63.6671 115.483 63.5471 116.193 63.1971C117.603 62.5171 120.413 61.557 123.623 62.877C125.433 63.607 127.403 65.067 129.273 67.687C129.273 67.687 124.143 65.9171 119.463 69.1971C119.463 69.1971 120.523 69.0971 122.023 69.6371C122.163 69.6871 122.313 69.747 122.463 69.807C124.353 70.607 126.783 72.4371 128.633 76.5771C128.633 76.5771 131.773 82.807 129.283 91.747C128.503 94.587 130.793 97.1471 133.483 97.0271C133.943 96.9971 134.423 96.8971 134.893 96.6971L134.973 96.667C143.283 93.147 147.573 84.327 147.423 75.627C147.233 66.187 141.903 58.297 132.563 55.737V55.7271ZM97.3935 61.117L88.8435 58.5771L90.6435 49.7671L92.9535 50.507L99.0035 52.427L97.4135 61.037L97.3935 61.127V61.117Z" fill="url(#paint4_radial_1_1363)"/>
<path d="M143.053 106.907C143.493 107.647 143.243 108.597 142.513 109.037L123.083 120.587C122.343 121.027 121.393 120.777 120.953 120.047C120.683 119.597 120.663 119.017 120.903 118.547C121.303 117.747 122.363 117.387 122.953 116.707C123.493 116.087 123.893 115.357 124.163 114.577C124.723 112.957 124.773 111.197 124.743 109.507C124.723 108.747 124.693 107.987 124.663 107.227C124.573 104.617 124.363 101.987 123.943 99.3971C127.023 102.127 130.383 104.327 134.003 106.267C135.433 107.037 137.063 107.387 138.673 107.127C139.483 106.997 140.253 106.717 140.983 106.347C141.713 105.977 142.623 106.147 143.063 106.897L143.053 106.907Z" fill="url(#paint5_radial_1_1363)"/>
<g opacity="0.85">
<path d="M132.563 55.7271L111.103 49.817L89.0135 43.737L86.6935 43.097C86.6935 43.097 75.7235 87.8771 75.7035 87.9071C73.4735 97.0271 76.7235 107.877 85.0335 112.787C85.3835 112.997 85.7434 113.197 86.1234 113.387C87.8434 114.247 89.6835 114.857 91.5935 115.217C91.6335 115.227 91.6835 115.237 91.7235 115.247C98.0035 116.407 104.893 114.927 110.103 111.427C116.023 107.457 121.133 99.377 119.263 91.997C118.323 88.327 115.633 85.437 112.563 83.357C112.563 83.357 111.423 82.3971 109.513 81.6971C106.623 80.6171 101.973 80.157 96.7935 84.427H96.7835C96.0335 85.047 95.2735 85.767 94.5035 86.597L86.1935 96.117C85.8235 96.507 85.3735 96.7371 84.9235 96.8371C83.4035 97.1971 81.7035 96.127 81.7735 94.367C81.8235 93.247 83.7435 89.237 84.6635 87.287C84.6635 87.287 85.1535 84.3971 85.3435 81.4671C85.6235 76.8471 87.4634 72.3971 90.8734 69.2671C93.8734 66.5371 98.4635 64.1171 105.453 63.507C107.933 63.257 110.733 63.2771 113.873 63.5771C114.683 63.6671 115.483 63.5471 116.193 63.1971C117.603 62.5171 120.413 61.557 123.623 62.877C125.433 63.607 127.403 65.067 129.273 67.687C129.273 67.687 124.143 65.9171 119.463 69.1971C119.463 69.1971 120.523 69.0971 122.023 69.6371C122.163 69.6871 122.313 69.747 122.463 69.807C124.353 70.607 126.783 72.4371 128.633 76.5771C128.633 76.5771 131.773 82.807 129.283 91.747C128.503 94.587 130.793 97.1471 133.483 97.0271C133.943 96.9971 134.423 96.8971 134.893 96.6971L134.973 96.667C143.283 93.147 147.573 84.327 147.423 75.627C147.233 66.187 141.903 58.297 132.563 55.737V55.7271ZM97.3935 61.117L88.8435 58.5771L90.6435 49.7671L92.9535 50.507L99.0035 52.427L97.4135 61.037L97.3935 61.127V61.117Z" fill="#724401"/>
<path d="M143.053 106.907C143.493 107.647 143.243 108.597 142.513 109.037L123.083 120.587C122.343 121.027 121.393 120.777 120.953 120.047C120.683 119.597 120.663 119.017 120.903 118.547C121.303 117.747 122.363 117.387 122.953 116.707C123.493 116.087 123.893 115.357 124.163 114.577C124.723 112.957 124.773 111.197 124.743 109.507C124.723 108.747 124.693 107.987 124.663 107.227C124.573 104.617 124.363 101.987 123.943 99.3971C127.023 102.127 130.383 104.327 134.003 106.267C135.433 107.037 137.063 107.387 138.673 107.127C139.483 106.997 140.253 106.717 140.983 106.347C141.713 105.977 142.623 106.147 143.063 106.897L143.053 106.907Z" fill="#724401"/>
</g>
<g opacity="0.85">
<path d="M132.563 55.7271L111.103 49.817L89.0135 43.737L86.6935 43.097C86.6935 43.097 75.7235 87.8771 75.7035 87.9071C73.4735 97.0271 76.7235 107.877 85.0335 112.787C85.3835 112.997 85.7434 113.197 86.1234 113.387C87.8434 114.247 89.6835 114.857 91.5935 115.217C91.6335 115.227 91.6835 115.237 91.7235 115.247C98.0035 116.407 104.893 114.927 110.103 111.427C116.023 107.457 121.133 99.377 119.263 91.997C118.323 88.327 115.633 85.437 112.563 83.357C112.563 83.357 111.423 82.3971 109.513 81.6971C106.623 80.6171 101.973 80.157 96.7935 84.427H96.7835C96.0335 85.047 95.2735 85.767 94.5035 86.597L86.1935 96.117C85.8235 96.507 85.3735 96.7371 84.9235 96.8371C83.4035 97.1971 81.7035 96.127 81.7735 94.367C81.8235 93.247 83.7435 89.237 84.6635 87.287C84.6635 87.287 85.1535 84.3971 85.3435 81.4671C85.6235 76.8471 87.4634 72.3971 90.8734 69.2671C93.8734 66.5371 98.4635 64.1171 105.453 63.507C107.933 63.257 110.733 63.2771 113.873 63.5771C114.683 63.6671 115.483 63.5471 116.193 63.1971C117.603 62.5171 120.413 61.557 123.623 62.877C125.433 63.607 127.403 65.067 129.273 67.687C129.273 67.687 124.143 65.9171 119.463 69.1971C119.463 69.1971 120.523 69.0971 122.023 69.6371C122.163 69.6871 122.313 69.747 122.463 69.807C124.353 70.607 126.783 72.4371 128.633 76.5771C128.633 76.5771 131.773 82.807 129.283 91.747C128.503 94.587 130.793 97.1471 133.483 97.0271C133.943 96.9971 134.423 96.8971 134.893 96.6971L134.973 96.667C143.283 93.147 147.573 84.327 147.423 75.627C147.233 66.187 141.903 58.297 132.563 55.737V55.7271ZM97.3935 61.117L88.8435 58.5771L90.6435 49.7671L92.9535 50.507L99.0035 52.427L97.4135 61.037L97.3935 61.127V61.117Z" fill="#663703"/>
<path d="M143.053 106.907C143.493 107.647 143.243 108.597 142.513 109.037L123.083 120.587C122.343 121.027 121.393 120.777 120.953 120.047C120.683 119.597 120.663 119.017 120.903 118.547C121.303 117.747 122.363 117.387 122.953 116.707C123.493 116.087 123.893 115.357 124.163 114.577C124.723 112.957 124.773 111.197 124.743 109.507C124.723 108.747 124.693 107.987 124.663 107.227C124.573 104.617 124.363 101.987 123.943 99.3971C127.023 102.127 130.383 104.327 134.003 106.267C135.433 107.037 137.063 107.387 138.673 107.127C139.483 106.997 140.253 106.717 140.983 106.347C141.713 105.977 142.623 106.147 143.063 106.897L143.053 106.907Z" fill="#663703"/>
</g>
</g>
<path d="M195.223 6.30703L194.423 8.22704L193.173 11.217L189.903 19.107L188.843 21.677L135.503 150.207L134.463 152.747L112.733 205.097L111.733 207.507L84.3835 273.427L83.0634 276.607L79.3535 285.537L78.7635 286.967L77.9034 289.067C61.2434 279.117 46.3135 265.877 34.1635 249.577L34.4034 248.997L34.5934 248.547L39.3935 236.967L40.9235 233.237L89.6435 115.617L89.9535 114.867L98.5235 94.167H98.5334L100.583 89.177H100.593L108.303 70.5471L108.663 69.677L113.943 56.917L113.973 56.877L129.543 19.287L130.833 16.157L134.153 8.12704L136.013 3.62704L137.213 0.727042C156.823 -1.19296 176.533 0.767038 195.193 6.31704L195.223 6.30703Z" fill="url(#paint6_linear_1_1363)"/>
<path d="M283.393 75.667C283.663 76.087 283.923 76.527 284.183 76.957C284.573 77.617 284.973 78.287 285.333 78.947C285.373 78.977 285.393 79.017 285.393 79.047L285.363 79.137L279.683 92.647L278.253 96.047L229.833 211.397L228.683 214.117L223.703 225.987L222.823 228.097L222.483 228.897L221.063 232.257L217.103 241.707L215.763 244.897L199.113 284.567L197.423 288.567L193.343 298.297L191.913 301.697L189.793 306.717C177.113 309.637 164.243 310.867 151.493 310.497L153.123 306.607L154.213 304.007L157.783 295.517L159.193 292.147L175.053 254.367L176.123 251.817L181.043 240.127L181.993 237.837L185.733 228.967L187.263 225.327L193.683 210.017L195.133 206.567L222.623 141.077L223.563 138.867H223.573L235.363 110.757L236.573 107.877L255.713 62.287L256.883 59.517L261.273 49.047L261.753 47.897L262.063 47.187C269.743 55.287 276.673 64.357 282.623 74.367C282.883 74.807 283.153 75.247 283.393 75.687V75.667Z" fill="url(#paint7_linear_1_1363)"/>
<defs>
<linearGradient id="paint0_linear_1_1363" x1="184.394" y1="303.512" x2="122.637" y2="5.82723" gradientUnits="userSpaceOnUse">
<stop stop-color="#D3A150"/>
<stop offset="0.42" stop-color="#DDB264"/>
<stop offset="1" stop-color="#EFD186"/>
</linearGradient>
<linearGradient id="paint1_linear_1_1363" x1="81.7447" y1="34.1052" x2="225.409" y2="275.871" gradientUnits="userSpaceOnUse">
<stop stop-color="#513A01"/>
<stop offset="0.15" stop-color="#65440B"/>
<stop offset="0.46" stop-color="#986024"/>
<stop offset="0.58" stop-color="#AD6B2F"/>
<stop offset="1" stop-color="#FFE6CA"/>
</linearGradient>
<linearGradient id="paint2_linear_1_1363" x1="181.753" y1="289.436" x2="125.866" y2="20.031" gradientUnits="userSpaceOnUse">
<stop stop-color="#D3A150"/>
<stop offset="0.42" stop-color="#DDB264"/>
<stop offset="1" stop-color="#EFD186"/>
</linearGradient>
<radialGradient id="paint3_radial_1_1363" cx="0" cy="0" r="1" gradientUnits="userSpaceOnUse" gradientTransform="translate(181.71 205.209) rotate(-30.72) scale(99.34 99.34)">
<stop stop-color="white"/>
<stop offset="0.6" stop-color="#DDDDDD"/>
<stop offset="1" stop-color="#CCCCCC"/>
</radialGradient>
<radialGradient id="paint4_radial_1_1363" cx="0" cy="0" r="1" gradientUnits="userSpaceOnUse" gradientTransform="translate(104.474 73.8047) rotate(-30.72) scale(37.26)">
<stop stop-color="white"/>
<stop offset="0.6" stop-color="#DDDDDD"/>
<stop offset="1" stop-color="#CCCCCC"/>
</radialGradient>
<radialGradient id="paint5_radial_1_1363" cx="0" cy="0" r="1" gradientUnits="userSpaceOnUse" gradientTransform="translate(128.233 107.228) rotate(-30.72) scale(11.05 11.05)">
<stop stop-color="white"/>
<stop offset="0.6" stop-color="#DDDDDD"/>
<stop offset="1" stop-color="#CCCCCC"/>
</radialGradient>
<linearGradient id="paint6_linear_1_1363" x1="45.7842" y1="359.892" x2="151.589" y2="3.71062" gradientUnits="userSpaceOnUse">
<stop stop-color="white" stop-opacity="0"/>
<stop offset="1" stop-color="white" stop-opacity="0.3"/>
</linearGradient>
<linearGradient id="paint7_linear_1_1363" x1="159.369" y1="393.632" x2="265.169" y2="37.4425" gradientUnits="userSpaceOnUse">
<stop stop-color="white" stop-opacity="0"/>
<stop offset="1" stop-color="white" stop-opacity="0.3"/>
</linearGradient>
</defs>
</svg>
