<svg width="24" height="24" viewBox="0 0 24 24" fill="none" xmlns="http://www.w3.org/2000/svg">
<path d="M17.8312 9.21139C18.4492 8.59292 18.7895 7.77075 18.7895 6.89628C18.7895 6.02182 18.4491 5.19962 17.8313 4.58117C17.5854 4.33487 17.1864 4.33498 16.9405 4.58117C16.6943 4.82736 16.6943 5.22655 16.9402 5.47275C17.3202 5.85306 17.5295 6.35859 17.5295 6.89638C17.5295 7.43396 17.3202 7.9395 16.9405 8.3198L16.7144 8.54596L16.3956 8.22712C16.2042 8.03572 15.9449 7.92823 15.6744 7.92823C15.4038 7.92823 15.1445 8.03572 14.9533 8.22712L14.4177 8.76304C14.3587 8.82231 14.2685 8.83776 14.193 8.80155C13.2258 8.33838 12.1591 8.09407 11.055 8.09407C9.11069 8.09407 7.28275 8.85175 5.90784 10.2275C3.06978 13.0678 3.06978 17.6891 5.90784 20.5291C7.28275 21.9052 9.11058 22.6628 11.0549 22.6628C12.9991 22.6628 14.8273 21.9051 16.202 20.5291C18.4382 18.2913 18.9121 14.9475 17.6245 12.2404C17.5883 12.165 17.6039 12.0751 17.6631 12.0158L18.2011 11.4771C18.5992 11.0786 18.5992 10.4324 18.2011 10.0339L17.6051 9.43754L17.8312 9.21139Z" fill="white"/>
<path d="M15.8372 4.08201C15.9191 4.16407 16.0268 4.2052 16.1343 4.2052C16.2417 4.2052 16.3493 4.16417 16.4315 4.08212C16.5955 3.91801 16.5955 3.65169 16.4315 3.48747L15.7738 2.82926C15.6101 2.66493 15.3438 2.66504 15.1797 2.82926C15.0156 2.99346 15.0156 3.25958 15.1797 3.42389L15.8372 4.08201Z" fill="white"/>
<path d="M14.6936 5.45273H15.6236C15.8556 5.45273 16.0437 5.2645 16.0437 5.03222C16.0437 4.80004 15.8556 4.61182 15.6236 4.61182H14.6936C14.4614 4.61182 14.2734 4.80015 14.2734 5.03222C14.2734 5.2645 14.4615 5.45273 14.6936 5.45273Z" fill="white"/>
<path d="M17.3776 3.68421C17.6099 3.68421 17.798 3.49588 17.798 3.2638V2.33311C17.798 2.10083 17.6098 1.9126 17.3776 1.9126C17.1453 1.9126 16.957 2.10083 16.957 2.33311V3.2638C16.9569 3.49588 17.1452 3.68421 17.3776 3.68421Z" fill="white"/>
<path d="M19.5779 2.81937C19.4139 2.65526 19.1478 2.65526 18.9839 2.81937L18.3262 3.47759C18.1621 3.64171 18.1621 3.90791 18.3262 4.07213C18.4083 4.15419 18.5158 4.19532 18.6233 4.19532C18.7309 4.19532 18.8385 4.15419 18.9204 4.07213L19.5779 3.41391C19.742 3.2498 19.742 2.98359 19.5779 2.81937Z" fill="white"/>
<path d="M11.0531 10.4023C9.72485 10.4023 8.47612 10.9201 7.53702 11.8598C7.37308 12.0239 7.37308 12.29 7.53702 12.454C7.70095 12.6182 7.96699 12.6182 8.13103 12.454C8.91151 11.6731 9.94927 11.2429 11.0531 11.2429C12.1569 11.2429 13.195 11.6732 13.9756 12.4541C14.0575 12.5363 14.1651 12.5775 14.2724 12.5773C14.38 12.5773 14.4875 12.5363 14.5695 12.4541C14.7335 12.29 14.7335 12.0239 14.5695 11.8598C13.6303 10.9201 12.3814 10.4023 11.0531 10.4023Z" fill="#1C2932"/>
</svg>
