<svg width="309" height="316" viewBox="0 0 309 316" fill="none" xmlns="http://www.w3.org/2000/svg">
<path d="M308.284 153.7C308.284 154.07 308.284 154.43 308.274 154.8V155.69C307.204 239.66 238.804 307.41 154.584 307.41C145.144 307.41 135.914 306.55 126.944 304.93C112.944 302.4 99.6139 297.95 87.2239 291.9C62.3639 279.76 41.2738 261.11 26.1538 238.17C14.8438 221.01 6.87385 201.45 3.19385 180.41C1.79385 172.37 0.993799 164.11 0.893799 155.69V154.8C0.883799 154.43 0.883789 154.07 0.883789 153.7C0.883789 68.82 69.6837 0 154.574 0C171.254 0 187.304 2.66001 202.354 7.57001C222.534 14.17 240.884 24.83 256.424 38.59C277.154 56.94 292.894 80.8 301.344 107.88C305.434 120.97 307.804 134.82 308.214 149.15C308.264 150.66 308.284 152.18 308.284 153.7Z" fill="#787878"/>
<path d="M308.274 161.4C308.274 246.29 239.464 315.1 154.574 315.1C69.6837 315.1 0.883789 246.29 0.883789 161.4C0.883789 76.51 69.6937 7.69995 154.574 7.69995C239.454 7.69995 308.274 76.52 308.274 161.4Z" fill="#474747"/>
<path d="M308.284 156.78C308.284 241.66 239.474 310.47 154.584 310.47C144.124 310.47 133.904 309.42 124.034 307.43C110.254 304.65 97.1339 300.03 84.9639 293.83C60.3939 281.32 39.6138 262.4 24.8838 239.27C13.7838 221.85 6.08391 202.04 2.75391 180.78C1.51391 172.96 0.883789 164.94 0.883789 156.78C0.883789 156.41 0.883799 156.05 0.893799 155.68V154.79C1.9638 70.81 70.3537 3.07001 154.574 3.07001C170.304 3.07001 185.474 5.43001 199.754 9.82001C220.204 16.1 238.824 26.53 254.654 40.12C275.624 58.13 291.694 81.7 300.554 108.54C304.814 121.44 307.414 135.09 308.104 149.24C308.184 151.08 308.254 152.93 308.274 154.79V155.68C308.284 156.05 308.284 156.41 308.284 156.78Z" fill="url(#paint0_linear_1_1394)"/>
<path d="M296.684 157.09C296.684 235.62 233.014 299.3 154.474 299.3C75.9339 299.3 12.2639 235.63 12.2639 157.09C12.2639 78.55 75.9339 14.87 154.474 14.87C233.014 14.87 296.684 78.54 296.684 157.09Z" fill="url(#paint1_linear_1_1394)"/>
<path d="M293.884 156.98C293.884 233.82 231.604 296.08 154.784 296.08C77.9637 296.08 15.6838 233.81 15.6838 156.98C15.6838 80.15 77.9637 17.89 154.784 17.89C231.604 17.89 293.884 80.16 293.884 156.98Z" fill="url(#paint2_linear_1_1394)"/>
<path d="M160.004 29.46C160.004 31.71 158.184 33.53 155.934 33.53C153.684 33.53 151.864 31.71 151.864 29.46C151.864 27.21 153.684 25.39 155.934 25.39C158.184 25.39 160.004 27.21 160.004 29.46Z" fill="#474747"/>
<path d="M160.414 28.42C160.414 30.67 158.594 32.49 156.344 32.49C154.094 32.49 152.274 30.67 152.274 28.42C152.274 26.17 154.094 24.35 156.344 24.35C158.594 24.35 160.414 26.17 160.414 28.42Z" fill="#E6E7E8"/>
<path d="M160.214 28.94C160.214 31.19 158.394 33.01 156.144 33.01C153.894 33.01 152.074 31.19 152.074 28.94C152.074 26.69 153.894 24.87 156.144 24.87C158.394 24.87 160.214 26.69 160.214 28.94Z" fill="#898989"/>
<path d="M139.894 30.1899C140.244 32.4099 138.734 34.4999 136.514 34.8499C134.294 35.1999 132.204 33.6899 131.854 31.4699C131.504 29.2499 133.014 27.1599 135.234 26.8099C137.454 26.4599 139.544 27.9699 139.894 30.1899Z" fill="#474747"/>
<path d="M140.144 29.1C140.494 31.32 138.984 33.41 136.764 33.76C134.544 34.11 132.454 32.6 132.104 30.38C131.754 28.16 133.264 26.07 135.484 25.72C137.704 25.37 139.794 26.88 140.144 29.1Z" fill="#E6E7E8"/>
<path d="M140.024 29.64C140.374 31.86 138.864 33.95 136.644 34.3C134.424 34.65 132.334 33.14 131.984 30.92C131.634 28.7 133.144 26.61 135.364 26.26C137.584 25.91 139.674 27.42 140.024 29.64Z" fill="#898989"/>
<path d="M120.154 34.06C120.854 36.2 119.674 38.5 117.544 39.19C115.404 39.89 113.104 38.71 112.414 36.58C111.714 34.44 112.894 32.14 115.024 31.45C117.164 30.75 119.454 31.93 120.154 34.06Z" fill="#474747"/>
<path d="M120.234 32.93C120.924 35.07 119.754 37.37 117.624 38.06C115.484 38.75 113.184 37.5799 112.494 35.4499C111.794 33.3099 112.974 31.01 115.104 30.32C117.244 29.63 119.544 30.8 120.234 32.93Z" fill="#E6E7E8"/>
<path d="M120.194 33.4999C120.894 35.6399 119.714 37.9399 117.584 38.6299C115.444 39.3199 113.154 38.1499 112.454 36.0199C111.764 33.8799 112.924 31.5899 115.064 30.8899C117.204 30.1999 119.504 31.3699 120.194 33.4999Z" fill="#898989"/>
<path d="M101.264 40.96C102.284 42.96 101.484 45.42 99.4838 46.44C97.4838 47.46 95.0238 46.66 94.0138 44.66C92.9938 42.66 93.7936 40.21 95.7936 39.18C97.7936 38.16 100.254 38.96 101.274 40.96H101.264Z" fill="#474747"/>
<path d="M101.164 39.84C102.184 41.84 101.384 44.3 99.3839 45.32C97.3839 46.34 94.9239 45.54 93.9039 43.54C92.8839 41.54 93.6839 39.09 95.6839 38.06C97.6839 37.04 100.144 37.84 101.164 39.84Z" fill="#E6E7E8"/>
<path d="M101.214 40.4C102.234 42.4 101.434 44.86 99.4339 45.88C97.4339 46.9 94.974 46.1 93.954 44.1C92.934 42.1 93.734 39.65 95.734 38.62C97.734 37.6 100.194 38.4 101.214 40.4Z" fill="#898989"/>
<path d="M83.6738 50.74C84.9938 52.56 84.5937 55.11 82.7737 56.43C80.9537 57.75 78.4037 57.35 77.0837 55.53C75.7637 53.71 76.1639 51.17 77.9839 49.84C79.8039 48.52 82.3438 48.92 83.6738 50.74Z" fill="#474747"/>
<path d="M83.4038 49.65C84.7238 51.47 84.3239 54.01 82.5039 55.34C80.6839 56.66 78.1337 56.26 76.8137 54.44C75.4937 52.62 75.8939 50.07 77.7139 48.75C79.5339 47.43 82.0838 47.83 83.4038 49.65Z" fill="#E6E7E8"/>
<path d="M83.5438 50.19C84.8638 52.01 84.4639 54.56 82.6439 55.88C80.8239 57.2 78.2739 56.8 76.9539 54.98C75.6339 53.16 76.0338 50.62 77.8538 49.29C79.6738 47.97 82.2138 48.37 83.5438 50.19Z" fill="#898989"/>
<path d="M67.8439 63.14C69.4339 64.73 69.4339 67.31 67.8439 68.9C66.2539 70.49 63.6739 70.49 62.0839 68.9C60.4939 67.31 60.4939 64.73 62.0839 63.14C63.6739 61.55 66.2539 61.55 67.8439 63.14Z" fill="#474747"/>
<path d="M67.4039 62.11C68.9939 63.7 68.9939 66.28 67.4039 67.87C65.8139 69.46 63.2339 69.46 61.6439 67.87C60.0539 66.28 60.0539 63.7 61.6439 62.11C63.2339 60.52 65.8139 60.52 67.4039 62.11Z" fill="#E6E7E8"/>
<path d="M67.6239 62.63C69.2139 64.22 69.2139 66.8 67.6239 68.39C66.0339 69.98 63.4539 69.98 61.8639 68.39C60.2739 66.8 60.2739 64.22 61.8639 62.63C63.4539 61.04 66.0339 61.04 67.6239 62.63Z" fill="#898989"/>
<path d="M54.1439 77.87C55.9639 79.19 56.3638 81.7399 55.0438 83.5599C53.7238 85.3799 51.1738 85.78 49.3538 84.46C47.5338 83.14 47.1339 80.59 48.4539 78.77C49.7739 76.95 52.3239 76.55 54.1439 77.87Z" fill="#474747"/>
<path d="M53.5437 76.92C55.3637 78.24 55.7638 80.79 54.4438 82.61C53.1238 84.43 50.5739 84.8299 48.7539 83.5099C46.9339 82.1899 46.5338 79.6399 47.8538 77.8199C49.1738 75.9999 51.7237 75.6 53.5437 76.92Z" fill="#E6E7E8"/>
<path d="M53.8438 77.3999C55.6638 78.7199 56.064 81.2699 54.744 83.0899C53.424 84.9099 50.8738 85.31 49.0538 83.99C47.2338 82.67 46.8339 80.12 48.1539 78.3C49.4739 76.48 52.0238 76.0799 53.8438 77.3999Z" fill="#898989"/>
<path d="M42.9139 94.5599C44.9139 95.5799 45.7139 98.03 44.6939 100.04C43.6739 102.04 41.224 102.84 39.214 101.82C37.214 100.8 36.4139 98.3499 37.4339 96.3399C38.4539 94.3399 40.9039 93.5399 42.9139 94.5599Z" fill="#474747"/>
<path d="M42.1739 93.72C44.1739 94.74 44.974 97.1899 43.954 99.1999C42.934 101.2 40.484 102 38.474 100.98C36.474 99.96 35.6739 97.5099 36.6939 95.4999C37.7139 93.4999 40.1639 92.7 42.1739 93.72Z" fill="#E6E7E8"/>
<path d="M42.5438 94.1399C44.5438 95.1599 45.3438 97.61 44.3238 99.62C43.3038 101.62 40.8538 102.42 38.8438 101.4C36.8438 100.38 36.0438 97.93 37.0638 95.92C38.0838 93.92 40.5338 93.1199 42.5438 94.1399Z" fill="#898989"/>
<path d="M34.4338 112.81C36.5738 113.5 37.7437 115.8 37.0437 117.94C36.3437 120.08 34.0538 121.25 31.9138 120.55C29.7738 119.86 28.6037 117.56 29.3037 115.42C29.9937 113.28 32.2938 112.11 34.4338 112.81Z" fill="#474747"/>
<path d="M33.5737 112.09C35.7137 112.78 36.8838 115.08 36.1838 117.22C35.4838 119.36 33.1937 120.53 31.0537 119.83C28.9137 119.13 27.7438 116.84 28.4438 114.7C29.1438 112.56 31.4337 111.39 33.5737 112.09Z" fill="#E6E7E8"/>
<path d="M34.004 112.45C36.144 113.14 37.3138 115.44 36.6138 117.58C35.9138 119.72 33.6239 120.89 31.4839 120.19C29.3439 119.49 28.1738 117.2 28.8638 115.06C29.5538 112.92 31.854 111.75 33.994 112.45H34.004Z" fill="#898989"/>
<path d="M28.9139 132.15C31.1339 132.5 32.6538 134.59 32.2938 136.81C31.9438 139.03 29.8538 140.54 27.6338 140.19C25.4138 139.84 23.894 137.75 24.254 135.53C24.604 133.31 26.6939 131.79 28.9139 132.15Z" fill="#474747"/>
<path d="M27.9539 131.58C30.1739 131.93 31.6938 134.02 31.3338 136.24C30.9838 138.46 28.8939 139.98 26.6739 139.63C24.4539 139.28 22.9338 137.19 23.2938 134.97C23.6438 132.75 25.7339 131.23 27.9539 131.59V131.58Z" fill="#E6E7E8"/>
<path d="M28.4339 131.86C30.6539 132.21 32.1738 134.3 31.8138 136.52C31.4638 138.74 29.3739 140.26 27.1539 139.9C24.9339 139.55 23.414 137.46 23.764 135.24C24.114 133.02 26.2039 131.5 28.4239 131.86H28.4339Z" fill="#898989"/>
<path d="M26.4939 152.12C28.7439 152.12 30.5637 153.94 30.5637 156.19C30.5637 158.44 28.7439 160.26 26.4939 160.26C24.2439 160.26 22.4238 158.44 22.4238 156.19C22.4238 153.94 24.2439 152.12 26.4939 152.12Z" fill="#474747"/>
<path d="M25.4438 151.71C27.6938 151.71 29.5139 153.53 29.5139 155.78C29.5139 158.03 27.6938 159.85 25.4438 159.85C23.1938 159.85 21.3738 158.03 21.3738 155.78C21.3738 153.53 23.1938 151.71 25.4438 151.71Z" fill="#E6E7E8"/>
<path d="M25.9639 151.91C28.2139 151.91 30.0337 153.73 30.0337 155.98C30.0337 158.23 28.2139 160.05 25.9639 160.05C23.7139 160.05 21.8938 158.23 21.8938 155.98C21.8938 153.73 23.7139 151.91 25.9639 151.91Z" fill="#898989"/>
<path d="M27.214 172.22C29.434 171.87 31.5239 173.38 31.8739 175.61C32.2239 177.83 30.714 179.92 28.494 180.27C26.274 180.62 24.1838 179.11 23.8338 176.89C23.4838 174.67 24.994 172.58 27.214 172.23V172.22Z" fill="#474747"/>
<path d="M26.1239 171.98C28.3439 171.63 30.4338 173.14 30.7838 175.36C31.1338 177.58 29.6239 179.67 27.4039 180.02C25.1839 180.37 23.094 178.86 22.744 176.64C22.394 174.42 23.9039 172.33 26.1239 171.98Z" fill="#E6E7E8"/>
<path d="M26.6739 172.1C28.8939 171.75 30.9838 173.26 31.3338 175.48C31.6838 177.7 30.174 179.79 27.954 180.14C25.734 180.49 23.6438 178.98 23.2938 176.76C22.9438 174.54 24.4539 172.45 26.6739 172.1Z" fill="#898989"/>
<path d="M31.0838 191.97C33.2238 191.28 35.5139 192.45 36.2139 194.58C36.9039 196.72 35.7338 199.01 33.6038 199.71C31.4638 200.4 29.1639 199.23 28.4739 197.1C27.7739 194.96 28.9538 192.67 31.0838 191.97Z" fill="#474747"/>
<path d="M29.9638 191.89C32.1038 191.19 34.4036 192.36 35.0936 194.5C35.7836 196.64 34.6138 198.94 32.4738 199.63C30.3338 200.33 28.0436 199.16 27.3436 197.02C26.6536 194.88 27.8237 192.58 29.9537 191.89H29.9638Z" fill="#E6E7E8"/>
<path d="M30.5236 191.93C32.6636 191.24 34.9637 192.4 35.6537 194.54C36.3537 196.68 35.1836 198.98 33.0436 199.67C30.9036 200.36 28.6037 199.19 27.9137 197.06C27.2237 194.92 28.3936 192.62 30.5236 191.93Z" fill="#898989"/>
<path d="M37.984 210.86C39.984 209.84 42.434 210.64 43.464 212.64C44.484 214.64 43.6839 217.09 41.6839 218.12C39.6839 219.14 37.234 218.34 36.214 216.34C35.194 214.34 35.994 211.89 37.994 210.86H37.984Z" fill="#474747"/>
<path d="M36.8639 210.97C38.8639 209.95 41.3138 210.74 42.3438 212.75C43.3638 214.75 42.5638 217.21 40.5638 218.23C38.5638 219.25 36.1138 218.45 35.0838 216.45C34.0638 214.45 34.8639 211.99 36.8639 210.97Z" fill="#E6E7E8"/>
<path d="M37.4239 210.91C39.4239 209.89 41.8839 210.68 42.9039 212.69C43.9239 214.69 43.1339 217.14 41.1239 218.16C39.1239 219.18 36.6639 218.38 35.6439 216.38C34.6239 214.38 35.4239 211.92 37.4239 210.91Z" fill="#898989"/>
<path d="M47.7639 228.44C49.5839 227.12 52.1238 227.52 53.4538 229.34C54.7738 231.16 54.3737 233.7 52.5537 235.03C50.7337 236.35 48.1838 235.95 46.8638 234.13C45.5438 232.31 45.9439 229.77 47.7639 228.44Z" fill="#474747"/>
<path d="M46.6738 228.72C48.4938 227.4 51.0438 227.8 52.3638 229.62C53.6838 231.44 53.2839 233.99 51.4639 235.31C49.6439 236.63 47.1037 236.23 45.7737 234.41C44.4537 232.59 44.8538 230.04 46.6738 228.72Z" fill="#E6E7E8"/>
<path d="M47.2139 228.58C49.0339 227.26 51.5838 227.66 52.9038 229.48C54.2238 231.3 53.8239 233.84 52.0039 235.16C50.1839 236.48 47.6337 236.08 46.3137 234.26C44.9937 232.44 45.3939 229.9 47.2139 228.57V228.58Z" fill="#898989"/>
<path d="M60.1639 244.28C61.7539 242.69 64.3339 242.69 65.9239 244.28C67.5139 245.87 67.5139 248.45 65.9239 250.04C64.3339 251.63 61.7539 251.63 60.1639 250.04C58.5739 248.45 58.5739 245.87 60.1639 244.28Z" fill="#474747"/>
<path d="M59.1339 244.73C60.7239 243.14 63.3039 243.14 64.8939 244.73C66.4839 246.32 66.4839 248.9 64.8939 250.49C63.3039 252.08 60.7239 252.08 59.1339 250.49C57.5439 248.9 57.5439 246.32 59.1339 244.73Z" fill="#E6E7E8"/>
<path d="M59.6539 244.5C61.2439 242.91 63.8239 242.91 65.4139 244.5C67.0039 246.09 67.0039 248.66 65.4139 250.25C63.8239 251.84 61.2439 251.84 59.6539 250.25C58.0639 248.66 58.0639 246.08 59.6539 244.49V244.5Z" fill="#898989"/>
<path d="M74.8939 257.98C76.2139 256.16 78.7638 255.76 80.5838 257.08C82.4038 258.4 82.804 260.95 81.484 262.77C80.164 264.59 77.6138 264.99 75.7938 263.67C73.9738 262.35 73.5739 259.8 74.8939 257.98Z" fill="#474747"/>
<path d="M73.9439 258.58C75.2639 256.76 77.8139 256.36 79.6339 257.68C81.4539 259 81.8538 261.55 80.5338 263.37C79.2138 265.19 76.6638 265.59 74.8438 264.27C73.0238 262.95 72.6239 260.4 73.9439 258.58Z" fill="#E6E7E8"/>
<path d="M74.4239 258.28C75.7439 256.46 78.2938 256.06 80.1138 257.38C81.9338 258.7 82.334 261.25 81.014 263.06C79.694 264.88 77.1438 265.28 75.3238 263.96C73.5038 262.64 73.1039 260.09 74.4239 258.27V258.28Z" fill="#898989"/>
<path d="M91.5938 269.21C92.6138 267.21 95.0638 266.41 97.0738 267.43C99.0738 268.45 99.8739 270.9 98.8539 272.91C97.8339 274.91 95.3839 275.71 93.3739 274.69C91.3739 273.67 90.5738 271.22 91.5938 269.22V269.21Z" fill="#474747"/>
<path d="M90.7438 269.95C91.7638 267.95 94.2138 267.15 96.2238 268.17C98.2238 269.19 99.0238 271.64 98.0038 273.65C96.9838 275.65 94.5336 276.45 92.5236 275.43C90.5236 274.41 89.7238 271.96 90.7438 269.95Z" fill="#E6E7E8"/>
<path d="M91.1639 269.58C92.1839 267.58 94.6339 266.78 96.6439 267.8C98.6439 268.82 99.4439 271.27 98.4239 273.28C97.4039 275.28 94.9539 276.08 92.9439 275.06C90.9439 274.04 90.1439 271.59 91.1639 269.59V269.58Z" fill="#898989"/>
<path d="M109.834 277.69C110.534 275.55 112.824 274.38 114.964 275.08C117.104 275.77 118.274 278.07 117.574 280.21C116.884 282.35 114.584 283.52 112.444 282.82C110.304 282.13 109.134 279.83 109.834 277.69Z" fill="#474747"/>
<path d="M109.114 278.55C109.804 276.41 112.104 275.24 114.244 275.94C116.384 276.64 117.554 278.93 116.854 281.07C116.154 283.21 113.864 284.38 111.724 283.68C109.584 282.98 108.414 280.68 109.114 278.55Z" fill="#E6E7E8"/>
<path d="M109.474 278.12C110.164 275.98 112.464 274.81 114.604 275.51C116.744 276.21 117.914 278.5 117.214 280.64C116.514 282.78 114.224 283.95 112.084 283.25C109.944 282.56 108.774 280.26 109.474 278.12Z" fill="#898989"/>
<path d="M129.174 283.21C129.524 280.99 131.614 279.48 133.834 279.83C136.054 280.18 137.574 282.27 137.214 284.49C136.864 286.71 134.774 288.22 132.554 287.87C130.334 287.52 128.814 285.43 129.174 283.21Z" fill="#474747"/>
<path d="M128.604 284.17C128.954 281.95 131.044 280.43 133.264 280.78C135.484 281.13 137.004 283.22 136.644 285.44C136.294 287.66 134.204 289.18 131.984 288.82C129.764 288.47 128.244 286.38 128.604 284.16V284.17Z" fill="#E6E7E8"/>
<path d="M128.894 283.69C129.244 281.47 131.334 279.95 133.554 280.31C135.774 280.66 137.284 282.75 136.934 284.97C136.584 287.19 134.494 288.71 132.274 288.35C130.054 288 128.544 285.91 128.894 283.69Z" fill="#898989"/>
<path d="M149.144 285.63C149.144 283.38 150.974 281.56 153.214 281.56C155.464 281.56 157.284 283.38 157.284 285.63C157.284 287.88 155.464 289.7 153.214 289.7C150.964 289.7 149.144 287.88 149.144 285.63Z" fill="#474747"/>
<path d="M148.734 286.68C148.734 284.43 150.554 282.61 152.804 282.61C155.054 282.61 156.874 284.43 156.874 286.68C156.874 288.93 155.044 290.75 152.804 290.75C150.554 290.75 148.734 288.92 148.734 286.68Z" fill="#E6E7E8"/>
<path d="M148.944 286.15C148.944 283.9 150.764 282.08 153.014 282.08C155.264 282.08 157.084 283.9 157.084 286.15C157.084 288.4 155.264 290.22 153.014 290.22C150.764 290.22 148.944 288.4 148.944 286.15Z" fill="#898989"/>
<path d="M169.254 284.9C168.904 282.68 170.424 280.6 172.644 280.24C174.864 279.89 176.954 281.4 177.304 283.63C177.654 285.85 176.144 287.94 173.924 288.29C171.704 288.64 169.614 287.13 169.264 284.91L169.254 284.9Z" fill="#474747"/>
<path d="M169.004 286C168.654 283.78 170.164 281.69 172.384 281.34C174.604 280.99 176.694 282.5 177.044 284.73C177.394 286.95 175.874 289.04 173.664 289.39C171.444 289.74 169.354 288.22 169.004 286.01V286Z" fill="#E6E7E8"/>
<path d="M169.124 285.45C168.774 283.23 170.284 281.14 172.504 280.79C174.724 280.44 176.814 281.95 177.164 284.17C177.514 286.39 176.004 288.48 173.784 288.83C171.564 289.18 169.474 287.67 169.124 285.44V285.45Z" fill="#898989"/>
<path d="M188.994 281.04C188.304 278.9 189.474 276.61 191.614 275.91C193.754 275.22 196.054 276.39 196.744 278.52C197.444 280.66 196.274 282.95 194.124 283.65C191.984 284.34 189.684 283.17 188.994 281.04Z" fill="#474747"/>
<path d="M188.924 282.17C188.224 280.03 189.404 277.73 191.534 277.04C193.674 276.34 195.974 277.51 196.664 279.65C197.354 281.79 196.184 284.09 194.044 284.78C191.904 285.48 189.604 284.3 188.914 282.17H188.924Z" fill="#E6E7E8"/>
<path d="M188.954 281.6C188.264 279.46 189.424 277.16 191.564 276.47C193.704 275.78 195.994 276.94 196.694 279.08C197.384 281.22 196.214 283.52 194.084 284.21C191.944 284.91 189.654 283.73 188.954 281.6Z" fill="#898989"/>
<path d="M207.884 274.14C206.864 272.14 207.664 269.68 209.664 268.66C211.664 267.64 214.124 268.44 215.144 270.44C216.164 272.45 215.364 274.9 213.364 275.92C211.364 276.94 208.914 276.14 207.884 274.14Z" fill="#474747"/>
<path d="M207.994 275.26C206.974 273.26 207.764 270.8 209.774 269.78C211.774 268.76 214.234 269.55 215.254 271.56C216.274 273.56 215.474 276.01 213.474 277.04C211.474 278.06 209.014 277.26 207.994 275.26Z" fill="#E6E7E8"/>
<path d="M207.944 274.7C206.924 272.7 207.724 270.24 209.724 269.23C211.724 268.21 214.174 269 215.194 271.01C216.214 273.01 215.414 275.47 213.414 276.49C211.414 277.51 208.964 276.71 207.934 274.71L207.944 274.7Z" fill="#898989"/>
<path d="M225.474 264.36C224.154 262.54 224.564 259.99 226.374 258.67C228.194 257.35 230.734 257.75 232.064 259.57C233.384 261.39 232.984 263.93 231.164 265.26C229.344 266.58 226.804 266.18 225.474 264.36Z" fill="#474747"/>
<path d="M225.744 265.45C224.424 263.63 224.824 261.08 226.644 259.76C228.464 258.44 231.014 258.84 232.334 260.66C233.654 262.48 233.254 265.03 231.434 266.35C229.614 267.67 227.064 267.26 225.744 265.45Z" fill="#E6E7E8"/>
<path d="M225.614 264.9C224.294 263.08 224.694 260.54 226.514 259.21C228.334 257.89 230.874 258.29 232.194 260.11C233.514 261.93 233.114 264.48 231.294 265.8C229.474 267.12 226.924 266.72 225.604 264.9H225.614Z" fill="#898989"/>
<path d="M241.304 251.95C239.714 250.36 239.714 247.78 241.304 246.19C242.894 244.6 245.474 244.6 247.064 246.19C248.654 247.78 248.654 250.36 247.064 251.95C245.474 253.54 242.894 253.54 241.304 251.95Z" fill="#474747"/>
<path d="M241.754 252.99C240.164 251.4 240.164 248.82 241.754 247.23C243.344 245.64 245.924 245.64 247.514 247.23C249.104 248.82 249.104 251.4 247.514 252.99C245.924 254.58 243.344 254.58 241.754 252.99Z" fill="#E6E7E8"/>
<path d="M241.534 252.47C239.944 250.88 239.944 248.3 241.534 246.71C243.124 245.12 245.704 245.12 247.294 246.71C248.884 248.3 248.884 250.88 247.294 252.47C245.704 254.06 243.124 254.06 241.534 252.47Z" fill="#898989"/>
<path d="M255.004 237.22C253.184 235.9 252.784 233.35 254.104 231.53C255.424 229.71 257.974 229.31 259.794 230.63C261.614 231.95 262.014 234.5 260.694 236.32C259.374 238.14 256.824 238.54 255.004 237.22Z" fill="#474747"/>
<path d="M255.614 238.18C253.794 236.86 253.394 234.31 254.714 232.49C256.034 230.67 258.584 230.27 260.404 231.59C262.224 232.91 262.624 235.46 261.304 237.28C259.984 239.1 257.434 239.5 255.614 238.18Z" fill="#E6E7E8"/>
<path d="M255.304 237.7C253.484 236.38 253.084 233.83 254.404 232.01C255.724 230.19 258.264 229.79 260.084 231.11C261.904 232.43 262.304 234.98 260.984 236.8C259.664 238.62 257.114 239.02 255.294 237.7H255.304Z" fill="#898989"/>
<path d="M266.234 220.53C264.234 219.51 263.434 217.06 264.454 215.06C265.474 213.06 267.924 212.26 269.934 213.28C271.934 214.3 272.734 216.75 271.714 218.76C270.694 220.76 268.244 221.56 266.244 220.54L266.234 220.53Z" fill="#474747"/>
<path d="M266.974 221.38C264.964 220.36 264.174 217.91 265.194 215.9C266.214 213.9 268.664 213.1 270.674 214.12C272.674 215.14 273.474 217.59 272.454 219.6C271.434 221.6 268.984 222.4 266.974 221.38Z" fill="#E6E7E8"/>
<path d="M266.604 220.96C264.604 219.94 263.804 217.49 264.824 215.48C265.844 213.48 268.294 212.68 270.294 213.7C272.294 214.72 273.094 217.18 272.074 219.18C271.054 221.18 268.604 221.98 266.594 220.96H266.604Z" fill="#898989"/>
<path d="M274.714 202.29C272.574 201.6 271.404 199.3 272.104 197.16C272.804 195.02 275.094 193.85 277.234 194.55C279.374 195.24 280.544 197.54 279.844 199.68C279.154 201.82 276.854 202.99 274.714 202.29Z" fill="#474747"/>
<path d="M275.584 203.01C273.444 202.31 272.274 200.02 272.974 197.88C273.664 195.74 275.964 194.57 278.104 195.27C280.244 195.97 281.414 198.26 280.714 200.4C280.014 202.54 277.724 203.71 275.584 203.02V203.01Z" fill="#E6E7E8"/>
<path d="M275.144 202.65C273.014 201.95 271.834 199.66 272.534 197.52C273.224 195.38 275.524 194.21 277.664 194.91C279.804 195.61 280.974 197.9 280.274 200.04C279.584 202.18 277.284 203.35 275.144 202.65Z" fill="#898989"/>
<path d="M280.234 182.95C278.014 182.6 276.504 180.51 276.854 178.29C277.204 176.07 279.294 174.56 281.514 174.91C283.734 175.26 285.244 177.35 284.894 179.57C284.544 181.79 282.454 183.3 280.234 182.95Z" fill="#474747"/>
<path d="M281.204 183.52C278.984 183.17 277.464 181.08 277.824 178.86C278.174 176.64 280.264 175.12 282.484 175.48C284.704 175.83 286.224 177.92 285.874 180.14C285.524 182.36 283.434 183.88 281.214 183.53L281.204 183.52Z" fill="#E6E7E8"/>
<path d="M280.714 183.23C278.494 182.88 276.974 180.79 277.334 178.57C277.684 176.35 279.764 174.84 281.994 175.19C284.214 175.54 285.734 177.63 285.374 179.85C285.024 182.07 282.934 183.59 280.714 183.23Z" fill="#898989"/>
<path d="M282.654 162.98C280.404 162.98 278.584 161.15 278.584 158.91C278.584 156.66 280.404 154.84 282.654 154.84C284.904 154.84 286.724 156.66 286.724 158.91C286.724 161.15 284.904 162.98 282.654 162.98Z" fill="#474747"/>
<path d="M283.704 163.39C281.454 163.39 279.634 161.56 279.634 159.32C279.634 157.07 281.454 155.25 283.704 155.25C285.954 155.25 287.774 157.07 287.774 159.32C287.774 161.57 285.944 163.39 283.704 163.39Z" fill="#E6E7E8"/>
<path d="M283.184 163.18C280.934 163.18 279.114 161.36 279.114 159.11C279.114 156.86 280.934 155.04 283.184 155.04C285.434 155.04 287.254 156.87 287.254 159.11C287.254 161.36 285.434 163.18 283.184 163.18Z" fill="#898989"/>
<path d="M281.934 142.87C279.714 143.22 277.634 141.7 277.274 139.48C276.924 137.26 278.434 135.17 280.654 134.82C282.874 134.47 284.964 135.98 285.314 138.21C285.664 140.43 284.154 142.51 281.934 142.87Z" fill="#474747"/>
<path d="M283.034 143.12C280.814 143.47 278.724 141.95 278.374 139.73C278.024 137.51 279.534 135.42 281.754 135.07C283.974 134.72 286.064 136.23 286.414 138.45C286.764 140.67 285.244 142.76 283.034 143.11V143.12Z" fill="#E6E7E8"/>
<path d="M282.484 143C280.264 143.35 278.174 141.84 277.824 139.61C277.474 137.39 278.984 135.31 281.204 134.95C283.424 134.6 285.514 136.11 285.864 138.33C286.214 140.55 284.704 142.64 282.484 142.99V143Z" fill="#898989"/>
<path d="M278.064 123.13C275.924 123.83 273.634 122.65 272.934 120.52C272.234 118.38 273.414 116.09 275.544 115.39C277.684 114.7 279.974 115.87 280.674 118.01C281.364 120.15 280.194 122.44 278.054 123.14L278.064 123.13Z" fill="#474747"/>
<path d="M279.194 123.2C277.054 123.9 274.754 122.72 274.064 120.58C273.364 118.44 274.534 116.15 276.674 115.45C278.814 114.76 281.114 115.93 281.804 118.06C282.504 120.2 281.324 122.5 279.194 123.19V123.2Z" fill="#E6E7E8"/>
<path d="M278.634 123.17C276.494 123.86 274.204 122.69 273.504 120.55C272.804 118.41 273.974 116.12 276.114 115.42C278.254 114.73 280.554 115.9 281.244 118.03C281.944 120.17 280.764 122.47 278.634 123.16V123.17Z" fill="#898989"/>
<path d="M271.164 104.24C269.164 105.26 266.714 104.46 265.684 102.46C264.664 100.46 265.464 98 267.464 96.98C269.464 95.96 271.914 96.7599 272.944 98.7599C273.964 100.76 273.164 103.21 271.164 104.24Z" fill="#474747"/>
<path d="M272.284 104.13C270.274 105.15 267.824 104.35 266.804 102.35C265.784 100.35 266.574 97.9 268.584 96.87C270.584 95.85 273.044 96.6499 274.064 98.6499C275.084 100.65 274.284 103.11 272.284 104.13Z" fill="#E6E7E8"/>
<path d="M271.724 104.18C269.724 105.2 267.274 104.4 266.244 102.4C265.224 100.4 266.024 97.95 268.024 96.93C270.024 95.91 272.484 96.7099 273.504 98.7099C274.524 100.71 273.724 103.17 271.724 104.19V104.18Z" fill="#898989"/>
<path d="M261.384 86.6499C259.564 87.9699 257.014 87.5599 255.694 85.7499C254.374 83.9299 254.774 81.3799 256.594 80.0599C258.414 78.7399 260.954 79.1399 262.284 80.9599C263.604 82.7799 263.204 85.3199 261.384 86.6499Z" fill="#474747"/>
<path d="M262.484 86.3799C260.664 87.6999 258.114 87.3 256.794 85.48C255.474 83.66 255.874 81.12 257.694 79.79C259.514 78.47 262.064 78.8699 263.384 80.6899C264.704 82.5099 264.304 85.0599 262.484 86.3799Z" fill="#E6E7E8"/>
<path d="M261.934 86.5099C260.114 87.8299 257.574 87.43 256.244 85.61C254.924 83.79 255.324 81.25 257.144 79.93C258.964 78.61 261.514 79.0099 262.834 80.8299C264.154 82.65 263.754 85.19 261.934 86.52V86.5099Z" fill="#898989"/>
<path d="M248.984 70.82C247.394 72.41 244.814 72.41 243.224 70.82C241.634 69.23 241.634 66.65 243.224 65.06C244.814 63.47 247.394 63.47 248.984 65.06C250.574 66.65 250.574 69.23 248.984 70.82Z" fill="#474747"/>
<path d="M250.014 70.37C248.424 71.96 245.844 71.96 244.254 70.37C242.664 68.78 242.664 66.2 244.254 64.61C245.844 63.02 248.424 63.02 250.014 64.61C251.604 66.2 251.604 68.78 250.014 70.37Z" fill="#E6E7E8"/>
<path d="M249.494 70.59C247.904 72.18 245.324 72.18 243.734 70.59C242.144 69 242.144 66.43 243.734 64.83C245.324 63.24 247.904 63.24 249.494 64.83C251.084 66.42 251.084 69 249.494 70.59Z" fill="#898989"/>
<path d="M234.254 57.12C232.934 58.94 230.384 59.34 228.564 58.02C226.744 56.7 226.344 54.15 227.664 52.33C228.984 50.51 231.524 50.11 233.354 51.43C235.174 52.75 235.574 55.3 234.254 57.12Z" fill="#474747"/>
<path d="M235.204 56.52C233.884 58.34 231.334 58.74 229.514 57.42C227.694 56.1 227.294 53.55 228.614 51.73C229.934 49.91 232.484 49.51 234.304 50.83C236.124 52.15 236.524 54.7 235.204 56.52Z" fill="#E6E7E8"/>
<path d="M234.724 56.8201C233.404 58.6401 230.854 59.04 229.034 57.72C227.214 56.4 226.814 53.86 228.134 52.03C229.454 50.21 232.004 49.81 233.824 51.13C235.644 52.45 236.044 55.0001 234.724 56.8201Z" fill="#898989"/>
<path d="M217.564 45.89C216.544 47.89 214.094 48.69 212.084 47.67C210.084 46.65 209.284 44.2 210.304 42.19C211.324 40.19 213.774 39.39 215.784 40.41C217.784 41.43 218.584 43.88 217.564 45.89Z" fill="#474747"/>
<path d="M218.404 45.15C217.384 47.16 214.924 47.95 212.924 46.93C210.924 45.91 210.124 43.46 211.144 41.45C212.164 39.45 214.614 38.65 216.624 39.67C218.624 40.69 219.424 43.15 218.404 45.15Z" fill="#E6E7E8"/>
<path d="M217.984 45.52C216.964 47.52 214.514 48.32 212.514 47.3C210.514 46.28 209.714 43.83 210.734 41.83C211.754 39.83 214.204 39.03 216.214 40.05C218.214 41.07 219.014 43.52 217.994 45.53L217.984 45.52Z" fill="#898989"/>
<path d="M199.314 37.41C198.624 39.55 196.324 40.72 194.184 40.02C192.044 39.33 190.874 37.03 191.564 34.89C192.264 32.75 194.554 31.58 196.694 32.28C198.824 32.97 200.004 35.27 199.304 37.41H199.314Z" fill="#474747"/>
<path d="M200.034 36.54C199.334 38.68 197.034 39.85 194.904 39.15C192.764 38.46 191.594 36.16 192.294 34.02C192.984 31.88 195.284 30.71 197.424 31.41C199.564 32.1 200.734 34.41 200.044 36.54H200.034Z" fill="#E6E7E8"/>
<path d="M199.674 36.98C198.974 39.12 196.684 40.29 194.544 39.59C192.404 38.9 191.234 36.6 191.934 34.46C192.634 32.32 194.924 31.15 197.064 31.85C199.204 32.54 200.374 34.84 199.674 36.98Z" fill="#898989"/>
<path d="M179.974 31.8899C179.624 34.1099 177.534 35.6199 175.314 35.2699C173.094 34.9199 171.574 32.8299 171.934 30.6099C172.284 28.3899 174.364 26.88 176.594 27.23C178.814 27.58 180.324 29.6699 179.974 31.8899Z" fill="#474747"/>
<path d="M180.544 30.92C180.194 33.14 178.104 34.66 175.884 34.3C173.664 33.95 172.144 31.86 172.504 29.64C172.854 27.42 174.944 25.91 177.164 26.26C179.384 26.61 180.904 28.7 180.554 30.92H180.544Z" fill="#E6E7E8"/>
<path d="M180.264 31.4099C179.914 33.6299 177.824 35.1399 175.604 34.7899C173.384 34.4399 171.874 32.3599 172.224 30.1299C172.574 27.9099 174.664 26.3899 176.884 26.7499C179.104 27.0999 180.624 29.1899 180.264 31.4099Z" fill="#898989"/>
<path d="M193.724 125.58C193.504 125.98 193.654 126.48 194.054 126.7C201.384 130.69 207.174 135.05 211.574 139.02C211.994 139.4 211.874 140.11 211.344 140.31C211.344 140.31 211.344 140.31 211.334 140.31C209.334 141.05 207.344 140.82 205.354 140.31C201.364 139.28 197.754 137.36 194.134 135.48C188.114 132.35 182.194 129.02 175.754 126.79C174.194 126.25 172.604 125.76 171.014 125.33C170.694 125.24 170.134 125.4 169.904 125.65C162.974 133.51 153.964 137.21 143.844 138.64C135.134 139.88 126.474 139.36 117.874 137.63C117.774 137.61 117.684 137.56 117.374 137.45C117.884 137.26 118.234 137.13 118.584 137C123.984 135.05 128.894 132.31 132.984 128.21C136.074 125.11 138.274 121.49 139.264 117.19C139.354 116.8 139.404 116.4 139.504 115.84C137.234 115.8 135.054 115.73 132.884 115.72C122.614 115.69 112.454 116.67 102.554 119.54C91.6536 122.71 81.8938 127.84 74.2038 136.39C67.3238 144.05 63.1437 152.96 62.4137 163.33C62.2937 165.07 62.4537 166.84 62.6137 168.58C62.9137 171.68 64.6338 173.9 67.4438 175.06C70.5838 176.36 73.8236 177.43 77.0636 178.49C81.3536 179.9 85.5336 181.47 89.0336 184.44C93.1336 187.9 95.4737 193.37 95.6537 198.73C93.6337 195.07 90.1836 194.02 86.5536 193.51C82.7836 192.98 78.9637 192.77 75.1737 192.38C74.0637 192.27 72.9637 192.11 71.8737 191.89C70.2137 191.54 68.6236 190.99 67.2936 189.67C67.2236 190.58 67.2436 191.41 67.0836 192.21C66.7336 194.01 65.7737 195.53 64.6437 196.93C63.4737 198.37 62.2636 199.77 61.0836 201.2C57.1736 205.92 55.3038 209.96 56.7038 216.61C55.7438 215.31 54.7537 214.04 53.8437 212.7C49.3337 206.11 48.6038 199.04 51.1938 191.56C52.2038 188.63 53.2337 185.7 54.1837 182.74C55.8537 177.54 55.7436 172.35 53.7836 167.26C49.4836 156.08 49.0136 144.63 51.7736 133.12C57.4336 109.45 71.2137 91.77 92.1637 79.6C98.2337 76.08 104.784 73.6099 111.604 71.9299C111.934 71.8499 112.264 71.7699 112.584 71.6699C112.644 71.6599 112.694 71.5999 112.894 71.4699C108.154 63.5199 101.144 58.3399 93.0138 54.2699C95.2838 54.1699 97.5436 53.9899 99.8136 53.9699C108.224 53.8999 116.424 55.2099 124.344 58.0899C131.524 60.7099 137.984 64.54 143.614 69.76C144.064 70.18 144.744 70.4999 145.364 70.5799C156.244 72.1699 166.554 75.38 175.864 81.36C189.004 89.8 197.724 101.65 202.454 116.45C203.464 119.61 204.934 122.39 206.934 124.98C208.724 127.3 210.454 129.67 212.094 132.09C212.834 133.18 213.384 134.39 213.754 135.65V135.68C214.104 136.84 212.724 137.72 211.814 136.93C207.454 133.12 201.854 129.01 194.834 125.19C194.434 124.97 193.924 125.12 193.714 125.53L193.724 125.58Z" fill="#292929"/>
<path d="M193.084 124.22C192.864 124.62 193.014 125.12 193.414 125.34C200.744 129.33 206.534 133.69 210.934 137.66C211.354 138.04 211.234 138.75 210.704 138.95C210.704 138.95 210.704 138.95 210.694 138.95C208.694 139.69 206.704 139.46 204.714 138.95C200.724 137.92 197.114 136 193.494 134.12C187.474 130.99 181.554 127.66 175.114 125.43C173.554 124.89 171.964 124.4 170.374 123.97C170.054 123.88 169.494 124.04 169.264 124.29C162.334 132.15 153.324 135.85 143.204 137.28C134.494 138.52 125.834 138 117.234 136.27C117.134 136.25 117.044 136.2 116.734 136.09C117.244 135.9 117.594 135.77 117.944 135.64C123.344 133.69 128.254 130.95 132.344 126.85C135.434 123.75 137.634 120.13 138.624 115.83C138.714 115.44 138.764 115.04 138.864 114.48C136.594 114.44 134.414 114.37 132.244 114.36C121.974 114.33 111.814 115.31 101.914 118.18C91.0139 121.35 81.2538 126.48 73.5638 135.03C66.6838 142.69 62.5038 151.6 61.7738 161.97C61.6538 163.71 61.814 165.48 61.974 167.22C62.274 170.32 63.9938 172.54 66.8038 173.7C69.9438 175 73.1839 176.07 76.4239 177.13C80.7139 178.54 84.8939 180.11 88.3939 183.08C92.4939 186.54 94.834 192.01 95.014 197.37C92.994 193.71 89.5439 192.66 85.9139 192.15C82.1439 191.62 78.3238 191.41 74.5338 191.02C73.4238 190.91 72.324 190.75 71.234 190.53C69.574 190.18 67.9839 189.63 66.6539 188.31C66.5839 189.22 66.6039 190.05 66.4439 190.85C66.0939 192.65 65.134 194.17 64.004 195.57C62.834 197.01 61.6239 198.41 60.4439 199.84C56.5339 204.56 54.6638 208.6 56.0638 215.25C55.1038 213.95 54.1139 212.68 53.2039 211.34C48.6939 204.75 47.9638 197.68 50.5538 190.2C51.5638 187.27 52.5938 184.34 53.5438 181.38C55.2138 176.18 55.1039 170.99 53.1439 165.9C48.8439 154.72 48.3739 143.27 51.1339 131.76C56.7939 108.09 70.5738 90.41 91.5238 78.24C97.5938 74.72 104.144 72.25 110.964 70.57C111.294 70.49 111.624 70.41 111.944 70.31C112.004 70.3 112.054 70.24 112.254 70.11C107.514 62.16 100.504 56.98 92.3739 52.91C94.6439 52.81 96.9039 52.63 99.1739 52.61C107.584 52.54 115.784 53.85 123.704 56.73C130.884 59.35 137.344 63.18 142.974 68.4C143.424 68.82 144.104 69.14 144.724 69.22C155.604 70.81 165.914 74.0199 175.224 79.9999C188.364 88.4399 197.084 100.29 201.814 115.09C202.824 118.25 204.294 121.03 206.294 123.62C208.084 125.94 209.814 128.31 211.454 130.73C212.194 131.82 212.744 133.03 213.114 134.29V134.32C213.464 135.48 212.084 136.36 211.174 135.57C206.814 131.76 201.214 127.65 194.194 123.83C193.794 123.61 193.284 123.76 193.074 124.17L193.084 124.22Z" fill="url(#paint3_radial_1_1394)"/>
<g opacity="0.69">
<path d="M193.084 124.22C192.864 124.62 193.014 125.12 193.414 125.34C200.744 129.33 206.534 133.69 210.934 137.66C211.354 138.04 211.234 138.75 210.704 138.95C210.704 138.95 210.704 138.95 210.694 138.95C208.694 139.69 206.704 139.46 204.714 138.95C200.724 137.92 197.114 136 193.494 134.12C187.474 130.99 181.554 127.66 175.114 125.43C173.554 124.89 171.964 124.4 170.374 123.97C170.054 123.88 169.494 124.04 169.264 124.29C162.334 132.15 153.324 135.85 143.204 137.28C134.494 138.52 125.834 138 117.234 136.27C117.134 136.25 117.044 136.2 116.734 136.09C117.244 135.9 117.594 135.77 117.944 135.64C123.344 133.69 128.254 130.95 132.344 126.85C135.434 123.75 137.634 120.13 138.624 115.83C138.714 115.44 138.764 115.04 138.864 114.48C136.594 114.44 134.414 114.37 132.244 114.36C121.974 114.33 111.814 115.31 101.914 118.18C91.0139 121.35 81.2538 126.48 73.5638 135.03C66.6838 142.69 62.5038 151.6 61.7738 161.97C61.6538 163.71 61.814 165.48 61.974 167.22C62.274 170.32 63.9938 172.54 66.8038 173.7C69.9438 175 73.1839 176.07 76.4239 177.13C80.7139 178.54 84.8939 180.11 88.3939 183.08C92.4939 186.54 94.834 192.01 95.014 197.37C92.994 193.71 89.5439 192.66 85.9139 192.15C82.1439 191.62 78.3238 191.41 74.5338 191.02C73.4238 190.91 72.324 190.75 71.234 190.53C69.574 190.18 67.9839 189.63 66.6539 188.31C66.5839 189.22 66.6039 190.05 66.4439 190.85C66.0939 192.65 65.134 194.17 64.004 195.57C62.834 197.01 61.6239 198.41 60.4439 199.84C56.5339 204.56 54.6638 208.6 56.0638 215.25C55.1038 213.95 54.1139 212.68 53.2039 211.34C48.6939 204.75 47.9638 197.68 50.5538 190.2C51.5638 187.27 52.5938 184.34 53.5438 181.38C55.2138 176.18 55.1039 170.99 53.1439 165.9C48.8439 154.72 48.3739 143.27 51.1339 131.76C56.7939 108.09 70.5738 90.41 91.5238 78.24C97.5938 74.72 104.144 72.25 110.964 70.57C111.294 70.49 111.624 70.41 111.944 70.31C112.004 70.3 112.054 70.24 112.254 70.11C107.514 62.16 100.504 56.98 92.3739 52.91C94.6439 52.81 96.9039 52.63 99.1739 52.61C107.584 52.54 115.784 53.85 123.704 56.73C130.884 59.35 137.344 63.18 142.974 68.4C143.424 68.82 144.104 69.14 144.724 69.22C155.604 70.81 165.914 74.0199 175.224 79.9999C188.364 88.4399 197.084 100.29 201.814 115.09C202.824 118.25 204.294 121.03 206.294 123.62C208.084 125.94 209.814 128.31 211.454 130.73C212.194 131.82 212.744 133.03 213.114 134.29V134.32C213.464 135.48 212.084 136.36 211.174 135.57C206.814 131.76 201.214 127.65 194.194 123.83C193.794 123.61 193.284 123.76 193.074 124.17L193.084 124.22Z" fill="#4A4A4A"/>
</g>
<path d="M120.364 197.76C120.524 197.33 120.304 196.86 119.874 196.7C112.054 193.8 105.704 190.29 100.774 186.99C100.304 186.67 100.324 185.95 100.814 185.68C100.814 185.68 100.814 185.68 100.824 185.68C102.694 184.67 104.704 184.6 106.744 184.83C110.844 185.28 114.694 186.67 118.544 188.02C124.944 190.26 131.284 192.72 137.974 194.01C139.594 194.32 141.234 194.58 142.874 194.79C143.204 194.83 143.734 194.6 143.924 194.32C149.674 185.56 158.064 180.62 167.884 177.76C176.334 175.3 184.974 174.59 193.734 175.08C193.834 175.08 193.924 175.12 194.254 175.19C193.774 175.45 193.444 175.63 193.114 175.8C188.044 178.49 183.574 181.91 180.104 186.54C177.484 190.05 175.824 193.95 175.444 198.34C175.404 198.74 175.414 199.14 175.394 199.71C177.644 199.43 179.814 199.19 181.964 198.89C192.134 197.47 202.054 195.05 211.444 190.8C221.784 186.12 230.724 179.65 237.114 170.1C242.834 161.54 245.714 152.12 244.964 141.76C244.834 140.02 244.434 138.29 244.014 136.59C243.274 133.56 241.254 131.61 238.314 130.86C235.014 130.02 231.664 129.42 228.314 128.83C223.864 128.05 219.514 127.08 215.614 124.64C211.064 121.79 207.974 116.71 207.034 111.44C209.554 114.78 213.124 115.33 216.784 115.32C220.594 115.31 224.404 114.98 228.214 114.82C229.324 114.77 230.444 114.77 231.554 114.84C233.244 114.95 234.904 115.27 236.404 116.39C236.344 115.48 236.204 114.66 236.254 113.85C236.344 112.02 237.084 110.38 238.004 108.83C238.954 107.24 239.954 105.68 240.924 104.09C244.124 98.86 245.404 94.59 243.074 88.21C244.204 89.36 245.374 90.48 246.464 91.67C251.864 97.55 253.584 104.44 252.084 112.22C251.494 115.27 250.894 118.31 250.374 121.38C249.464 126.76 250.304 131.89 252.964 136.65C258.804 147.1 260.894 158.37 259.804 170.16C257.564 194.39 246.434 213.85 227.414 228.87C221.904 233.22 215.774 236.58 209.264 239.22C208.954 239.35 208.634 239.47 208.324 239.61C208.264 239.63 208.224 239.69 208.054 239.85C213.874 247.05 221.544 251.18 230.174 254.05C227.944 254.47 225.724 254.97 223.484 255.31C215.164 256.57 206.864 256.44 198.624 254.71C191.144 253.13 184.204 250.26 177.894 245.89C177.384 245.54 176.664 245.32 176.044 245.32C165.044 245.29 154.384 243.57 144.324 238.97C130.124 232.48 119.804 221.98 113.024 208.01C111.584 205.02 109.724 202.48 107.374 200.2C105.274 198.16 103.224 196.06 101.254 193.89C100.364 192.92 99.6438 191.8 99.1038 190.6V190.57C98.5838 189.47 99.8338 188.4 100.844 189.06C105.704 192.21 111.824 195.49 119.314 198.27C119.744 198.43 120.224 198.21 120.384 197.78L120.364 197.76Z" fill="#292929"/>
<path d="M119.724 196.4C119.884 195.97 119.664 195.5 119.234 195.34C111.414 192.44 105.064 188.93 100.134 185.63C99.6639 185.31 99.6839 184.59 100.174 184.32C100.174 184.32 100.174 184.32 100.184 184.32C102.054 183.31 104.064 183.24 106.104 183.47C110.204 183.92 114.054 185.31 117.904 186.66C124.304 188.9 130.644 191.36 137.334 192.65C138.954 192.96 140.594 193.22 142.234 193.43C142.564 193.47 143.094 193.24 143.284 192.96C149.034 184.2 157.424 179.26 167.244 176.4C175.694 173.94 184.334 173.23 193.094 173.72C193.194 173.72 193.284 173.76 193.614 173.83C193.134 174.09 192.804 174.27 192.474 174.44C187.404 177.13 182.934 180.55 179.464 185.18C176.844 188.69 175.184 192.59 174.804 196.98C174.764 197.38 174.774 197.78 174.754 198.35C177.004 198.07 179.174 197.83 181.324 197.53C191.494 196.11 201.414 193.69 210.804 189.44C221.144 184.76 230.084 178.29 236.474 168.74C242.194 160.18 245.074 150.76 244.324 140.4C244.194 138.66 243.794 136.93 243.374 135.23C242.634 132.2 240.614 130.25 237.674 129.5C234.374 128.66 231.024 128.06 227.674 127.47C223.224 126.69 218.874 125.72 214.974 123.28C210.424 120.43 207.334 115.35 206.394 110.08C208.914 113.42 212.484 113.97 216.144 113.96C219.954 113.95 223.764 113.62 227.574 113.46C228.684 113.41 229.804 113.41 230.914 113.48C232.604 113.59 234.264 113.91 235.764 115.03C235.704 114.12 235.564 113.3 235.614 112.49C235.704 110.66 236.444 109.02 237.364 107.47C238.314 105.88 239.314 104.32 240.284 102.73C243.484 97.5 244.764 93.23 242.434 86.85C243.564 88 244.734 89.1199 245.824 90.3099C251.224 96.1899 252.944 103.08 251.444 110.86C250.854 113.91 250.254 116.95 249.734 120.02C248.824 125.4 249.664 130.53 252.324 135.29C258.164 145.74 260.254 157.01 259.164 168.8C256.924 193.03 245.794 212.49 226.774 227.51C221.264 231.86 215.134 235.22 208.624 237.86C208.314 237.99 207.994 238.11 207.684 238.25C207.624 238.27 207.584 238.33 207.414 238.49C213.234 245.69 220.904 249.82 229.534 252.69C227.304 253.11 225.084 253.61 222.844 253.95C214.524 255.21 206.224 255.08 197.984 253.35C190.504 251.77 183.564 248.9 177.254 244.53C176.744 244.18 176.024 243.96 175.404 243.96C164.404 243.93 153.744 242.21 143.684 237.61C129.484 231.12 119.164 220.62 112.384 206.65C110.944 203.66 109.084 201.12 106.734 198.84C104.634 196.8 102.584 194.7 100.614 192.53C99.7239 191.56 99.004 190.44 98.464 189.24V189.21C97.944 188.11 99.1939 187.04 100.204 187.7C105.064 190.85 111.184 194.13 118.674 196.91C119.104 197.07 119.584 196.85 119.744 196.42L119.724 196.4Z" fill="url(#paint4_radial_1_1394)"/>
<g opacity="0.69">
<path d="M119.724 196.4C119.884 195.97 119.664 195.5 119.234 195.34C111.414 192.44 105.064 188.93 100.134 185.63C99.6639 185.31 99.6839 184.59 100.174 184.32C100.174 184.32 100.174 184.32 100.184 184.32C102.054 183.31 104.064 183.24 106.104 183.47C110.204 183.92 114.054 185.31 117.904 186.66C124.304 188.9 130.644 191.36 137.334 192.65C138.954 192.96 140.594 193.22 142.234 193.43C142.564 193.47 143.094 193.24 143.284 192.96C149.034 184.2 157.424 179.26 167.244 176.4C175.694 173.94 184.334 173.23 193.094 173.72C193.194 173.72 193.284 173.76 193.614 173.83C193.134 174.09 192.804 174.27 192.474 174.44C187.404 177.13 182.934 180.55 179.464 185.18C176.844 188.69 175.184 192.59 174.804 196.98C174.764 197.38 174.774 197.78 174.754 198.35C177.004 198.07 179.174 197.83 181.324 197.53C191.494 196.11 201.414 193.69 210.804 189.44C221.144 184.76 230.084 178.29 236.474 168.74C242.194 160.18 245.074 150.76 244.324 140.4C244.194 138.66 243.794 136.93 243.374 135.23C242.634 132.2 240.614 130.25 237.674 129.5C234.374 128.66 231.024 128.06 227.674 127.47C223.224 126.69 218.874 125.72 214.974 123.28C210.424 120.43 207.334 115.35 206.394 110.08C208.914 113.42 212.484 113.97 216.144 113.96C219.954 113.95 223.764 113.62 227.574 113.46C228.684 113.41 229.804 113.41 230.914 113.48C232.604 113.59 234.264 113.91 235.764 115.03C235.704 114.12 235.564 113.3 235.614 112.49C235.704 110.66 236.444 109.02 237.364 107.47C238.314 105.88 239.314 104.32 240.284 102.73C243.484 97.5 244.764 93.23 242.434 86.85C243.564 88 244.734 89.1199 245.824 90.3099C251.224 96.1899 252.944 103.08 251.444 110.86C250.854 113.91 250.254 116.95 249.734 120.02C248.824 125.4 249.664 130.53 252.324 135.29C258.164 145.74 260.254 157.01 259.164 168.8C256.924 193.03 245.794 212.49 226.774 227.51C221.264 231.86 215.134 235.22 208.624 237.86C208.314 237.99 207.994 238.11 207.684 238.25C207.624 238.27 207.584 238.33 207.414 238.49C213.234 245.69 220.904 249.82 229.534 252.69C227.304 253.11 225.084 253.61 222.844 253.95C214.524 255.21 206.224 255.08 197.984 253.35C190.504 251.77 183.564 248.9 177.254 244.53C176.744 244.18 176.024 243.96 175.404 243.96C164.404 243.93 153.744 242.21 143.684 237.61C129.484 231.12 119.164 220.62 112.384 206.65C110.944 203.66 109.084 201.12 106.734 198.84C104.634 196.8 102.584 194.7 100.614 192.53C99.7239 191.56 99.004 190.44 98.464 189.24V189.21C97.944 188.11 99.1939 187.04 100.204 187.7C105.064 190.85 111.184 194.13 118.674 196.91C119.104 197.07 119.584 196.85 119.744 196.42L119.724 196.4Z" fill="#4A4A4A"/>
</g>
<path d="M167.154 155.07L160.774 148.58L154.844 142.54H154.834C154.404 142.99 143.044 154.81 143.034 154.81C140.834 157.1 139.834 160.7 141.024 163.67C141.184 164.09 141.394 164.49 141.644 164.87C141.874 165.22 142.134 165.55 142.414 165.85C142.424 165.86 142.434 165.87 142.454 165.89C144.244 167.83 147.054 168.87 149.664 168.7C152.294 168.53 155.424 166.9 156.184 164.19C156.564 162.84 156.234 161.42 155.644 160.19C155.644 160.19 155.304 159.24 154.344 158.47C153.384 157.69 151.794 157.11 149.274 157.88L148.074 158.29L144.854 159.38C144.324 159.54 143.824 159.2 143.684 158.75C143.594 158.51 143.614 158.25 143.774 158C143.994 157.64 145.344 156.73 146.004 156.28C146.004 156.28 146.694 155.45 147.294 154.55C148.234 153.13 149.644 152.05 151.324 151.68C152.584 151.41 154.194 151.43 156.114 152.15C157.214 152.56 158.414 153.19 159.724 154.13C159.964 154.3 160.244 154.42 160.534 154.44C160.964 154.47 161.674 154.6 162.334 155.09C163.054 155.62 163.714 156.57 163.884 158.3C163.884 158.3 162.614 156.84 160.574 156.96C160.534 156.96 160.504 156.96 160.464 156.96C160.464 156.96 160.544 157 160.684 157.09C161.164 157.43 162.294 158.51 162.034 161.02C162.034 161.02 161.884 163.59 159.434 165.98C158.904 166.51 158.854 167.26 159.164 167.82C159.384 168.23 159.784 168.53 160.314 168.6H160.344C163.644 169.02 166.654 167 168.214 164.19C169.904 161.14 169.664 157.63 167.154 155.08V155.07ZM154.874 145.4L157.044 147.8L154.924 150.28L154.314 149.63L152.664 147.88L154.834 145.44L154.874 145.4Z" fill="#292929"/>
<path d="M161.024 173.35C161.024 173.67 160.774 173.93 160.454 173.93L152.104 174.02C151.784 174.02 151.524 173.77 151.524 173.45C151.524 173.26 151.624 173.07 151.784 172.96C152.064 172.78 152.464 172.86 152.774 172.75C153.064 172.65 153.324 172.49 153.554 172.29C154.034 171.88 154.374 171.32 154.674 170.78C154.814 170.53 154.934 170.28 155.074 170.04C155.524 169.19 155.944 168.31 156.294 167.41C156.774 168.85 157.434 170.18 158.234 171.47C158.544 171.98 159.004 172.4 159.564 172.61C159.844 172.72 160.144 172.77 160.444 172.79C160.744 172.81 161.004 173.03 161.004 173.35H161.024Z" fill="#292929"/>
<path d="M166.524 154.45L160.764 148.59L154.834 142.55L154.214 141.92C154.214 141.92 142.414 154.19 142.404 154.19C140.004 156.69 139.024 160.75 140.774 163.86C140.844 163.99 140.924 164.12 141.014 164.25C141.404 164.84 141.874 165.38 142.424 165.85C142.434 165.86 142.444 165.87 142.464 165.89C144.254 167.42 146.734 168.23 149.044 168.07C151.674 167.9 154.804 166.27 155.564 163.56C155.944 162.21 155.614 160.79 155.024 159.56C155.024 159.56 154.834 159.04 154.364 158.46C153.644 157.58 152.244 156.57 149.794 156.97C149.444 157.03 149.064 157.12 148.664 157.24L144.244 158.74C144.054 158.8 143.864 158.79 143.704 158.74C143.154 158.57 142.804 157.92 143.154 157.37C143.374 157.02 144.734 156.1 145.384 155.65C145.384 155.65 146.074 154.82 146.674 153.92C147.614 152.5 149.034 151.42 150.704 151.05C152.164 150.74 154.084 150.81 156.424 151.91C157.264 152.29 158.154 152.81 159.104 153.49C159.344 153.67 159.624 153.78 159.914 153.8C160.494 153.84 161.564 154.06 162.344 155.07C162.784 155.64 163.144 156.47 163.254 157.65C163.254 157.65 161.944 156.14 159.844 156.31C159.844 156.31 160.204 156.47 160.584 156.93C160.624 156.97 160.654 157.02 160.694 157.07C161.154 157.68 161.584 158.71 161.414 160.38C161.414 160.38 161.264 162.95 158.814 165.34C158.034 166.1 158.294 167.35 159.174 167.8C159.324 167.88 159.494 167.93 159.684 167.96H159.714C163.024 168.38 166.024 166.36 167.584 163.55C169.274 160.5 169.034 156.99 166.524 154.44V154.45ZM154.294 149.65L152.034 147.25L154.244 144.77L154.844 145.43L156.424 147.16L154.324 149.61L154.304 149.63L154.294 149.65Z" fill="url(#paint5_radial_1_1394)"/>
<path d="M160.384 172.73C160.384 173.05 160.134 173.31 159.814 173.31L151.464 173.4C151.144 173.4 150.884 173.15 150.884 172.83C150.884 172.64 150.984 172.45 151.144 172.34C151.424 172.16 151.824 172.24 152.134 172.13C152.424 172.03 152.684 171.87 152.914 171.67C153.394 171.26 153.734 170.7 154.034 170.16C154.174 169.91 154.294 169.66 154.434 169.42C154.884 168.57 155.304 167.69 155.654 166.79C156.134 168.23 156.794 169.56 157.594 170.85C157.904 171.36 158.364 171.78 158.924 171.99C159.204 172.1 159.504 172.15 159.804 172.17C160.104 172.19 160.364 172.41 160.364 172.73H160.384Z" fill="url(#paint6_radial_1_1394)"/>
<g opacity="0.69">
<path d="M166.524 154.45L160.764 148.59L154.834 142.55L154.214 141.92C154.214 141.92 142.414 154.19 142.404 154.19C140.004 156.69 139.024 160.75 140.774 163.86C140.844 163.99 140.924 164.12 141.014 164.25C141.404 164.84 141.874 165.38 142.424 165.85C142.434 165.86 142.444 165.87 142.464 165.89C144.254 167.42 146.734 168.23 149.044 168.07C151.674 167.9 154.804 166.27 155.564 163.56C155.944 162.21 155.614 160.79 155.024 159.56C155.024 159.56 154.834 159.04 154.364 158.46C153.644 157.58 152.244 156.57 149.794 156.97C149.444 157.03 149.064 157.12 148.664 157.24L144.244 158.74C144.054 158.8 143.864 158.79 143.704 158.74C143.154 158.57 142.804 157.92 143.154 157.37C143.374 157.02 144.734 156.1 145.384 155.65C145.384 155.65 146.074 154.82 146.674 153.92C147.614 152.5 149.034 151.42 150.704 151.05C152.164 150.74 154.084 150.81 156.424 151.91C157.264 152.29 158.154 152.81 159.104 153.49C159.344 153.67 159.624 153.78 159.914 153.8C160.494 153.84 161.564 154.06 162.344 155.07C162.784 155.64 163.144 156.47 163.254 157.65C163.254 157.65 161.944 156.14 159.844 156.31C159.844 156.31 160.204 156.47 160.584 156.93C160.624 156.97 160.654 157.02 160.694 157.07C161.154 157.68 161.584 158.71 161.414 160.38C161.414 160.38 161.264 162.95 158.814 165.34C158.034 166.1 158.294 167.35 159.174 167.8C159.324 167.88 159.494 167.93 159.684 167.96H159.714C163.024 168.38 166.024 166.36 167.584 163.55C169.274 160.5 169.034 156.99 166.524 154.44V154.45ZM154.294 149.65L152.034 147.25L154.244 144.77L154.844 145.43L156.424 147.16L154.324 149.61L154.304 149.63L154.294 149.65Z" fill="#4A4A4A"/>
<path d="M160.384 172.73C160.384 173.05 160.134 173.31 159.814 173.31L151.464 173.4C151.144 173.4 150.884 173.15 150.884 172.83C150.884 172.64 150.984 172.45 151.144 172.34C151.424 172.16 151.824 172.24 152.134 172.13C152.424 172.03 152.684 171.87 152.914 171.67C153.394 171.26 153.734 170.7 154.034 170.16C154.174 169.91 154.294 169.66 154.434 169.42C154.884 168.57 155.304 167.69 155.654 166.79C156.134 168.23 156.794 169.56 157.594 170.85C157.904 171.36 158.364 171.78 158.924 171.99C159.204 172.1 159.504 172.15 159.804 172.17C160.104 172.19 160.364 172.41 160.364 172.73H160.384Z" fill="#4A4A4A"/>
</g>
<path d="M256.414 38.58L254.654 40.11L251.724 42.65L249.504 44.58L138.364 140.9L136.174 142.8L90.8938 182.04L88.8137 183.85L31.8237 233.25L29.0837 235.63L26.1638 238.16L24.8838 239.27C13.7838 221.85 6.08391 202.04 2.75391 180.78L3.19385 180.4L6.52368 177.52L9.73389 174.71L111.354 86.53L112.004 85.97L129.874 70.44H129.894L134.194 66.69H134.204L150.294 52.72L151.054 52.08L162.074 42.51L162.114 42.49L194.584 14.31L197.284 11.97L199.754 9.82999L202.354 7.57001C222.534 14.17 240.884 24.83 256.424 38.59L256.414 38.58Z" fill="url(#paint7_linear_1_1394)"/>
<path d="M308.204 149.15L308.094 149.25L301.844 154.61L298.884 157.15L198.614 243.33L196.254 245.36L185.944 254.23L184.114 255.81L183.414 256.4L180.494 258.9L172.284 265.96L169.504 268.35L135.024 297.99L131.534 300.97L126.934 304.93L124.024 307.44C110.244 304.66 97.1239 300.04 84.9539 293.84L87.2139 291.9L90.8037 288.82L93.7239 286.3L126.564 258.07L128.784 256.16L138.954 247.43L140.924 245.72L148.654 239.09L151.824 236.38L165.134 224.94L168.134 222.36L225.064 173.43L226.994 171.78H227.014L251.434 150.77L253.934 148.61L293.564 114.56L295.984 112.49L300.564 108.54L301.344 107.87C305.434 120.96 307.804 134.81 308.214 149.14L308.204 149.15Z" fill="url(#paint8_linear_1_1394)"/>
<defs>
<linearGradient id="paint0_linear_1_1394" x1="104.524" y1="302.14" x2="204.634" y2="11.41" gradientUnits="userSpaceOnUse">
<stop stop-color="#A7A7A7"/>
<stop offset="0.51" stop-color="#BABABA"/>
<stop offset="1" stop-color="#D2D2D2"/>
</linearGradient>
<linearGradient id="paint1_linear_1_1394" x1="154.474" y1="14.87" x2="154.474" y2="299.3" gradientUnits="userSpaceOnUse">
<stop stop-color="#3B3B3B"/>
<stop offset="0.22" stop-color="#4F4F4F"/>
<stop offset="0.58" stop-color="#787878"/>
<stop offset="1" stop-color="#EAEAEA"/>
</linearGradient>
<linearGradient id="paint2_linear_1_1394" x1="109.484" y1="288.54" x2="200.084" y2="25.43" gradientUnits="userSpaceOnUse">
<stop stop-color="#A7A7A7"/>
<stop offset="0.51" stop-color="#BABABA"/>
<stop offset="1" stop-color="#D2D2D2"/>
</linearGradient>
<radialGradient id="paint3_radial_1_1394" cx="0" cy="0" r="1" gradientUnits="userSpaceOnUse" gradientTransform="translate(126.118 149.31) rotate(19.77) scale(81.67 81.67)">
<stop stop-color="white"/>
<stop offset="0.6" stop-color="#DDDDDD"/>
<stop offset="1" stop-color="#CCCCCC"/>
</radialGradient>
<radialGradient id="paint4_radial_1_1394" cx="0" cy="0" r="1" gradientUnits="userSpaceOnUse" gradientTransform="translate(186.795 160.365) rotate(19.77) scale(81.06 81.06)">
<stop stop-color="white"/>
<stop offset="0.6" stop-color="#DDDDDD"/>
<stop offset="1" stop-color="#CCCCCC"/>
</radialGradient>
<radialGradient id="paint5_radial_1_1394" cx="0" cy="0" r="1" gradientUnits="userSpaceOnUse" gradientTransform="translate(154.274 155) scale(13.75 13.75)">
<stop stop-color="white"/>
<stop offset="0.6" stop-color="#DDDDDD"/>
<stop offset="1" stop-color="#CCCCCC"/>
</radialGradient>
<radialGradient id="paint6_radial_1_1394" cx="0" cy="0" r="1" gradientUnits="userSpaceOnUse" gradientTransform="translate(155.644 170.09) scale(4.09 4.08999)">
<stop stop-color="white"/>
<stop offset="0.6" stop-color="#DDDDDD"/>
<stop offset="1" stop-color="#CCCCCC"/>
</radialGradient>
<linearGradient id="paint7_linear_1_1394" x1="-48.3861" y1="274.13" x2="226.154" y2="20.4601" gradientUnits="userSpaceOnUse">
<stop stop-color="white" stop-opacity="0"/>
<stop offset="1" stop-color="white" stop-opacity="0.3"/>
</linearGradient>
<linearGradient id="paint8_linear_1_1394" x1="43.2139" y1="363.2" x2="317.294" y2="109.96" gradientUnits="userSpaceOnUse">
<stop stop-color="white" stop-opacity="0"/>
<stop offset="1" stop-color="white" stop-opacity="0.3"/>
</linearGradient>
</defs>
</svg>
