<svg width="204" height="44" viewBox="0 0 204 44" fill="none" xmlns="http://www.w3.org/2000/svg">
<rect x="0.5" y="0.5" width="203" height="43" rx="11.5" fill="#0E131B"/>
<rect x="0.5" y="0.5" width="203" height="43" rx="11.5" stroke="#222C39"/>
<path d="M16.624 25.276C16.72 25.18 16.852 25.124 16.992 25.124H29.688C29.92 25.124 30.036 25.404 29.872 25.568L27.364 28.076C27.268 28.172 27.136 28.228 26.996 28.228H14.3C14.068 28.228 13.952 27.948 14.116 27.784L16.624 25.276Z" fill="url(#paint0_linear_0_464)"/>
<path d="M16.624 15.912C16.724 15.816 16.856 15.76 16.992 15.76H29.688C29.92 15.76 30.036 16.04 29.872 16.204L27.364 18.712C27.268 18.808 27.136 18.864 26.996 18.864H14.3C14.068 18.864 13.952 18.584 14.116 18.42L16.624 15.912Z" fill="url(#paint1_linear_0_464)"/>
<path d="M27.364 20.564C27.268 20.468 27.136 20.412 26.996 20.412H14.3C14.068 20.412 13.952 20.692 14.116 20.856L16.624 23.364C16.72 23.46 16.852 23.516 16.992 23.516H29.688C29.92 23.516 30.036 23.236 29.872 23.072L27.364 20.564Z" fill="url(#paint2_linear_0_464)"/>
<path d="M56.482 27H54.844V24.886H50.392V23.57L54.228 17.662H56.482V23.444H57.728V24.886H56.482V27ZM54.844 23.444V19.132L52.002 23.444H54.844ZM61.8311 27.154C60.7391 27.154 59.8478 26.8087 59.1571 26.118L59.9131 24.886C60.4358 25.4273 61.0751 25.698 61.8311 25.698C62.6244 25.698 63.2311 25.3993 63.6511 24.802C64.0804 24.1953 64.2951 23.472 64.2951 22.632V22.352C64.0524 22.6973 63.7024 23.0053 63.2451 23.276C62.7878 23.5373 62.3024 23.668 61.7891 23.668C60.9024 23.668 60.1558 23.402 59.5491 22.87C58.9518 22.338 58.6531 21.596 58.6531 20.644C58.6531 19.7573 58.9704 19.0153 59.6051 18.418C60.2491 17.8113 61.0798 17.508 62.0971 17.508C62.9744 17.508 63.7071 17.7367 64.2951 18.194C64.8924 18.642 65.3171 19.2207 65.5691 19.93C65.8211 20.63 65.9471 21.4327 65.9471 22.338C65.9471 23.738 65.5878 24.8907 64.8691 25.796C64.1504 26.7013 63.1378 27.154 61.8311 27.154ZM62.2231 22.254C62.6244 22.254 63.0071 22.156 63.3711 21.96C63.7351 21.764 64.0338 21.498 64.2671 21.162C64.2204 20.574 64.0244 20.0607 63.6791 19.622C63.3431 19.1833 62.8438 18.964 62.1811 18.964C61.6118 18.964 61.1591 19.132 60.8231 19.468C60.4871 19.804 60.3191 20.1773 60.3191 20.588C60.3191 21.1293 60.5011 21.5447 60.8651 21.834C61.2291 22.114 61.6818 22.254 62.2231 22.254ZM68.5678 26.874C68.3718 27.0607 68.1432 27.154 67.8818 27.154C67.6205 27.154 67.3918 27.0607 67.1958 26.874C66.9998 26.678 66.9018 26.4447 66.9018 26.174C66.9018 25.9033 66.9998 25.6747 67.1958 25.488C67.3918 25.292 67.6205 25.194 67.8818 25.194C68.1432 25.194 68.3718 25.292 68.5678 25.488C68.7638 25.6747 68.8618 25.9033 68.8618 26.174C68.8618 26.4447 68.7638 26.678 68.5678 26.874ZM73.8615 27.168C72.3588 27.168 71.2015 26.6873 70.3895 25.726L71.3275 24.606C71.9808 25.3433 72.8208 25.712 73.8475 25.712C74.4261 25.712 74.8881 25.558 75.2335 25.25C75.5881 24.9327 75.7655 24.5407 75.7655 24.074C75.7655 23.57 75.5928 23.1687 75.2475 22.87C74.9115 22.562 74.4588 22.408 73.8895 22.408C73.0961 22.408 72.4148 22.6787 71.8455 23.22L70.6835 22.884V17.662H76.8015V19.104H72.3215V21.806C72.8628 21.2647 73.5675 20.994 74.4355 20.994C75.2568 20.994 75.9568 21.2693 76.5355 21.82C77.1235 22.3613 77.4175 23.0893 77.4175 24.004C77.4175 24.9653 77.0861 25.7353 76.4235 26.314C75.7701 26.8833 74.9161 27.168 73.8615 27.168ZM82.256 27.168C80.7533 27.168 79.596 26.6873 78.784 25.726L79.722 24.606C80.3753 25.3433 81.2153 25.712 82.242 25.712C82.8207 25.712 83.2827 25.558 83.628 25.25C83.9827 24.9327 84.16 24.5407 84.16 24.074C84.16 23.57 83.9873 23.1687 83.642 22.87C83.306 22.562 82.8533 22.408 82.284 22.408C81.4907 22.408 80.8093 22.6787 80.24 23.22L79.078 22.884V17.662H85.196V19.104H80.716V21.806C81.2573 21.2647 81.962 20.994 82.83 20.994C83.6513 20.994 84.3513 21.2693 84.93 21.82C85.518 22.3613 85.812 23.0893 85.812 24.004C85.812 24.9653 85.4807 25.7353 84.818 26.314C84.1647 26.8833 83.3107 27.168 82.256 27.168ZM90.8185 27.168C90.1559 27.168 89.5725 27.042 89.0685 26.79C88.5645 26.5287 88.1632 26.174 87.8645 25.726C87.5659 25.278 87.3419 24.774 87.1925 24.214C87.0432 23.6447 86.9685 23.024 86.9685 22.352C86.9685 20.9427 87.3279 19.7853 88.0465 18.88C88.7652 17.9747 89.7779 17.522 91.0845 17.522C92.1672 17.522 93.0632 17.8673 93.7725 18.558L93.0025 19.804C92.4799 19.2533 91.8405 18.978 91.0845 18.978C90.3379 18.978 89.7405 19.2767 89.2925 19.874C88.8445 20.4713 88.6205 21.1993 88.6205 22.058C88.6205 22.1793 88.6252 22.268 88.6345 22.324C88.8679 21.9787 89.2132 21.6753 89.6705 21.414C90.1279 21.1527 90.6179 21.022 91.1405 21.022C92.0272 21.022 92.7692 21.288 93.3665 21.82C93.9639 22.3427 94.2625 23.08 94.2625 24.032C94.2625 24.9187 93.9452 25.6653 93.3105 26.272C92.6759 26.8693 91.8452 27.168 90.8185 27.168ZM90.7345 25.712C91.3132 25.712 91.7705 25.5487 92.1065 25.222C92.4425 24.886 92.6105 24.508 92.6105 24.088C92.6105 23.5467 92.4285 23.136 92.0645 22.856C91.7005 22.5667 91.2432 22.422 90.6925 22.422C90.3005 22.422 89.9225 22.5247 89.5585 22.73C89.1945 22.926 88.8912 23.192 88.6485 23.528C88.7045 24.1253 88.9005 24.6387 89.2365 25.068C89.5725 25.4973 90.0719 25.712 90.7345 25.712ZM98.2887 27H96.4967L100.025 19.104H95.1807V17.662H101.915V18.796L98.2887 27ZM105.74 27H103.948L107.476 19.104H102.632V17.662H109.366V18.796L105.74 27ZM113.191 27H111.399L114.927 19.104H110.083V17.662H116.817V18.796L113.191 27ZM121.482 27H119.844V19.79L118.318 21.372L117.366 20.378L120.054 17.662H121.482V27ZM125.961 27H124.169L127.697 19.104H122.853V17.662H129.587V18.796L125.961 27Z" fill="white"/>
<path d="M145 21L142 24L139 21" stroke="white" stroke-width="2" stroke-linecap="round" stroke-linejoin="round"/>
<rect x="162.5" y="2.5" width="39" height="39" rx="9.5" fill="#00C74D"/>
<rect x="162.5" y="2.5" width="39" height="39" rx="9.5" fill="url(#paint3_linear_0_464)"/>
<rect x="162.5" y="2.5" width="39" height="39" rx="9.5" stroke="#2CF078"/>
<g clip-path="url(#clip0_0_464)">
<path d="M188.747 26.4836V27.2325C188.747 28.0563 188.073 28.7303 187.248 28.7303H176.752C175.92 28.7303 175.253 28.0563 175.253 27.2325V16.7475C175.253 15.9237 175.92 15.2496 176.752 15.2496H187.248C188.073 15.2496 188.747 15.9237 188.747 16.7475V17.4964H182C181.168 17.4964 180.501 18.1705 180.501 18.9943V24.9857C180.501 25.8095 181.168 26.4836 182 26.4836H188.747ZM182 24.9857H189.497V18.9943H182V24.9857ZM184.999 23.1134C184.377 23.1134 183.874 22.6116 183.874 21.99C183.874 21.3684 184.377 20.8666 184.999 20.8666C185.621 20.8666 186.123 21.3684 186.123 21.99C186.123 22.6116 185.621 23.1134 184.999 23.1134Z" fill="white"/>
</g>
<defs>
<linearGradient id="paint0_linear_0_464" x1="28.4752" y1="14.2618" x2="19.6885" y2="31.0918" gradientUnits="userSpaceOnUse">
<stop stop-color="#00FFA3"/>
<stop offset="1" stop-color="#DC1FFF"/>
</linearGradient>
<linearGradient id="paint1_linear_0_464" x1="24.6332" y1="12.256" x2="15.8465" y2="29.0859" gradientUnits="userSpaceOnUse">
<stop stop-color="#00FFA3"/>
<stop offset="1" stop-color="#DC1FFF"/>
</linearGradient>
<linearGradient id="paint2_linear_0_464" x1="26.5419" y1="13.2525" x2="17.7553" y2="30.0824" gradientUnits="userSpaceOnUse">
<stop stop-color="#00FFA3"/>
<stop offset="1" stop-color="#DC1FFF"/>
</linearGradient>
<linearGradient id="paint3_linear_0_464" x1="182.005" y1="9.69268" x2="182.005" y2="50.7231" gradientUnits="userSpaceOnUse">
<stop stop-color="#12CB70"/>
<stop offset="1" stop-color="#09AC85"/>
</linearGradient>
<clipPath id="clip0_0_464">
<rect width="15" height="13.98" fill="white" transform="translate(175 15)"/>
</clipPath>
</defs>
</svg>
